<svg xmlns="http://www.w3.org/2000/svg" xmlns:xlink="http://www.w3.org/1999/xlink" contentStyleType="text/css" data-diagram-type="SEQUENCE" height="1130px" preserveAspectRatio="none" style="width:1474px;height:1130px;background:#FFFFFF;" version="1.1" viewBox="0 0 1474 1130" width="1474px" zoomAndPan="magnify"><title>Backend Request Flow</title><defs/><g><text fill="#000000" font-family="sans-serif" font-size="14" font-weight="bold" lengthAdjust="spacing" textLength="178.6572" x="649.4038" y="27.9951">Backend Request Flow</text><g><title>index.php</title><rect fill="#FFFFFF" height="882.4531" style="stroke:#181818;stroke-width:1;" width="10" x="151.46" y="149.7266"/></g><g><title>RouterApp</title><rect fill="#FFFFFF" height="119.3984" style="stroke:#181818;stroke-width:1;" width="10" x="405.0908" y="178.8594"/></g><g><title>RouterApp</title><rect fill="#FFFFFF" height="639.5234" style="stroke:#181818;stroke-width:1;" width="10" x="405.0908" y="363.5234"/></g><g><title>Router</title><rect fill="#FFFFFF" height="581.2578" style="stroke:#181818;stroke-width:1;" width="10" x="592.5771" y="392.6563"/></g><g><title>Request</title><rect fill="#FFFFFF" height="29.1328" style="stroke:#181818;stroke-width:1;" width="10" x="720.4717" y="421.7891"/></g><g><title>Global Middlewares</title><rect fill="#FFFFFF" height="14" style="stroke:#181818;stroke-width:1;" width="10" x="841.7437" y="546.3203"/></g><g><title>Global Middlewares</title><rect fill="#FFFFFF" height="14" style="stroke:#181818;stroke-width:1;" width="10" x="841.7437" y="589.4531"/></g><g><title>AuthMiddleware</title><rect fill="#FFFFFF" height="14" style="stroke:#181818;stroke-width:1;" width="10" x="990.9951" y="632.5859"/></g><g><title>AuthMiddleware</title><rect fill="#FFFFFF" height="14" style="stroke:#181818;stroke-width:1;" width="10" x="990.9951" y="706.8516"/></g><g><title>Controller</title><rect fill="#FFFFFF" height="187.7969" style="stroke:#181818;stroke-width:1;" width="10" x="1106.3096" y="756.9844"/></g><g><title>Service</title><rect fill="#FFFFFF" height="129.5313" style="stroke:#181818;stroke-width:1;" width="10" x="1282.9814" y="786.1172"/></g><g><title>Database</title><rect fill="#FFFFFF" height="29.1328" style="stroke:#181818;stroke-width:1;" width="10" x="1432.0645" y="857.3828"/></g><rect fill="none" height="146.5313" style="stroke:#000000;stroke-width:1.5;" width="512.6582" x="557.0649" y="508.0547"/><rect fill="none" height="60.2656" style="stroke:#000000;stroke-width:1.5;" width="512.6582" x="557.0649" y="668.5859"/><g class="participant-lifeline" data-entity-uid="part1" data-qualified-name="Client" id="part1-lifeline"><g><title>Client</title><rect fill="#000000" fill-opacity="0.00000" height="931.5859" width="8" x="24.2651" y="118.5938"/><line style="stroke:#181818;stroke-width:0.5;stroke-dasharray:5,5;" x1="28" x2="28" y1="118.5938" y2="1050.1797"/></g></g><g class="participant-lifeline" data-entity-uid="part2" data-qualified-name="Index" id="part2-lifeline"><g><title>index.php</title><rect fill="#000000" fill-opacity="0.00000" height="931.5859" width="8" x="152.46" y="118.5938"/><line style="stroke:#181818;stroke-width:0.5;stroke-dasharray:5,5;" x1="155.6377" x2="155.6377" y1="118.5938" y2="1050.1797"/></g></g><g class="participant-lifeline" data-entity-uid="part3" data-qualified-name="App" id="part3-lifeline"><g><title>RouterApp</title><rect fill="#000000" fill-opacity="0.00000" height="931.5859" width="8" x="406.0908" y="118.5938"/><line style="stroke:#181818;stroke-width:0.5;stroke-dasharray:5,5;" x1="409.9033" x2="409.9033" y1="118.5938" y2="1050.1797"/></g></g><g class="participant-lifeline" data-entity-uid="part4" data-qualified-name="Router" id="part4-lifeline"><g><title>Router</title><rect fill="#000000" fill-opacity="0.00000" height="931.5859" width="8" x="593.5771" y="118.5938"/><line style="stroke:#181818;stroke-width:0.5;stroke-dasharray:5,5;" x1="597.0649" x2="597.0649" y1="118.5938" y2="1050.1797"/></g></g><g class="participant-lifeline" data-entity-uid="part5" data-qualified-name="Req" id="part5-lifeline"><g><title>Request</title><rect fill="#000000" fill-opacity="0.00000" height="931.5859" width="8" x="721.4717" y="118.5938"/><line style="stroke:#181818;stroke-width:0.5;stroke-dasharray:5,5;" x1="724.7231" x2="724.7231" y1="118.5938" y2="1050.1797"/></g></g><g class="participant-lifeline" data-entity-uid="part6" data-qualified-name="GMW" id="part6-lifeline"><g><title>Global Middlewares</title><rect fill="#000000" fill-opacity="0.00000" height="931.5859" width="8" x="842.7437" y="118.5938"/><line style="stroke:#181818;stroke-width:0.5;stroke-dasharray:5,5;" x1="846.2202" x2="846.2202" y1="118.5938" y2="1050.1797"/></g></g><g class="participant-lifeline" data-entity-uid="part7" data-qualified-name="AuthMW" id="part7-lifeline"><g><title>AuthMiddleware</title><rect fill="#000000" fill-opacity="0.00000" height="931.5859" width="8" x="991.9951" y="118.5938"/><line style="stroke:#181818;stroke-width:0.5;stroke-dasharray:5,5;" x1="995.2671" x2="995.2671" y1="118.5938" y2="1050.1797"/></g></g><g class="participant-lifeline" data-entity-uid="part8" data-qualified-name="Ctrl" id="part8-lifeline"><g><title>Controller</title><rect fill="#000000" fill-opacity="0.00000" height="931.5859" width="8" x="1107.3096" y="118.5938"/><line style="stroke:#181818;stroke-width:0.5;stroke-dasharray:5,5;" x1="1110.7231" x2="1110.7231" y1="118.5938" y2="1050.1797"/></g></g><g class="participant-lifeline" data-entity-uid="part9" data-qualified-name="Svc" id="part9-lifeline"><g><title>Service</title><rect fill="#000000" fill-opacity="0.00000" height="931.5859" width="8" x="1283.9814" y="118.5938"/><line style="stroke:#181818;stroke-width:0.5;stroke-dasharray:5,5;" x1="1287.1108" x2="1287.1108" y1="118.5938" y2="1050.1797"/></g></g><g class="participant-lifeline" data-entity-uid="part10" data-qualified-name="DB" id="part10-lifeline"><g><title>Database</title><rect fill="#000000" fill-opacity="0.00000" height="931.5859" width="8" x="1433.0645" y="118.5938"/><line style="stroke:#181818;stroke-width:0.5;stroke-dasharray:5,5;" x1="1436.6641" x2="1436.6641" y1="118.5938" y2="1050.1797"/></g></g><g class="participant participant-head" data-entity-uid="part1" data-qualified-name="Client" id="part1-head"><text fill="#000000" font-family="sans-serif" font-size="14" lengthAdjust="spacing" textLength="40.5303" x="5" y="115.292">Client</text><ellipse cx="28.2651" cy="50.7969" fill="#E2E2F0" rx="8" ry="8" style="stroke:#181818;stroke-width:0.5;"/><path d="M28.2651,58.7969 L28.2651,85.7969 M15.2651,66.7969 L41.2651,66.7969 M28.2651,85.7969 L15.2651,100.7969 M28.2651,85.7969 L41.2651,100.7969" fill="none" style="stroke:#181818;stroke-width:0.5;"/></g><g class="participant participant-tail" data-entity-uid="part1" data-qualified-name="Client" id="part1-tail"><text fill="#000000" font-family="sans-serif" font-size="14" lengthAdjust="spacing" textLength="40.5303" x="5" y="1062.1748">Client</text><ellipse cx="28.2651" cy="1073.9766" fill="#E2E2F0" rx="8" ry="8" style="stroke:#181818;stroke-width:0.5;"/><path d="M28.2651,1081.9766 L28.2651,1108.9766 M15.2651,1089.9766 L41.2651,1089.9766 M28.2651,1108.9766 L15.2651,1123.9766 M28.2651,1108.9766 L41.2651,1123.9766" fill="none" style="stroke:#181818;stroke-width:0.5;"/></g><g class="participant participant-head" data-entity-uid="part2" data-qualified-name="Index" id="part2-head"><rect fill="#E2E2F0" height="30.2969" rx="2.5" ry="2.5" style="stroke:#181818;stroke-width:0.5;" width="83.6445" x="114.6377" y="87.2969"/><text fill="#000000" font-family="sans-serif" font-size="14" lengthAdjust="spacing" textLength="69.6445" x="121.6377" y="107.292">index.php</text></g><g class="participant participant-tail" data-entity-uid="part2" data-qualified-name="Index" id="part2-tail"><rect fill="#E2E2F0" height="30.2969" rx="2.5" ry="2.5" style="stroke:#181818;stroke-width:0.5;" width="83.6445" x="114.6377" y="1049.1797"/><text fill="#000000" font-family="sans-serif" font-size="14" lengthAdjust="spacing" textLength="69.6445" x="121.6377" y="1069.1748">index.php</text></g><g class="participant participant-head" data-entity-uid="part3" data-qualified-name="App" id="part3-head"><rect fill="#E2E2F0" height="30.2969" rx="2.5" ry="2.5" style="stroke:#181818;stroke-width:0.5;" width="88.375" x="365.9033" y="87.2969"/><text fill="#000000" font-family="sans-serif" font-size="14" lengthAdjust="spacing" textLength="74.375" x="372.9033" y="107.292">RouterApp</text></g><g class="participant participant-tail" data-entity-uid="part3" data-qualified-name="App" id="part3-tail"><rect fill="#E2E2F0" height="30.2969" rx="2.5" ry="2.5" style="stroke:#181818;stroke-width:0.5;" width="88.375" x="365.9033" y="1049.1797"/><text fill="#000000" font-family="sans-serif" font-size="14" lengthAdjust="spacing" textLength="74.375" x="372.9033" y="1069.1748">RouterApp</text></g><g class="participant participant-head" data-entity-uid="part4" data-qualified-name="Router" id="part4-head"><rect fill="#E2E2F0" height="30.2969" rx="2.5" ry="2.5" style="stroke:#181818;stroke-width:0.5;" width="61.0244" x="567.0649" y="87.2969"/><text fill="#000000" font-family="sans-serif" font-size="14" lengthAdjust="spacing" textLength="47.0244" x="574.0649" y="107.292">Router</text></g><g class="participant participant-tail" data-entity-uid="part4" data-qualified-name="Router" id="part4-tail"><rect fill="#E2E2F0" height="30.2969" rx="2.5" ry="2.5" style="stroke:#181818;stroke-width:0.5;" width="61.0244" x="567.0649" y="1049.1797"/><text fill="#000000" font-family="sans-serif" font-size="14" lengthAdjust="spacing" textLength="47.0244" x="574.0649" y="1069.1748">Router</text></g><g class="participant participant-head" data-entity-uid="part5" data-qualified-name="Req" id="part5-head"><rect fill="#E2E2F0" height="30.2969" rx="2.5" ry="2.5" style="stroke:#181818;stroke-width:0.5;" width="71.4971" x="689.7231" y="87.2969"/><text fill="#000000" font-family="sans-serif" font-size="14" lengthAdjust="spacing" textLength="57.4971" x="696.7231" y="107.292">Request</text></g><g class="participant participant-tail" data-entity-uid="part5" data-qualified-name="Req" id="part5-tail"><rect fill="#E2E2F0" height="30.2969" rx="2.5" ry="2.5" style="stroke:#181818;stroke-width:0.5;" width="71.4971" x="689.7231" y="1049.1797"/><text fill="#000000" font-family="sans-serif" font-size="14" lengthAdjust="spacing" textLength="57.4971" x="696.7231" y="1069.1748">Request</text></g><g class="participant participant-head" data-entity-uid="part6" data-qualified-name="GMW" id="part6-head"><rect fill="#E2E2F0" height="30.2969" rx="2.5" ry="2.5" style="stroke:#181818;stroke-width:0.5;" width="151.0469" x="771.2202" y="87.2969"/><text fill="#000000" font-family="sans-serif" font-size="14" lengthAdjust="spacing" textLength="137.0469" x="778.2202" y="107.292">Global Middlewares</text></g><g class="participant participant-tail" data-entity-uid="part6" data-qualified-name="GMW" id="part6-tail"><rect fill="#E2E2F0" height="30.2969" rx="2.5" ry="2.5" style="stroke:#181818;stroke-width:0.5;" width="151.0469" x="771.2202" y="1049.1797"/><text fill="#000000" font-family="sans-serif" font-size="14" lengthAdjust="spacing" textLength="137.0469" x="778.2202" y="1069.1748">Global Middlewares</text></g><g class="participant participant-head" data-entity-uid="part7" data-qualified-name="AuthMW" id="part7-head"><rect fill="#E2E2F0" height="30.2969" rx="2.5" ry="2.5" style="stroke:#181818;stroke-width:0.5;" width="127.4561" x="932.2671" y="87.2969"/><text fill="#000000" font-family="sans-serif" font-size="14" lengthAdjust="spacing" textLength="113.4561" x="939.2671" y="107.292">AuthMiddleware</text></g><g class="participant participant-tail" data-entity-uid="part7" data-qualified-name="AuthMW" id="part7-tail"><rect fill="#E2E2F0" height="30.2969" rx="2.5" ry="2.5" style="stroke:#181818;stroke-width:0.5;" width="127.4561" x="932.2671" y="1049.1797"/><text fill="#000000" font-family="sans-serif" font-size="14" lengthAdjust="spacing" textLength="113.4561" x="939.2671" y="1069.1748">AuthMiddleware</text></g><g class="participant participant-head" data-entity-uid="part8" data-qualified-name="Ctrl" id="part8-head"><rect fill="#E2E2F0" height="30.2969" rx="2.5" ry="2.5" style="stroke:#181818;stroke-width:0.5;" width="83.1729" x="1069.7231" y="87.2969"/><text fill="#000000" font-family="sans-serif" font-size="14" lengthAdjust="spacing" textLength="69.1729" x="1076.7231" y="107.292">Controller</text></g><g class="participant participant-tail" data-entity-uid="part8" data-qualified-name="Ctrl" id="part8-tail"><rect fill="#E2E2F0" height="30.2969" rx="2.5" ry="2.5" style="stroke:#181818;stroke-width:0.5;" width="83.1729" x="1069.7231" y="1049.1797"/><text fill="#000000" font-family="sans-serif" font-size="14" lengthAdjust="spacing" textLength="69.1729" x="1076.7231" y="1069.1748">Controller</text></g><g class="participant participant-head" data-entity-uid="part9" data-qualified-name="Svc" id="part9-head"><rect fill="#E2E2F0" height="30.2969" rx="2.5" ry="2.5" style="stroke:#181818;stroke-width:0.5;" width="65.7412" x="1255.1108" y="87.2969"/><text fill="#000000" font-family="sans-serif" font-size="14" lengthAdjust="spacing" textLength="51.7412" x="1262.1108" y="107.292">Service</text></g><g class="participant participant-tail" data-entity-uid="part9" data-qualified-name="Svc" id="part9-tail"><rect fill="#E2E2F0" height="30.2969" rx="2.5" ry="2.5" style="stroke:#181818;stroke-width:0.5;" width="65.7412" x="1255.1108" y="1049.1797"/><text fill="#000000" font-family="sans-serif" font-size="14" lengthAdjust="spacing" textLength="51.7412" x="1262.1108" y="1069.1748">Service</text></g><g class="participant participant-head" data-entity-uid="part10" data-qualified-name="DB" id="part10-head"><text fill="#000000" font-family="sans-serif" font-size="14" lengthAdjust="spacing" textLength="66.8008" x="1400.6641" y="115.292">Database</text><path d="M1419.0645,66.2969 C1419.0645,56.2969 1437.0645,56.2969 1437.0645,56.2969 C1437.0645,56.2969 1455.0645,56.2969 1455.0645,66.2969 L1455.0645,92.2969 C1455.0645,102.2969 1437.0645,102.2969 1437.0645,102.2969 C1437.0645,102.2969 1419.0645,102.2969 1419.0645,92.2969 L1419.0645,66.2969" fill="#E2E2F0" style="stroke:#181818;stroke-width:0.5;"/><path d="M1419.0645,66.2969 C1419.0645,76.2969 1437.0645,76.2969 1437.0645,76.2969 C1437.0645,76.2969 1455.0645,76.2969 1455.0645,66.2969" fill="none" style="stroke:#181818;stroke-width:0.5;"/></g><g class="participant participant-tail" data-entity-uid="part10" data-qualified-name="DB" id="part10-tail"><text fill="#000000" font-family="sans-serif" font-size="14" lengthAdjust="spacing" textLength="66.8008" x="1400.6641" y="1062.1748">Database</text><path d="M1419.0645,1075.4766 C1419.0645,1065.4766 1437.0645,1065.4766 1437.0645,1065.4766 C1437.0645,1065.4766 1455.0645,1065.4766 1455.0645,1075.4766 L1455.0645,1101.4766 C1455.0645,1111.4766 1437.0645,1111.4766 1437.0645,1111.4766 C1437.0645,1111.4766 1419.0645,1111.4766 1419.0645,1101.4766 L1419.0645,1075.4766" fill="#E2E2F0" style="stroke:#181818;stroke-width:0.5;"/><path d="M1419.0645,1075.4766 C1419.0645,1085.4766 1437.0645,1085.4766 1437.0645,1085.4766 C1437.0645,1085.4766 1455.0645,1085.4766 1455.0645,1075.4766" fill="none" style="stroke:#181818;stroke-width:0.5;"/></g><g><title>index.php</title><rect fill="#FFFFFF" height="882.4531" style="stroke:#181818;stroke-width:1;" width="10" x="151.46" y="149.7266"/></g><g><title>RouterApp</title><rect fill="#FFFFFF" height="119.3984" style="stroke:#181818;stroke-width:1;" width="10" x="405.0908" y="178.8594"/></g><g><title>RouterApp</title><rect fill="#FFFFFF" height="639.5234" style="stroke:#181818;stroke-width:1;" width="10" x="405.0908" y="363.5234"/></g><g><title>Router</title><rect fill="#FFFFFF" height="581.2578" style="stroke:#181818;stroke-width:1;" width="10" x="592.5771" y="392.6563"/></g><g><title>Request</title><rect fill="#FFFFFF" height="29.1328" style="stroke:#181818;stroke-width:1;" width="10" x="720.4717" y="421.7891"/></g><g><title>Global Middlewares</title><rect fill="#FFFFFF" height="14" style="stroke:#181818;stroke-width:1;" width="10" x="841.7437" y="546.3203"/></g><g><title>Global Middlewares</title><rect fill="#FFFFFF" height="14" style="stroke:#181818;stroke-width:1;" width="10" x="841.7437" y="589.4531"/></g><g><title>AuthMiddleware</title><rect fill="#FFFFFF" height="14" style="stroke:#181818;stroke-width:1;" width="10" x="990.9951" y="632.5859"/></g><g><title>AuthMiddleware</title><rect fill="#FFFFFF" height="14" style="stroke:#181818;stroke-width:1;" width="10" x="990.9951" y="706.8516"/></g><g><title>Controller</title><rect fill="#FFFFFF" height="187.7969" style="stroke:#181818;stroke-width:1;" width="10" x="1106.3096" y="756.9844"/></g><g><title>Service</title><rect fill="#FFFFFF" height="129.5313" style="stroke:#181818;stroke-width:1;" width="10" x="1282.9814" y="786.1172"/></g><g><title>Database</title><rect fill="#FFFFFF" height="29.1328" style="stroke:#181818;stroke-width:1;" width="10" x="1432.0645" y="857.3828"/></g><g class="message" data-entity-1="part1" data-entity-2="part2" id="msg1"><polygon fill="#181818" points="139.46,145.7266,149.46,149.7266,139.46,153.7266,143.46,149.7266" style="stroke:#181818;stroke-width:1;"/><line style="stroke:#181818;stroke-width:1;" x1="28.2651" x2="145.46" y1="149.7266" y2="149.7266"/><text fill="#000000" font-family="sans-serif" font-size="13" lengthAdjust="spacing" textLength="91.019" x="35.2651" y="144.6606">HTTP Request</text></g><g class="message" data-entity-1="part2" data-entity-2="part3" id="msg2"><polygon fill="#181818" points="393.0908,174.8594,403.0908,178.8594,393.0908,182.8594,397.0908,178.8594" style="stroke:#181818;stroke-width:1;"/><line style="stroke:#181818;stroke-width:1;" x1="161.46" x2="399.0908" y1="178.8594" y2="178.8594"/><text fill="#000000" font-family="sans-serif" font-size="13" lengthAdjust="spacing" textLength="224.6309" x="168.46" y="173.7935">new RouterApp(router, logger, db)</text></g><g class="message" data-entity-1="part3" data-entity-2="part3" id="msg3"><line style="stroke:#181818;stroke-width:1;" x1="415.0908" x2="457.0908" y1="207.9922" y2="207.9922"/><line style="stroke:#181818;stroke-width:1;" x1="457.0908" x2="457.0908" y1="207.9922" y2="220.9922"/><line style="stroke:#181818;stroke-width:1;" x1="416.0908" x2="457.0908" y1="220.9922" y2="220.9922"/><polygon fill="#181818" points="426.0908,216.9922,416.0908,220.9922,426.0908,224.9922,422.0908,220.9922" style="stroke:#181818;stroke-width:1;"/><text fill="#000000" font-family="sans-serif" font-size="13" font-style="italic" lengthAdjust="spacing" textLength="145.2217" x="426.2231" y="202.9263">Setup DI &amp; Controllers</text></g><g class="message" data-entity-1="part3" data-entity-2="part3" id="msg4"><line style="stroke:#181818;stroke-width:1;" x1="415.0908" x2="457.0908" y1="250.125" y2="250.125"/><line style="stroke:#181818;stroke-width:1;" x1="457.0908" x2="457.0908" y1="250.125" y2="263.125"/><line style="stroke:#181818;stroke-width:1;" x1="416.0908" x2="457.0908" y1="263.125" y2="263.125"/><polygon fill="#181818" points="426.0908,259.125,416.0908,263.125,426.0908,267.125,422.0908,263.125" style="stroke:#181818;stroke-width:1;"/><text fill="#000000" font-family="sans-serif" font-size="13" lengthAdjust="spacing" textLength="142.2192" x="422.0908" y="245.0591">registerMiddlewares()</text></g><g class="message" data-entity-1="part3" data-entity-2="part3" id="msg5"><line style="stroke:#181818;stroke-width:1;" x1="415.0908" x2="457.0908" y1="297.2578" y2="297.2578"/><line style="stroke:#181818;stroke-width:1;" x1="457.0908" x2="457.0908" y1="297.2578" y2="310.2578"/><line style="stroke:#181818;stroke-width:1;" x1="410.0908" x2="457.0908" y1="310.2578" y2="310.2578"/><polygon fill="#181818" points="420.0908,306.2578,410.0908,310.2578,420.0908,314.2578,416.0908,310.2578" style="stroke:#181818;stroke-width:1;"/><text fill="#000000" font-family="sans-serif" font-size="13" lengthAdjust="spacing" textLength="105.6567" x="422.0908" y="292.1919">registerRoutes()</text></g><g class="message" data-entity-1="part2" data-entity-2="part4" id="msg6"><polygon fill="#181818" points="585.5771,330.3906,595.5771,334.3906,585.5771,338.3906,589.5771,334.3906" style="stroke:#181818;stroke-width:1;"/><line style="stroke:#181818;stroke-width:1;" x1="161.46" x2="591.5771" y1="334.3906" y2="334.3906"/><text fill="#000000" font-family="sans-serif" font-size="13" lengthAdjust="spacing" textLength="227.1318" x="168.46" y="329.3247">addMiddleware(DebugMiddleware)</text></g><g class="message" data-entity-1="part2" data-entity-2="part3" id="msg7"><polygon fill="#181818" points="393.0908,359.5234,403.0908,363.5234,393.0908,367.5234,397.0908,363.5234" style="stroke:#181818;stroke-width:1;"/><line style="stroke:#181818;stroke-width:1;" x1="161.46" x2="399.0908" y1="363.5234" y2="363.5234"/><text fill="#000000" font-family="sans-serif" font-size="13" lengthAdjust="spacing" textLength="65.4824" x="168.46" y="358.4575">dispatch()</text></g><g class="message" data-entity-1="part3" data-entity-2="part4" id="msg8"><polygon fill="#181818" points="580.5771,388.6563,590.5771,392.6563,580.5771,396.6563,584.5771,392.6563" style="stroke:#181818;stroke-width:1;"/><line style="stroke:#181818;stroke-width:1;" x1="415.0908" x2="586.5771" y1="392.6563" y2="392.6563"/><text fill="#000000" font-family="sans-serif" font-size="13" lengthAdjust="spacing" textLength="65.4824" x="422.0908" y="387.5903">dispatch()</text></g><g class="message" data-entity-1="part4" data-entity-2="part5" id="msg9"><polygon fill="#181818" points="708.4717,417.7891,718.4717,421.7891,708.4717,425.7891,712.4717,421.7891" style="stroke:#181818;stroke-width:1;"/><line style="stroke:#181818;stroke-width:1;" x1="602.5771" x2="714.4717" y1="421.7891" y2="421.7891"/><text fill="#000000" font-family="sans-serif" font-size="13" lengthAdjust="spacing" textLength="94.5356" x="609.5771" y="416.7231">new Request()</text></g><g class="message" data-entity-1="part5" data-entity-2="part4" id="msg10"><polygon fill="#181818" points="613.5771,446.9219,603.5771,450.9219,613.5771,454.9219,609.5771,450.9219" style="stroke:#181818;stroke-width:1;"/><line style="stroke:#181818;stroke-width:1;stroke-dasharray:2,2;" x1="607.5771" x2="724.4717" y1="450.9219" y2="450.9219"/><text fill="#000000" font-family="sans-serif" font-size="13" lengthAdjust="spacing" textLength="93.8945" x="619.5771" y="445.856">request object</text></g><g class="message" data-entity-1="part4" data-entity-2="part4" id="msg11"><line style="stroke:#181818;stroke-width:1;" x1="602.5771" x2="644.5771" y1="480.0547" y2="480.0547"/><line style="stroke:#181818;stroke-width:1;" x1="644.5771" x2="644.5771" y1="480.0547" y2="493.0547"/><line style="stroke:#181818;stroke-width:1;" x1="603.5771" x2="644.5771" y1="493.0547" y2="493.0547"/><polygon fill="#181818" points="613.5771,489.0547,603.5771,493.0547,613.5771,497.0547,609.5771,493.0547" style="stroke:#181818;stroke-width:1;"/><text fill="#000000" font-family="sans-serif" font-size="13" lengthAdjust="spacing" textLength="82.1196" x="609.5771" y="474.9888">Match Route</text></g><path d="M557.0649,508.0547 L746.2075,508.0547 L746.2075,515.1875 L736.2075,525.1875 L557.0649,525.1875 L557.0649,508.0547" fill="#EEEEEE" style="stroke:#000000;stroke-width:1.5;"/><rect fill="none" height="146.5313" style="stroke:#000000;stroke-width:1.5;" width="512.6582" x="557.0649" y="508.0547"/><text fill="#000000" font-family="sans-serif" font-size="13" font-weight="bold" lengthAdjust="spacing" textLength="144.1426" x="572.0649" y="521.1216">Global Middlewares</text><g class="message" data-entity-1="part4" data-entity-2="part6" id="msg12"><polygon fill="#181818" points="829.7437,542.3203,839.7437,546.3203,829.7437,550.3203,833.7437,546.3203" style="stroke:#181818;stroke-width:1;"/><line style="stroke:#181818;stroke-width:1;" x1="602.5771" x2="835.7437" y1="546.3203" y2="546.3203"/><text fill="#000000" font-family="sans-serif" font-size="13" lengthAdjust="spacing" textLength="135.77" x="609.5771" y="541.2544">CorsMiddleware(req)</text></g><g class="message" data-entity-1="part6" data-entity-2="part4" id="msg13"><polygon fill="#181818" points="613.5771,556.3203,603.5771,560.3203,613.5771,564.3203,609.5771,560.3203" style="stroke:#181818;stroke-width:1;"/><line style="stroke:#181818;stroke-width:1;stroke-dasharray:2,2;" x1="607.5771" x2="845.7437" y1="560.3203" y2="560.3203"/></g><g class="message" data-entity-1="part4" data-entity-2="part6" id="msg14"><polygon fill="#181818" points="829.7437,585.4531,839.7437,589.4531,829.7437,593.4531,833.7437,589.4531" style="stroke:#181818;stroke-width:1;"/><line style="stroke:#181818;stroke-width:1;" x1="602.5771" x2="835.7437" y1="589.4531" y2="589.4531"/><text fill="#000000" font-family="sans-serif" font-size="13" lengthAdjust="spacing" textLength="149.373" x="609.5771" y="584.3872">DebugMiddleware(req)</text></g><g class="message" data-entity-1="part6" data-entity-2="part4" id="msg15"><polygon fill="#181818" points="613.5771,599.4531,603.5771,603.4531,613.5771,607.4531,609.5771,603.4531" style="stroke:#181818;stroke-width:1;"/><line style="stroke:#181818;stroke-width:1;stroke-dasharray:2,2;" x1="607.5771" x2="845.7437" y1="603.4531" y2="603.4531"/></g><g class="message" data-entity-1="part4" data-entity-2="part7" id="msg16"><polygon fill="#181818" points="978.9951,628.5859,988.9951,632.5859,978.9951,636.5859,982.9951,632.5859" style="stroke:#181818;stroke-width:1;"/><line style="stroke:#181818;stroke-width:1;" x1="602.5771" x2="984.9951" y1="632.5859" y2="632.5859"/><text fill="#000000" font-family="sans-serif" font-size="13" lengthAdjust="spacing" textLength="97.5762" x="609.5771" y="627.52">refreshJwt(req)</text></g><g class="message" data-entity-1="part7" data-entity-2="part4" id="msg17"><polygon fill="#181818" points="613.5771,642.5859,603.5771,646.5859,613.5771,650.5859,609.5771,646.5859" style="stroke:#181818;stroke-width:1;"/><line style="stroke:#181818;stroke-width:1;stroke-dasharray:2,2;" x1="607.5771" x2="994.9951" y1="646.5859" y2="646.5859"/></g><path d="M557.0649,668.5859 L886.6875,668.5859 L886.6875,675.7188 L876.6875,685.7188 L557.0649,685.7188 L557.0649,668.5859" fill="#EEEEEE" style="stroke:#000000;stroke-width:1.5;"/><rect fill="none" height="60.2656" style="stroke:#000000;stroke-width:1.5;" width="512.6582" x="557.0649" y="668.5859"/><text fill="#000000" font-family="sans-serif" font-size="13" font-weight="bold" lengthAdjust="spacing" textLength="284.6226" x="572.0649" y="681.6528">Route Middlewares (Protected Routes)</text><g class="message" data-entity-1="part4" data-entity-2="part7" id="msg18"><polygon fill="#181818" points="978.9951,702.8516,988.9951,706.8516,978.9951,710.8516,982.9951,706.8516" style="stroke:#181818;stroke-width:1;"/><line style="stroke:#181818;stroke-width:1;" x1="602.5771" x2="984.9951" y1="706.8516" y2="706.8516"/><text fill="#000000" font-family="sans-serif" font-size="13" lengthAdjust="spacing" textLength="108.9956" x="609.5771" y="701.7856">requireAuth(req)</text></g><g class="message" data-entity-1="part7" data-entity-2="part4" id="msg19"><polygon fill="#181818" points="613.5771,716.8516,603.5771,720.8516,613.5771,724.8516,609.5771,720.8516" style="stroke:#181818;stroke-width:1;"/><line style="stroke:#181818;stroke-width:1;stroke-dasharray:2,2;" x1="607.5771" x2="994.9951" y1="720.8516" y2="720.8516"/></g><g class="message" data-entity-1="part4" data-entity-2="part8" id="msg20"><polygon fill="#181818" points="1094.3096,752.9844,1104.3096,756.9844,1094.3096,760.9844,1098.3096,756.9844" style="stroke:#181818;stroke-width:1;"/><line style="stroke:#181818;stroke-width:1;" x1="602.5771" x2="1100.3096" y1="756.9844" y2="756.9844"/><text fill="#000000" font-family="sans-serif" font-size="13" lengthAdjust="spacing" textLength="76.0449" x="609.5771" y="751.9185">handle(req)</text></g><g class="message" data-entity-1="part8" data-entity-2="part9" id="msg21"><polygon fill="#181818" points="1270.9814,782.1172,1280.9814,786.1172,1270.9814,790.1172,1274.9814,786.1172" style="stroke:#181818;stroke-width:1;"/><line style="stroke:#181818;stroke-width:1;" x1="1116.3096" x2="1276.9814" y1="786.1172" y2="786.1172"/><text fill="#000000" font-family="sans-serif" font-size="13" lengthAdjust="spacing" textLength="147.6719" x="1123.3096" y="781.0513">execute business logic</text></g><g class="message" data-entity-1="part9" data-entity-2="part9" id="msg22"><line style="stroke:#181818;stroke-width:1;" x1="1292.9814" x2="1334.9814" y1="815.25" y2="815.25"/><line style="stroke:#181818;stroke-width:1;" x1="1334.9814" x2="1334.9814" y1="815.25" y2="828.25"/><line style="stroke:#181818;stroke-width:1;" x1="1293.9814" x2="1334.9814" y1="828.25" y2="828.25"/><polygon fill="#181818" points="1303.9814,824.25,1293.9814,828.25,1303.9814,832.25,1299.9814,828.25" style="stroke:#181818;stroke-width:1;"/><text fill="#000000" font-family="sans-serif" font-size="13" lengthAdjust="spacing" textLength="115.083" x="1299.9814" y="810.1841">validate / process</text></g><g class="message" data-entity-1="part9" data-entity-2="part10" id="msg23"><polygon fill="#181818" points="1420.0645,853.3828,1430.0645,857.3828,1420.0645,861.3828,1424.0645,857.3828" style="stroke:#181818;stroke-width:1;"/><line style="stroke:#181818;stroke-width:1;" x1="1292.9814" x2="1426.0645" y1="857.3828" y2="857.3828"/><text fill="#000000" font-family="sans-serif" font-size="13" lengthAdjust="spacing" textLength="37.5273" x="1299.9814" y="852.3169">query</text></g><g class="message" data-entity-1="part10" data-entity-2="part9" id="msg24"><polygon fill="#181818" points="1303.9814,882.5156,1293.9814,886.5156,1303.9814,890.5156,1299.9814,886.5156" style="stroke:#181818;stroke-width:1;"/><line style="stroke:#181818;stroke-width:1;stroke-dasharray:2,2;" x1="1297.9814" x2="1436.0645" y1="886.5156" y2="886.5156"/><text fill="#000000" font-family="sans-serif" font-size="13" lengthAdjust="spacing" textLength="37.064" x="1309.9814" y="881.4497">result</text></g><g class="message" data-entity-1="part9" data-entity-2="part8" id="msg25"><polygon fill="#181818" points="1127.3096,911.6484,1117.3096,915.6484,1127.3096,919.6484,1123.3096,915.6484" style="stroke:#181818;stroke-width:1;"/><line style="stroke:#181818;stroke-width:1;stroke-dasharray:2,2;" x1="1121.3096" x2="1286.9814" y1="915.6484" y2="915.6484"/><text fill="#000000" font-family="sans-serif" font-size="13" lengthAdjust="spacing" textLength="29.2817" x="1133.3096" y="910.5825">data</text></g><g class="message" data-entity-1="part8" data-entity-2="part4" id="msg26"><polygon fill="#181818" points="613.5771,940.7813,603.5771,944.7813,613.5771,948.7813,609.5771,944.7813" style="stroke:#181818;stroke-width:1;"/><line style="stroke:#181818;stroke-width:1;stroke-dasharray:2,2;" x1="607.5771" x2="1110.3096" y1="944.7813" y2="944.7813"/><text fill="#000000" font-family="sans-serif" font-size="13" lengthAdjust="spacing" textLength="221.0952" x="619.5771" y="939.7153">response (data or JsonResponder)</text></g><g class="message" data-entity-1="part4" data-entity-2="part3" id="msg27"><polygon fill="#181818" points="426.0908,969.9141,416.0908,973.9141,426.0908,977.9141,422.0908,973.9141" style="stroke:#181818;stroke-width:1;"/><line style="stroke:#181818;stroke-width:1;stroke-dasharray:2,2;" x1="420.0908" x2="596.5771" y1="973.9141" y2="973.9141"/><text fill="#000000" font-family="sans-serif" font-size="13" lengthAdjust="spacing" textLength="97.7793" x="432.0908" y="968.8481">response array</text></g><g class="message" data-entity-1="part3" data-entity-2="part2" id="msg28"><polygon fill="#181818" points="172.46,999.0469,162.46,1003.0469,172.46,1007.0469,168.46,1003.0469" style="stroke:#181818;stroke-width:1;"/><line style="stroke:#181818;stroke-width:1;stroke-dasharray:2,2;" x1="166.46" x2="409.0908" y1="1003.0469" y2="1003.0469"/><text fill="#000000" font-family="sans-serif" font-size="13" lengthAdjust="spacing" textLength="97.7793" x="178.46" y="997.981">response array</text></g><g class="message" data-entity-1="part2" data-entity-2="part1" id="msg29"><polygon fill="#181818" points="39.2651,1028.1797,29.2651,1032.1797,39.2651,1036.1797,35.2651,1032.1797" style="stroke:#181818;stroke-width:1;"/><line style="stroke:#181818;stroke-width:1;" x1="33.2651" x2="155.46" y1="1032.1797" y2="1032.1797"/><text fill="#000000" font-family="sans-serif" font-size="13" lengthAdjust="spacing" textLength="99.1948" x="45.2651" y="1027.1138">JSON Response</text></g><!--SRC=[hLHDRzim3BtxLn0v30wmBdSV1ZGnrZL0jY8fiBDYSOasmt8aEMd__KX9_b2QxjG0ZcJnaNfy9kcKgn6MelgBZOGjdZgq3hxL-f9bedBQmAfMsBYi5SQfIhMYSJ1JZSINB-sndO6myCXlAM2hEuVclWq0Mc-PlIrihyo1Hh3ZAJK-r7elQjWeAMky28FMunuslrBSVUUE8oZmuAChs4etpkYwZdHMpjGfO8VchAeGO7UkCYcSs0kBC2lZpflAPPO5gU3kQv2aWE_Fpq-zg2odEWk7KQ_CBmmcUGfey0A3QhdnkyzGwyE1LxcVZ_ui9ps3ws81EtHT2-KZV88n8KkM16Zme2p5dMYNpsyYF1CsIaok7Ka7hWK8ASTmUOdxxZ2-pw-pbCgsmbN7_2gTdaGVzHOkLaeMLe_6KnGkI9oWgMxeWRj9L1FBM-__OEMckJ5w6ZWwR9X3UCko0tsK5jwMNmRq6tsf40lw2CPEPA6BvnusNCZboWUqJYZwemajHjqAVoNpHyOFFS9Q_QRSZkkBkn4zDXAVXUr_xeXO6Y-zX1utLH3o9wCTVHAKmMZdxx8wTSeWltuWhV4URly2Zg8XQk62mS5FXep_6KYJe01ymOfJsNTMDMWjjwkgHXSU5_GC-BEebMJ30bgZA_BepUMo0AfDypewqq0fbpu1xqioTNLIimJmtWDjdanJ05yV2ITDO5lTqFpA6GyquTTMDrj_Aj4aBHzoxkKPXqIC88mHhqaRnHRrtJoEmVSTqfaIvcS1wztF7x2DJbEuH_u3]--></g></svg>