<svg xmlns="http://www.w3.org/2000/svg" xmlns:xlink="http://www.w3.org/1999/xlink" contentStyleType="text/css" data-diagram-type="SEQUENCE" height="1003px" preserveAspectRatio="none" style="width:1241px;height:1003px;background:#FFFFFF;" version="1.1" viewBox="0 0 1241 1003" width="1241px" zoomAndPan="magnify"><title>Backend Request Flow</title><defs/><g><text fill="#000000" font-family="sans-serif" font-size="14" font-weight="bold" lengthAdjust="spacing" textLength="178.6572" x="532.7412" y="27.9951">Backend Request Flow</text><g><title>index.php</title><rect fill="#FFFFFF" height="755.0547" style="stroke:#181818;stroke-width:1;" width="10" x="151.46" y="149.7266"/></g><g><title>RouterApp</title><rect fill="#FFFFFF" height="77.2656" style="stroke:#181818;stroke-width:1;" width="10" x="405.0908" y="178.8594"/></g><g><title>RouterApp</title><rect fill="#FFFFFF" height="554.2578" style="stroke:#181818;stroke-width:1;" width="10" x="405.0908" y="321.3906"/></g><g><title>Router</title><rect fill="#FFFFFF" height="495.9922" style="stroke:#181818;stroke-width:1;" width="10" x="581.3101" y="350.5234"/></g><g><title>Request</title><rect fill="#FFFFFF" height="29.1328" style="stroke:#181818;stroke-width:1;" width="10" x="709.2046" y="379.6563"/></g><g><title>Middlewares</title><rect fill="#FFFFFF" height="14" style="stroke:#181818;stroke-width:1;" width="10" x="840.2412" y="504.1875"/></g><g><title>Middlewares</title><rect fill="#FFFFFF" height="14" style="stroke:#181818;stroke-width:1;" width="10" x="840.2412" y="547.3203"/></g><g><title>Middlewares</title><rect fill="#FFFFFF" height="14" style="stroke:#181818;stroke-width:1;" width="10" x="840.2412" y="621.5859"/></g><g><title>Controller</title><rect fill="#FFFFFF" height="145.6641" style="stroke:#181818;stroke-width:1;" width="10" x="942.7964" y="671.7188"/></g><g><title>Service</title><rect fill="#FFFFFF" height="87.3984" style="stroke:#181818;stroke-width:1;" width="10" x="1119.4683" y="700.8516"/></g><g><title>Database</title><rect fill="#FFFFFF" height="29.1328" style="stroke:#181818;stroke-width:1;" width="10" x="1198.7393" y="729.9844"/></g><rect fill="none" height="103.3984" style="stroke:#000000;stroke-width:1.5;" width="360.4121" x="545.7979" y="465.9219"/><rect fill="none" height="60.2656" style="stroke:#000000;stroke-width:1.5;" width="360.4121" x="545.7979" y="583.3203"/><g><title>Client</title><rect fill="#000000" fill-opacity="0.00000" height="804.1875" width="8" x="24.2651" y="118.5938"/><line style="stroke:#181818;stroke-width:0.5;stroke-dasharray:5,5;" x1="28" x2="28" y1="118.5938" y2="922.7813"/></g><g><title>index.php</title><rect fill="#000000" fill-opacity="0.00000" height="804.1875" width="8" x="152.46" y="118.5938"/><line style="stroke:#181818;stroke-width:0.5;stroke-dasharray:5,5;" x1="155.6377" x2="155.6377" y1="118.5938" y2="922.7813"/></g><g><title>RouterApp</title><rect fill="#000000" fill-opacity="0.00000" height="804.1875" width="8" x="406.0908" y="118.5938"/><line style="stroke:#181818;stroke-width:0.5;stroke-dasharray:5,5;" x1="409.9033" x2="409.9033" y1="118.5938" y2="922.7813"/></g><g><title>Router</title><rect fill="#000000" fill-opacity="0.00000" height="804.1875" width="8" x="582.3101" y="118.5938"/><line style="stroke:#181818;stroke-width:0.5;stroke-dasharray:5,5;" x1="585.7979" x2="585.7979" y1="118.5938" y2="922.7813"/></g><g><title>Request</title><rect fill="#000000" fill-opacity="0.00000" height="804.1875" width="8" x="710.2046" y="118.5938"/><line style="stroke:#181818;stroke-width:0.5;stroke-dasharray:5,5;" x1="713.4561" x2="713.4561" y1="118.5938" y2="922.7813"/></g><g><title>Middlewares</title><rect fill="#000000" fill-opacity="0.00000" height="804.1875" width="8" x="841.2412" y="118.5938"/><line style="stroke:#181818;stroke-width:0.5;stroke-dasharray:5,5;" x1="844.2725" x2="844.2725" y1="118.5938" y2="922.7813"/></g><g><title>Controller</title><rect fill="#000000" fill-opacity="0.00000" height="804.1875" width="8" x="943.7964" y="118.5938"/><line style="stroke:#181818;stroke-width:0.5;stroke-dasharray:5,5;" x1="947.21" x2="947.21" y1="118.5938" y2="922.7813"/></g><g><title>Service</title><rect fill="#000000" fill-opacity="0.00000" height="804.1875" width="8" x="1120.4683" y="118.5938"/><line style="stroke:#181818;stroke-width:0.5;stroke-dasharray:5,5;" x1="1123.5977" x2="1123.5977" y1="118.5938" y2="922.7813"/></g><g><title>Database</title><rect fill="#000000" fill-opacity="0.00000" height="804.1875" width="8" x="1199.7393" y="118.5938"/><line style="stroke:#181818;stroke-width:0.5;stroke-dasharray:5,5;" x1="1203.3389" x2="1203.3389" y1="118.5938" y2="922.7813"/></g><g class="participant participant-head" data-participant="Client"><text fill="#000000" font-family="sans-serif" font-size="14" lengthAdjust="spacing" textLength="40.5303" x="5" y="115.292">Client</text><ellipse cx="28.2651" cy="50.7969" fill="#E2E2F0" rx="8" ry="8" style="stroke:#181818;stroke-width:0.5;"/><path d="M28.2651,58.7969 L28.2651,85.7969 M15.2651,66.7969 L41.2651,66.7969 M28.2651,85.7969 L15.2651,100.7969 M28.2651,85.7969 L41.2651,100.7969" fill="none" style="stroke:#181818;stroke-width:0.5;"/></g><g class="participant participant-tail" data-participant="Client"><text fill="#000000" font-family="sans-serif" font-size="14" lengthAdjust="spacing" textLength="40.5303" x="5" y="934.7764">Client</text><ellipse cx="28.2651" cy="946.5781" fill="#E2E2F0" rx="8" ry="8" style="stroke:#181818;stroke-width:0.5;"/><path d="M28.2651,954.5781 L28.2651,981.5781 M15.2651,962.5781 L41.2651,962.5781 M28.2651,981.5781 L15.2651,996.5781 M28.2651,981.5781 L41.2651,996.5781" fill="none" style="stroke:#181818;stroke-width:0.5;"/></g><g class="participant participant-head" data-participant="Index"><rect fill="#E2E2F0" height="30.2969" rx="2.5" ry="2.5" style="stroke:#181818;stroke-width:0.5;" width="83.6445" x="114.6377" y="87.2969"/><text fill="#000000" font-family="sans-serif" font-size="14" lengthAdjust="spacing" textLength="69.6445" x="121.6377" y="107.292">index.php</text></g><g class="participant participant-tail" data-participant="Index"><rect fill="#E2E2F0" height="30.2969" rx="2.5" ry="2.5" style="stroke:#181818;stroke-width:0.5;" width="83.6445" x="114.6377" y="921.7813"/><text fill="#000000" font-family="sans-serif" font-size="14" lengthAdjust="spacing" textLength="69.6445" x="121.6377" y="941.7764">index.php</text></g><g class="participant participant-head" data-participant="App"><rect fill="#E2E2F0" height="30.2969" rx="2.5" ry="2.5" style="stroke:#181818;stroke-width:0.5;" width="88.375" x="365.9033" y="87.2969"/><text fill="#000000" font-family="sans-serif" font-size="14" lengthAdjust="spacing" textLength="74.375" x="372.9033" y="107.292">RouterApp</text></g><g class="participant participant-tail" data-participant="App"><rect fill="#E2E2F0" height="30.2969" rx="2.5" ry="2.5" style="stroke:#181818;stroke-width:0.5;" width="88.375" x="365.9033" y="921.7813"/><text fill="#000000" font-family="sans-serif" font-size="14" lengthAdjust="spacing" textLength="74.375" x="372.9033" y="941.7764">RouterApp</text></g><g class="participant participant-head" data-participant="Router"><rect fill="#E2E2F0" height="30.2969" rx="2.5" ry="2.5" style="stroke:#181818;stroke-width:0.5;" width="61.0244" x="555.7979" y="87.2969"/><text fill="#000000" font-family="sans-serif" font-size="14" lengthAdjust="spacing" textLength="47.0244" x="562.7979" y="107.292">Router</text></g><g class="participant participant-tail" data-participant="Router"><rect fill="#E2E2F0" height="30.2969" rx="2.5" ry="2.5" style="stroke:#181818;stroke-width:0.5;" width="61.0244" x="555.7979" y="921.7813"/><text fill="#000000" font-family="sans-serif" font-size="14" lengthAdjust="spacing" textLength="47.0244" x="562.7979" y="941.7764">Router</text></g><g class="participant participant-head" data-participant="Req"><rect fill="#E2E2F0" height="30.2969" rx="2.5" ry="2.5" style="stroke:#181818;stroke-width:0.5;" width="71.4971" x="678.4561" y="87.2969"/><text fill="#000000" font-family="sans-serif" font-size="14" lengthAdjust="spacing" textLength="57.4971" x="685.4561" y="107.292">Request</text></g><g class="participant participant-tail" data-participant="Req"><rect fill="#E2E2F0" height="30.2969" rx="2.5" ry="2.5" style="stroke:#181818;stroke-width:0.5;" width="71.4971" x="678.4561" y="921.7813"/><text fill="#000000" font-family="sans-serif" font-size="14" lengthAdjust="spacing" textLength="57.4971" x="685.4561" y="941.7764">Request</text></g><g class="participant participant-head" data-participant="MW"><rect fill="#E2E2F0" height="30.2969" rx="2.5" ry="2.5" style="stroke:#181818;stroke-width:0.5;" width="101.9375" x="794.2725" y="87.2969"/><text fill="#000000" font-family="sans-serif" font-size="14" lengthAdjust="spacing" textLength="87.9375" x="801.2725" y="107.292">Middlewares</text></g><g class="participant participant-tail" data-participant="MW"><rect fill="#E2E2F0" height="30.2969" rx="2.5" ry="2.5" style="stroke:#181818;stroke-width:0.5;" width="101.9375" x="794.2725" y="921.7813"/><text fill="#000000" font-family="sans-serif" font-size="14" lengthAdjust="spacing" textLength="87.9375" x="801.2725" y="941.7764">Middlewares</text></g><g class="participant participant-head" data-participant="Ctrl"><rect fill="#E2E2F0" height="30.2969" rx="2.5" ry="2.5" style="stroke:#181818;stroke-width:0.5;" width="83.1729" x="906.21" y="87.2969"/><text fill="#000000" font-family="sans-serif" font-size="14" lengthAdjust="spacing" textLength="69.1729" x="913.21" y="107.292">Controller</text></g><g class="participant participant-tail" data-participant="Ctrl"><rect fill="#E2E2F0" height="30.2969" rx="2.5" ry="2.5" style="stroke:#181818;stroke-width:0.5;" width="83.1729" x="906.21" y="921.7813"/><text fill="#000000" font-family="sans-serif" font-size="14" lengthAdjust="spacing" textLength="69.1729" x="913.21" y="941.7764">Controller</text></g><g class="participant participant-head" data-participant="Svc"><rect fill="#E2E2F0" height="30.2969" rx="2.5" ry="2.5" style="stroke:#181818;stroke-width:0.5;" width="65.7412" x="1091.5977" y="87.2969"/><text fill="#000000" font-family="sans-serif" font-size="14" lengthAdjust="spacing" textLength="51.7412" x="1098.5977" y="107.292">Service</text></g><g class="participant participant-tail" data-participant="Svc"><rect fill="#E2E2F0" height="30.2969" rx="2.5" ry="2.5" style="stroke:#181818;stroke-width:0.5;" width="65.7412" x="1091.5977" y="921.7813"/><text fill="#000000" font-family="sans-serif" font-size="14" lengthAdjust="spacing" textLength="51.7412" x="1098.5977" y="941.7764">Service</text></g><g class="participant participant-head" data-participant="DB"><text fill="#000000" font-family="sans-serif" font-size="14" lengthAdjust="spacing" textLength="66.8008" x="1167.3389" y="115.292">Database</text><path d="M1185.7393,66.2969 C1185.7393,56.2969 1203.7393,56.2969 1203.7393,56.2969 C1203.7393,56.2969 1221.7393,56.2969 1221.7393,66.2969 L1221.7393,92.2969 C1221.7393,102.2969 1203.7393,102.2969 1203.7393,102.2969 C1203.7393,102.2969 1185.7393,102.2969 1185.7393,92.2969 L1185.7393,66.2969" fill="#E2E2F0" style="stroke:#181818;stroke-width:0.5;"/><path d="M1185.7393,66.2969 C1185.7393,76.2969 1203.7393,76.2969 1203.7393,76.2969 C1203.7393,76.2969 1221.7393,76.2969 1221.7393,66.2969" fill="none" style="stroke:#181818;stroke-width:0.5;"/></g><g class="participant participant-tail" data-participant="DB"><text fill="#000000" font-family="sans-serif" font-size="14" lengthAdjust="spacing" textLength="66.8008" x="1167.3389" y="934.7764">Database</text><path d="M1185.7393,948.0781 C1185.7393,938.0781 1203.7393,938.0781 1203.7393,938.0781 C1203.7393,938.0781 1221.7393,938.0781 1221.7393,948.0781 L1221.7393,974.0781 C1221.7393,984.0781 1203.7393,984.0781 1203.7393,984.0781 C1203.7393,984.0781 1185.7393,984.0781 1185.7393,974.0781 L1185.7393,948.0781" fill="#E2E2F0" style="stroke:#181818;stroke-width:0.5;"/><path d="M1185.7393,948.0781 C1185.7393,958.0781 1203.7393,958.0781 1203.7393,958.0781 C1203.7393,958.0781 1221.7393,958.0781 1221.7393,948.0781" fill="none" style="stroke:#181818;stroke-width:0.5;"/></g><g><title>index.php</title><rect fill="#FFFFFF" height="755.0547" style="stroke:#181818;stroke-width:1;" width="10" x="151.46" y="149.7266"/></g><g><title>RouterApp</title><rect fill="#FFFFFF" height="77.2656" style="stroke:#181818;stroke-width:1;" width="10" x="405.0908" y="178.8594"/></g><g><title>RouterApp</title><rect fill="#FFFFFF" height="554.2578" style="stroke:#181818;stroke-width:1;" width="10" x="405.0908" y="321.3906"/></g><g><title>Router</title><rect fill="#FFFFFF" height="495.9922" style="stroke:#181818;stroke-width:1;" width="10" x="581.3101" y="350.5234"/></g><g><title>Request</title><rect fill="#FFFFFF" height="29.1328" style="stroke:#181818;stroke-width:1;" width="10" x="709.2046" y="379.6563"/></g><g><title>Middlewares</title><rect fill="#FFFFFF" height="14" style="stroke:#181818;stroke-width:1;" width="10" x="840.2412" y="504.1875"/></g><g><title>Middlewares</title><rect fill="#FFFFFF" height="14" style="stroke:#181818;stroke-width:1;" width="10" x="840.2412" y="547.3203"/></g><g><title>Middlewares</title><rect fill="#FFFFFF" height="14" style="stroke:#181818;stroke-width:1;" width="10" x="840.2412" y="621.5859"/></g><g><title>Controller</title><rect fill="#FFFFFF" height="145.6641" style="stroke:#181818;stroke-width:1;" width="10" x="942.7964" y="671.7188"/></g><g><title>Service</title><rect fill="#FFFFFF" height="87.3984" style="stroke:#181818;stroke-width:1;" width="10" x="1119.4683" y="700.8516"/></g><g><title>Database</title><rect fill="#FFFFFF" height="29.1328" style="stroke:#181818;stroke-width:1;" width="10" x="1198.7393" y="729.9844"/></g><g class="message" data-participant-1="Client" data-participant-2="Index"><polygon fill="#181818" points="139.46,145.7266,149.46,149.7266,139.46,153.7266,143.46,149.7266" style="stroke:#181818;stroke-width:1;"/><line style="stroke:#181818;stroke-width:1;" x1="28.2651" x2="145.46" y1="149.7266" y2="149.7266"/><text fill="#000000" font-family="sans-serif" font-size="13" lengthAdjust="spacing" textLength="91.019" x="35.2651" y="144.6606">HTTP Request</text></g><g class="message" data-participant-1="Index" data-participant-2="App"><polygon fill="#181818" points="393.0908,174.8594,403.0908,178.8594,393.0908,182.8594,397.0908,178.8594" style="stroke:#181818;stroke-width:1;"/><line style="stroke:#181818;stroke-width:1;" x1="161.46" x2="399.0908" y1="178.8594" y2="178.8594"/><text fill="#000000" font-family="sans-serif" font-size="13" lengthAdjust="spacing" textLength="224.6309" x="168.46" y="173.7935">new RouterApp(router, logger, db)</text></g><g class="message" data-participant-1="App" data-participant-2="App"><line style="stroke:#181818;stroke-width:1;" x1="415.0908" x2="457.0908" y1="207.9922" y2="207.9922"/><line style="stroke:#181818;stroke-width:1;" x1="457.0908" x2="457.0908" y1="207.9922" y2="220.9922"/><line style="stroke:#181818;stroke-width:1;" x1="416.0908" x2="457.0908" y1="220.9922" y2="220.9922"/><polygon fill="#181818" points="426.0908,216.9922,416.0908,220.9922,426.0908,224.9922,422.0908,220.9922" style="stroke:#181818;stroke-width:1;"/><text fill="#000000" font-family="sans-serif" font-size="13" lengthAdjust="spacing" textLength="142.2192" x="422.0908" y="202.9263">registerMiddlewares()</text></g><g class="message" data-participant-1="App" data-participant-2="App"><line style="stroke:#181818;stroke-width:1;" x1="415.0908" x2="457.0908" y1="255.125" y2="255.125"/><line style="stroke:#181818;stroke-width:1;" x1="457.0908" x2="457.0908" y1="255.125" y2="268.125"/><line style="stroke:#181818;stroke-width:1;" x1="410.0908" x2="457.0908" y1="268.125" y2="268.125"/><polygon fill="#181818" points="420.0908,264.125,410.0908,268.125,420.0908,272.125,416.0908,268.125" style="stroke:#181818;stroke-width:1;"/><text fill="#000000" font-family="sans-serif" font-size="13" lengthAdjust="spacing" textLength="105.6567" x="422.0908" y="250.0591">registerRoutes()</text></g><g class="message" data-participant-1="Index" data-participant-2="Router"><polygon fill="#181818" points="574.3101,288.2578,584.3101,292.2578,574.3101,296.2578,578.3101,292.2578" style="stroke:#181818;stroke-width:1;"/><line style="stroke:#181818;stroke-width:1;" x1="161.46" x2="580.3101" y1="292.2578" y2="292.2578"/><text fill="#000000" font-family="sans-serif" font-size="13" lengthAdjust="spacing" textLength="227.1318" x="168.46" y="287.1919">addMiddleware(DebugMiddleware)</text></g><g class="message" data-participant-1="Index" data-participant-2="App"><polygon fill="#181818" points="393.0908,317.3906,403.0908,321.3906,393.0908,325.3906,397.0908,321.3906" style="stroke:#181818;stroke-width:1;"/><line style="stroke:#181818;stroke-width:1;" x1="161.46" x2="399.0908" y1="321.3906" y2="321.3906"/><text fill="#000000" font-family="sans-serif" font-size="13" lengthAdjust="spacing" textLength="65.4824" x="168.46" y="316.3247">dispatch()</text></g><g class="message" data-participant-1="App" data-participant-2="Router"><polygon fill="#181818" points="569.3101,346.5234,579.3101,350.5234,569.3101,354.5234,573.3101,350.5234" style="stroke:#181818;stroke-width:1;"/><line style="stroke:#181818;stroke-width:1;" x1="415.0908" x2="575.3101" y1="350.5234" y2="350.5234"/><text fill="#000000" font-family="sans-serif" font-size="13" lengthAdjust="spacing" textLength="65.4824" x="422.0908" y="345.4575">dispatch()</text></g><g class="message" data-participant-1="Router" data-participant-2="Req"><polygon fill="#181818" points="697.2046,375.6563,707.2046,379.6563,697.2046,383.6563,701.2046,379.6563" style="stroke:#181818;stroke-width:1;"/><line style="stroke:#181818;stroke-width:1;" x1="591.3101" x2="703.2046" y1="379.6563" y2="379.6563"/><text fill="#000000" font-family="sans-serif" font-size="13" lengthAdjust="spacing" textLength="94.5356" x="598.3101" y="374.5903">new Request()</text></g><g class="message" data-participant-1="Req" data-participant-2="Router"><polygon fill="#181818" points="602.3101,404.7891,592.3101,408.7891,602.3101,412.7891,598.3101,408.7891" style="stroke:#181818;stroke-width:1;"/><line style="stroke:#181818;stroke-width:1;stroke-dasharray:2,2;" x1="596.3101" x2="713.2046" y1="408.7891" y2="408.7891"/><text fill="#000000" font-family="sans-serif" font-size="13" lengthAdjust="spacing" textLength="93.8945" x="608.3101" y="403.7231">request object</text></g><g class="message" data-participant-1="Router" data-participant-2="Router"><line style="stroke:#181818;stroke-width:1;" x1="591.3101" x2="633.3101" y1="437.9219" y2="437.9219"/><line style="stroke:#181818;stroke-width:1;" x1="633.3101" x2="633.3101" y1="437.9219" y2="450.9219"/><line style="stroke:#181818;stroke-width:1;" x1="592.3101" x2="633.3101" y1="450.9219" y2="450.9219"/><polygon fill="#181818" points="602.3101,446.9219,592.3101,450.9219,602.3101,454.9219,598.3101,450.9219" style="stroke:#181818;stroke-width:1;"/><text fill="#000000" font-family="sans-serif" font-size="13" lengthAdjust="spacing" textLength="82.1196" x="598.3101" y="432.856">Match Route</text></g><path d="M545.7979,465.9219 L734.9404,465.9219 L734.9404,473.0547 L724.9404,483.0547 L545.7979,483.0547 L545.7979,465.9219" fill="#EEEEEE" style="stroke:#000000;stroke-width:1.5;"/><rect fill="none" height="103.3984" style="stroke:#000000;stroke-width:1.5;" width="360.4121" x="545.7979" y="465.9219"/><text fill="#000000" font-family="sans-serif" font-size="13" font-weight="bold" lengthAdjust="spacing" textLength="144.1426" x="560.7979" y="478.9888">Global Middlewares</text><g class="message" data-participant-1="Router" data-participant-2="MW"><polygon fill="#181818" points="828.2412,500.1875,838.2412,504.1875,828.2412,508.1875,832.2412,504.1875" style="stroke:#181818;stroke-width:1;"/><line style="stroke:#181818;stroke-width:1;" x1="591.3101" x2="834.2412" y1="504.1875" y2="504.1875"/><text fill="#000000" font-family="sans-serif" font-size="13" lengthAdjust="spacing" textLength="149.373" x="598.3101" y="499.1216">DebugMiddleware(req)</text></g><g class="message" data-participant-1="MW" data-participant-2="Router"><polygon fill="#181818" points="602.3101,514.1875,592.3101,518.1875,602.3101,522.1875,598.3101,518.1875" style="stroke:#181818;stroke-width:1;"/><line style="stroke:#181818;stroke-width:1;stroke-dasharray:2,2;" x1="596.3101" x2="844.2412" y1="518.1875" y2="518.1875"/></g><g class="message" data-participant-1="Router" data-participant-2="MW"><polygon fill="#181818" points="828.2412,543.3203,838.2412,547.3203,828.2412,551.3203,832.2412,547.3203" style="stroke:#181818;stroke-width:1;"/><line style="stroke:#181818;stroke-width:1;" x1="591.3101" x2="834.2412" y1="547.3203" y2="547.3203"/><text fill="#000000" font-family="sans-serif" font-size="13" lengthAdjust="spacing" textLength="218.5117" x="598.3101" y="542.2544">AuthMiddleware-&gt;refreshJwt(req)</text></g><g class="message" data-participant-1="MW" data-participant-2="Router"><polygon fill="#181818" points="602.3101,557.3203,592.3101,561.3203,602.3101,565.3203,598.3101,561.3203" style="stroke:#181818;stroke-width:1;"/><line style="stroke:#181818;stroke-width:1;stroke-dasharray:2,2;" x1="596.3101" x2="844.2412" y1="561.3203" y2="561.3203"/></g><path d="M545.7979,583.3203 L837.9756,583.3203 L837.9756,590.4531 L827.9756,600.4531 L545.7979,600.4531 L545.7979,583.3203" fill="#EEEEEE" style="stroke:#000000;stroke-width:1.5;"/><rect fill="none" height="60.2656" style="stroke:#000000;stroke-width:1.5;" width="360.4121" x="545.7979" y="583.3203"/><text fill="#000000" font-family="sans-serif" font-size="13" font-weight="bold" lengthAdjust="spacing" textLength="247.1777" x="560.7979" y="596.3872">Route Middlewares (if applicable)</text><g class="message" data-participant-1="Router" data-participant-2="MW"><polygon fill="#181818" points="828.2412,617.5859,838.2412,621.5859,828.2412,625.5859,832.2412,621.5859" style="stroke:#181818;stroke-width:1;"/><line style="stroke:#181818;stroke-width:1;" x1="591.3101" x2="834.2412" y1="621.5859" y2="621.5859"/><text fill="#000000" font-family="sans-serif" font-size="13" lengthAdjust="spacing" textLength="229.9312" x="598.3101" y="616.52">AuthMiddleware-&gt;requireAuth(req)</text></g><g class="message" data-participant-1="MW" data-participant-2="Router"><polygon fill="#181818" points="602.3101,631.5859,592.3101,635.5859,602.3101,639.5859,598.3101,635.5859" style="stroke:#181818;stroke-width:1;"/><line style="stroke:#181818;stroke-width:1;stroke-dasharray:2,2;" x1="596.3101" x2="844.2412" y1="635.5859" y2="635.5859"/></g><g class="message" data-participant-1="Router" data-participant-2="Ctrl"><polygon fill="#181818" points="930.7964,667.7188,940.7964,671.7188,930.7964,675.7188,934.7964,671.7188" style="stroke:#181818;stroke-width:1;"/><line style="stroke:#181818;stroke-width:1;" x1="591.3101" x2="936.7964" y1="671.7188" y2="671.7188"/><text fill="#000000" font-family="sans-serif" font-size="13" lengthAdjust="spacing" textLength="76.0449" x="598.3101" y="666.6528">handle(req)</text></g><g class="message" data-participant-1="Ctrl" data-participant-2="Svc"><polygon fill="#181818" points="1107.4683,696.8516,1117.4683,700.8516,1107.4683,704.8516,1111.4683,700.8516" style="stroke:#181818;stroke-width:1;"/><line style="stroke:#181818;stroke-width:1;" x1="952.7964" x2="1113.4683" y1="700.8516" y2="700.8516"/><text fill="#000000" font-family="sans-serif" font-size="13" lengthAdjust="spacing" textLength="147.6719" x="959.7964" y="695.7856">execute business logic</text></g><g class="message" data-participant-1="Svc" data-participant-2="DB"><polygon fill="#181818" points="1186.7393,725.9844,1196.7393,729.9844,1186.7393,733.9844,1190.7393,729.9844" style="stroke:#181818;stroke-width:1;"/><line style="stroke:#181818;stroke-width:1;" x1="1129.4683" x2="1192.7393" y1="729.9844" y2="729.9844"/><text fill="#000000" font-family="sans-serif" font-size="13" lengthAdjust="spacing" textLength="37.5273" x="1136.4683" y="724.9185">query</text></g><g class="message" data-participant-1="DB" data-participant-2="Svc"><polygon fill="#181818" points="1140.4683,755.1172,1130.4683,759.1172,1140.4683,763.1172,1136.4683,759.1172" style="stroke:#181818;stroke-width:1;"/><line style="stroke:#181818;stroke-width:1;stroke-dasharray:2,2;" x1="1134.4683" x2="1202.7393" y1="759.1172" y2="759.1172"/><text fill="#000000" font-family="sans-serif" font-size="13" lengthAdjust="spacing" textLength="37.064" x="1146.4683" y="754.0513">result</text></g><g class="message" data-participant-1="Svc" data-participant-2="Ctrl"><polygon fill="#181818" points="963.7964,784.25,953.7964,788.25,963.7964,792.25,959.7964,788.25" style="stroke:#181818;stroke-width:1;"/><line style="stroke:#181818;stroke-width:1;stroke-dasharray:2,2;" x1="957.7964" x2="1123.4683" y1="788.25" y2="788.25"/><text fill="#000000" font-family="sans-serif" font-size="13" lengthAdjust="spacing" textLength="29.2817" x="969.7964" y="783.1841">data</text></g><g class="message" data-participant-1="Ctrl" data-participant-2="Router"><polygon fill="#181818" points="602.3101,813.3828,592.3101,817.3828,602.3101,821.3828,598.3101,817.3828" style="stroke:#181818;stroke-width:1;"/><line style="stroke:#181818;stroke-width:1;stroke-dasharray:2,2;" x1="596.3101" x2="946.7964" y1="817.3828" y2="817.3828"/><text fill="#000000" font-family="sans-serif" font-size="13" lengthAdjust="spacing" textLength="221.0952" x="608.3101" y="812.3169">response (data or JsonResponder)</text></g><g class="message" data-participant-1="Router" data-participant-2="App"><polygon fill="#181818" points="426.0908,842.5156,416.0908,846.5156,426.0908,850.5156,422.0908,846.5156" style="stroke:#181818;stroke-width:1;"/><line style="stroke:#181818;stroke-width:1;stroke-dasharray:2,2;" x1="420.0908" x2="585.3101" y1="846.5156" y2="846.5156"/><text fill="#000000" font-family="sans-serif" font-size="13" lengthAdjust="spacing" textLength="97.7793" x="432.0908" y="841.4497">response array</text></g><g class="message" data-participant-1="App" data-participant-2="Index"><polygon fill="#181818" points="172.46,871.6484,162.46,875.6484,172.46,879.6484,168.46,875.6484" style="stroke:#181818;stroke-width:1;"/><line style="stroke:#181818;stroke-width:1;stroke-dasharray:2,2;" x1="166.46" x2="409.0908" y1="875.6484" y2="875.6484"/><text fill="#000000" font-family="sans-serif" font-size="13" lengthAdjust="spacing" textLength="97.7793" x="178.46" y="870.5825">response array</text></g><g class="message" data-participant-1="Index" data-participant-2="Client"><polygon fill="#181818" points="39.2651,900.7813,29.2651,904.7813,39.2651,908.7813,35.2651,904.7813" style="stroke:#181818;stroke-width:1;"/><line style="stroke:#181818;stroke-width:1;" x1="33.2651" x2="155.46" y1="904.7813" y2="904.7813"/><text fill="#000000" font-family="sans-serif" font-size="13" lengthAdjust="spacing" textLength="99.1948" x="45.2651" y="899.7153">JSON Response</text></g><!--SRC=[fLJRZjem47ttLunu2bBf1-HXfGNK2rBQ2bRYsObdYLih2RO3kt_VyIKuHbIgMYJZovmPdvdCiPLM8Qnvymix0NiyZsWiV5BzbJ7Us5x3HadiB1kujhAH0-yiB6GdyEtZq0uBu0Q-kbqEsFUZHVqy103DZypU5fPtva0ZsF6S6oifXC8hrsWye3hczatVMTqh5UDlh5Ovu83w8XlqriEbOO9RNdE3iDZ6bJTjruo5t67r578iuSlBou-fIgu-yi8jnW8mFpamvLj2XrUubQ7GVlK1L7ywkLdKo-JlwaFZvghn90t1PwaMouS8Vu4p2ioY9Iw1GWbSY1Iks68zdj9-UKzUI3DmsxJ57Sk9n1Jr4Iv-KHPcZyPph4UeN8Qcxqi3LhEeEhPXN__4nivpS-XvuEXGEGvXnzY9QZt0PzNNNC6iX0pebtohOmbtPIZeugM7tIwaxdBxwZWZw4zcf0Zp8FRpQDiKUlMayPL8jBkh_VThIADJVXupJmyA-Gfy69HiUArm-LUKpgFKw8x_arEwn-cjX9PtT4i8UWDxAJBtxu0alHBm3HkNHpqQsQ4nJX-oIIvEdpGSVhikWTf2loShINIxzknyC2h2gB9s8O3tll5oMfy3NFp8AEi_C_GTlGY5mmCzWZlJTtj_Ab1dQWj9JVadVSO8N6l-ddLmL8SNKdfO_koGopcyI2Ni3j-_mJuwpU4U-Hi0]--></g></svg>