<svg xmlns="http://www.w3.org/2000/svg" xmlns:xlink="http://www.w3.org/1999/xlink" contentStyleType="text/css" data-diagram-type="SEQUENCE" height="1141px" preserveAspectRatio="none" style="width:987px;height:1141px;background:#FFFFFF;" version="1.1" viewBox="0 0 987 1141" width="987px" zoomAndPan="magnify"><title>Task Operations Flow (Add/Update/Delete)</title><defs/><g><text fill="#000000" font-family="sans-serif" font-size="14" font-weight="bold" lengthAdjust="spacing" textLength="337.9004" x="320.8179" y="27.9951">Task Operations Flow (Add/Update/Delete)</text><g><title>Router</title><rect fill="#FFFFFF" height="303.3281" style="stroke:#181818;stroke-width:1;" width="10" x="192.0361" y="215.125"/></g><g><title>Router</title><rect fill="#FFFFFF" height="174.7969" style="stroke:#181818;stroke-width:1;" width="10" x="192.0361" y="605.8516"/></g><g><title>Router</title><rect fill="#FFFFFF" height="174.7969" style="stroke:#181818;stroke-width:1;" width="10" x="192.0361" y="868.0469"/></g><g><title>TaskController</title><rect fill="#FFFFFF" height="187.7969" style="stroke:#181818;stroke-width:1;" width="10" x="421.9692" y="301.5234"/></g><g><title>TaskController</title><rect fill="#FFFFFF" height="416.8594" style="stroke:#181818;stroke-width:1;" width="10" x="421.9692" y="634.9844"/></g><g><title>TaskController</title><rect fill="#FFFFFF" height="154.6641" style="stroke:#181818;stroke-width:1;" width="10" x="426.9692" y="897.1797"/></g><g><title>SpecificTaskService</title><rect fill="#FFFFFF" height="129.5313" style="stroke:#181818;stroke-width:1;" width="10" x="699.9731" y="330.6563"/></g><g><title>SpecificTaskService</title><rect fill="#FFFFFF" height="87.3984" style="stroke:#181818;stroke-width:1;" width="10" x="699.9731" y="664.1172"/></g><g><title>SpecificTaskService</title><rect fill="#FFFFFF" height="87.3984" style="stroke:#181818;stroke-width:1;" width="10" x="699.9731" y="926.3125"/></g><g><title>TaskQueries</title><rect fill="#FFFFFF" height="29.1328" style="stroke:#181818;stroke-width:1;" width="10" x="920.2407" y="401.9219"/></g><g><title>TaskQueries</title><rect fill="#FFFFFF" height="29.1328" style="stroke:#181818;stroke-width:1;" width="10" x="920.2407" y="693.25"/></g><g><title>TaskQueries</title><rect fill="#FFFFFF" height="29.1328" style="stroke:#181818;stroke-width:1;" width="10" x="920.2407" y="955.4453"/></g><g class="participant-lifeline" data-entity-uid="part1" data-qualified-name="Client" id="part1-lifeline"><g><title>Client</title><rect fill="#000000" fill-opacity="0.00000" height="942.25" width="8" x="24.2651" y="118.5938"/><line style="stroke:#181818;stroke-width:0.5;stroke-dasharray:5,5;" x1="28" x2="28" y1="118.5938" y2="1060.8438"/></g></g><g class="participant-lifeline" data-entity-uid="part2" data-qualified-name="Router" id="part2-lifeline"><g><title>Router</title><rect fill="#000000" fill-opacity="0.00000" height="942.25" width="8" x="193.0361" y="118.5938"/><line style="stroke:#181818;stroke-width:0.5;stroke-dasharray:5,5;" x1="196.5239" x2="196.5239" y1="118.5938" y2="1060.8438"/></g></g><g class="participant-lifeline" data-entity-uid="part3" data-qualified-name="Ctrl" id="part3-lifeline"><g><title>TaskController</title><rect fill="#000000" fill-opacity="0.00000" height="942.25" width="8" x="422.9692" y="118.5938"/><line style="stroke:#181818;stroke-width:0.5;stroke-dasharray:5,5;" x1="426.1167" x2="426.1167" y1="118.5938" y2="1060.8438"/></g></g><g class="participant-lifeline" data-entity-uid="part4" data-qualified-name="Service" id="part4-lifeline"><g><title>SpecificTaskService</title><rect fill="#000000" fill-opacity="0.00000" height="942.25" width="8" x="700.9731" y="118.5938"/><line style="stroke:#181818;stroke-width:0.5;stroke-dasharray:5,5;" x1="704.5918" x2="704.5918" y1="118.5938" y2="1060.8438"/></g></g><g class="participant-lifeline" data-entity-uid="part5" data-qualified-name="DB" id="part5-lifeline"><g><title>TaskQueries</title><rect fill="#000000" fill-opacity="0.00000" height="942.25" width="8" x="921.2407" y="118.5938"/><line style="stroke:#181818;stroke-width:0.5;stroke-dasharray:5,5;" x1="924.9453" x2="924.9453" y1="118.5938" y2="1060.8438"/></g></g><g class="participant participant-head" data-entity-uid="part1" data-qualified-name="Client" id="part1-head"><text fill="#000000" font-family="sans-serif" font-size="14" lengthAdjust="spacing" textLength="40.5303" x="5" y="115.292">Client</text><ellipse cx="28.2651" cy="50.7969" fill="#E2E2F0" rx="8" ry="8" style="stroke:#181818;stroke-width:0.5;"/><path d="M28.2651,58.7969 L28.2651,85.7969 M15.2651,66.7969 L41.2651,66.7969 M28.2651,85.7969 L15.2651,100.7969 M28.2651,85.7969 L41.2651,100.7969" fill="none" style="stroke:#181818;stroke-width:0.5;"/></g><g class="participant participant-tail" data-entity-uid="part1" data-qualified-name="Client" id="part1-tail"><text fill="#000000" font-family="sans-serif" font-size="14" lengthAdjust="spacing" textLength="40.5303" x="5" y="1072.8389">Client</text><ellipse cx="28.2651" cy="1084.6406" fill="#E2E2F0" rx="8" ry="8" style="stroke:#181818;stroke-width:0.5;"/><path d="M28.2651,1092.6406 L28.2651,1119.6406 M15.2651,1100.6406 L41.2651,1100.6406 M28.2651,1119.6406 L15.2651,1134.6406 M28.2651,1119.6406 L41.2651,1134.6406" fill="none" style="stroke:#181818;stroke-width:0.5;"/></g><g class="participant participant-head" data-entity-uid="part2" data-qualified-name="Router" id="part2-head"><rect fill="#E2E2F0" height="30.2969" rx="2.5" ry="2.5" style="stroke:#181818;stroke-width:0.5;" width="61.0244" x="166.5239" y="87.2969"/><text fill="#000000" font-family="sans-serif" font-size="14" lengthAdjust="spacing" textLength="47.0244" x="173.5239" y="107.292">Router</text></g><g class="participant participant-tail" data-entity-uid="part2" data-qualified-name="Router" id="part2-tail"><rect fill="#E2E2F0" height="30.2969" rx="2.5" ry="2.5" style="stroke:#181818;stroke-width:0.5;" width="61.0244" x="166.5239" y="1059.8438"/><text fill="#000000" font-family="sans-serif" font-size="14" lengthAdjust="spacing" textLength="47.0244" x="173.5239" y="1079.8389">Router</text></g><g class="participant participant-head" data-entity-uid="part3" data-qualified-name="Ctrl" id="part3-head"><rect fill="#E2E2F0" height="30.2969" rx="2.5" ry="2.5" style="stroke:#181818;stroke-width:0.5;" width="115.7051" x="369.1167" y="87.2969"/><text fill="#000000" font-family="sans-serif" font-size="14" lengthAdjust="spacing" textLength="101.7051" x="376.1167" y="107.292">TaskController</text></g><g class="participant participant-tail" data-entity-uid="part3" data-qualified-name="Ctrl" id="part3-tail"><rect fill="#E2E2F0" height="30.2969" rx="2.5" ry="2.5" style="stroke:#181818;stroke-width:0.5;" width="115.7051" x="369.1167" y="1059.8438"/><text fill="#000000" font-family="sans-serif" font-size="14" lengthAdjust="spacing" textLength="101.7051" x="376.1167" y="1079.8389">TaskController</text></g><g class="participant participant-head" data-entity-uid="part4" data-qualified-name="Service" id="part4-head"><rect fill="#E2E2F0" height="30.2969" rx="2.5" ry="2.5" style="stroke:#181818;stroke-width:0.5;" width="152.7627" x="628.5918" y="87.2969"/><text fill="#000000" font-family="sans-serif" font-size="14" lengthAdjust="spacing" textLength="138.7627" x="635.5918" y="107.292">SpecificTaskService</text></g><g class="participant participant-tail" data-entity-uid="part4" data-qualified-name="Service" id="part4-tail"><rect fill="#E2E2F0" height="30.2969" rx="2.5" ry="2.5" style="stroke:#181818;stroke-width:0.5;" width="152.7627" x="628.5918" y="1059.8438"/><text fill="#000000" font-family="sans-serif" font-size="14" lengthAdjust="spacing" textLength="138.7627" x="635.5918" y="1079.8389">SpecificTaskService</text></g><g class="participant participant-head" data-entity-uid="part5" data-qualified-name="DB" id="part5-head"><rect fill="#E2E2F0" height="30.2969" rx="2.5" ry="2.5" style="stroke:#181818;stroke-width:0.5;" width="100.5908" x="874.9453" y="87.2969"/><text fill="#000000" font-family="sans-serif" font-size="14" lengthAdjust="spacing" textLength="86.5908" x="881.9453" y="107.292">TaskQueries</text></g><g class="participant participant-tail" data-entity-uid="part5" data-qualified-name="DB" id="part5-tail"><rect fill="#E2E2F0" height="30.2969" rx="2.5" ry="2.5" style="stroke:#181818;stroke-width:0.5;" width="100.5908" x="874.9453" y="1059.8438"/><text fill="#000000" font-family="sans-serif" font-size="14" lengthAdjust="spacing" textLength="86.5908" x="881.9453" y="1079.8389">TaskQueries</text></g><g><title>Router</title><rect fill="#FFFFFF" height="303.3281" style="stroke:#181818;stroke-width:1;" width="10" x="192.0361" y="215.125"/></g><g><title>Router</title><rect fill="#FFFFFF" height="174.7969" style="stroke:#181818;stroke-width:1;" width="10" x="192.0361" y="605.8516"/></g><g><title>Router</title><rect fill="#FFFFFF" height="174.7969" style="stroke:#181818;stroke-width:1;" width="10" x="192.0361" y="868.0469"/></g><g><title>TaskController</title><rect fill="#FFFFFF" height="187.7969" style="stroke:#181818;stroke-width:1;" width="10" x="421.9692" y="301.5234"/></g><g><title>TaskController</title><rect fill="#FFFFFF" height="416.8594" style="stroke:#181818;stroke-width:1;" width="10" x="421.9692" y="634.9844"/></g><g><title>TaskController</title><rect fill="#FFFFFF" height="154.6641" style="stroke:#181818;stroke-width:1;" width="10" x="426.9692" y="897.1797"/></g><g><title>SpecificTaskService</title><rect fill="#FFFFFF" height="129.5313" style="stroke:#181818;stroke-width:1;" width="10" x="699.9731" y="330.6563"/></g><g><title>SpecificTaskService</title><rect fill="#FFFFFF" height="87.3984" style="stroke:#181818;stroke-width:1;" width="10" x="699.9731" y="664.1172"/></g><g><title>SpecificTaskService</title><rect fill="#FFFFFF" height="87.3984" style="stroke:#181818;stroke-width:1;" width="10" x="699.9731" y="926.3125"/></g><g><title>TaskQueries</title><rect fill="#FFFFFF" height="29.1328" style="stroke:#181818;stroke-width:1;" width="10" x="920.2407" y="401.9219"/></g><g><title>TaskQueries</title><rect fill="#FFFFFF" height="29.1328" style="stroke:#181818;stroke-width:1;" width="10" x="920.2407" y="693.25"/></g><g><title>TaskQueries</title><rect fill="#FFFFFF" height="29.1328" style="stroke:#181818;stroke-width:1;" width="10" x="920.2407" y="955.4453"/></g><path d="M33,133.5938 L33,173.5938 L203,173.5938 L203,143.5938 L193,133.5938 L33,133.5938" fill="#FEFFDD" style="stroke:#181818;stroke-width:0.5;"/><path d="M193,133.5938 L193,143.5938 L203,143.5938 L193,133.5938" fill="#FEFFDD" style="stroke:#181818;stroke-width:0.5;"/><text fill="#000000" font-family="sans-serif" font-size="13" lengthAdjust="spacing" textLength="149.3984" x="39" y="150.6606">Authenticated Request</text><text fill="#000000" font-family="sans-serif" font-size="13" lengthAdjust="spacing" textLength="149.8999" x="39" y="165.7935">(Cookie: access_token)</text><g class="message" data-entity-1="part1" data-entity-2="part2" id="msg1"><polygon fill="#181818" points="180.0361,211.125,190.0361,215.125,180.0361,219.125,184.0361,215.125" style="stroke:#181818;stroke-width:1;"/><line style="stroke:#181818;stroke-width:1;" x1="28.2651" x2="186.0361" y1="215.125" y2="215.125"/><text fill="#000000" font-family="sans-serif" font-size="13" lengthAdjust="spacing" textLength="105.7646" x="35.2651" y="194.9263">POST /tasks/add</text><text fill="#000000" font-family="sans-serif" font-size="13" lengthAdjust="spacing" textLength="116.105" x="35.2651" y="210.0591">(title, description)</text></g><g class="message" data-entity-1="part2" data-entity-2="part2" id="msg2"><line style="stroke:#181818;stroke-width:1;" x1="202.0361" x2="244.0361" y1="259.3906" y2="259.3906"/><line style="stroke:#181818;stroke-width:1;" x1="244.0361" x2="244.0361" y1="259.3906" y2="272.3906"/><line style="stroke:#181818;stroke-width:1;" x1="203.0361" x2="244.0361" y1="272.3906" y2="272.3906"/><polygon fill="#181818" points="213.0361,268.3906,203.0361,272.3906,213.0361,276.3906,209.0361,272.3906" style="stroke:#181818;stroke-width:1;"/><text fill="#000000" font-family="sans-serif" font-size="13" lengthAdjust="spacing" textLength="105.3521" x="209.0361" y="239.1919">AuthMiddleware</text><text fill="#000000" font-family="sans-serif" font-size="13" lengthAdjust="spacing" textLength="195.9331" x="209.0361" y="254.3247">(Verify JWT &amp; Set User in Req)</text></g><g class="message" data-entity-1="part2" data-entity-2="part3" id="msg3"><polygon fill="#181818" points="409.9692,297.5234,419.9692,301.5234,409.9692,305.5234,413.9692,301.5234" style="stroke:#181818;stroke-width:1;"/><line style="stroke:#181818;stroke-width:1;" x1="202.0361" x2="415.9692" y1="301.5234" y2="301.5234"/><text fill="#000000" font-family="sans-serif" font-size="13" lengthAdjust="spacing" textLength="86.417" x="209.0361" y="296.4575">addTask(req)</text></g><g class="message" data-entity-1="part3" data-entity-2="part4" id="msg4"><polygon fill="#181818" points="687.9731,326.6563,697.9731,330.6563,687.9731,334.6563,691.9731,330.6563" style="stroke:#181818;stroke-width:1;"/><line style="stroke:#181818;stroke-width:1;" x1="431.9692" x2="693.9731" y1="330.6563" y2="330.6563"/><text fill="#000000" font-family="sans-serif" font-size="13" lengthAdjust="spacing" textLength="203.144" x="438.9692" y="325.5903">AddTaskService-&gt;execute(req)</text></g><g class="message" data-entity-1="part4" data-entity-2="part4" id="msg5"><line style="stroke:#181818;stroke-width:1;" x1="709.9731" x2="751.9731" y1="359.7891" y2="359.7891"/><line style="stroke:#181818;stroke-width:1;" x1="751.9731" x2="751.9731" y1="359.7891" y2="372.7891"/><line style="stroke:#181818;stroke-width:1;" x1="710.9731" x2="751.9731" y1="372.7891" y2="372.7891"/><polygon fill="#181818" points="720.9731,368.7891,710.9731,372.7891,720.9731,376.7891,716.9731,372.7891" style="stroke:#181818;stroke-width:1;"/><text fill="#000000" font-family="sans-serif" font-size="13" lengthAdjust="spacing" textLength="91.1904" x="716.9731" y="354.7231">Validate Input</text></g><g class="message" data-entity-1="part4" data-entity-2="part5" id="msg6"><polygon fill="#181818" points="908.2407,397.9219,918.2407,401.9219,908.2407,405.9219,912.2407,401.9219" style="stroke:#181818;stroke-width:1;"/><line style="stroke:#181818;stroke-width:1;" x1="709.9731" x2="914.2407" y1="401.9219" y2="401.9219"/><text fill="#000000" font-family="sans-serif" font-size="13" lengthAdjust="spacing" textLength="177.3789" x="716.9731" y="396.856">addTask(title, desc, userId)</text></g><g class="message" data-entity-1="part5" data-entity-2="part4" id="msg7"><polygon fill="#181818" points="720.9731,427.0547,710.9731,431.0547,720.9731,435.0547,716.9731,431.0547" style="stroke:#181818;stroke-width:1;"/><line style="stroke:#181818;stroke-width:1;stroke-dasharray:2,2;" x1="714.9731" x2="924.2407" y1="431.0547" y2="431.0547"/><text fill="#000000" font-family="sans-serif" font-size="13" lengthAdjust="spacing" textLength="97.8682" x="726.9731" y="425.9888">New Task Data</text></g><g class="message" data-entity-1="part4" data-entity-2="part3" id="msg8"><polygon fill="#181818" points="442.9692,456.1875,432.9692,460.1875,442.9692,464.1875,438.9692,460.1875" style="stroke:#181818;stroke-width:1;"/><line style="stroke:#181818;stroke-width:1;stroke-dasharray:2,2;" x1="436.9692" x2="703.9731" y1="460.1875" y2="460.1875"/><text fill="#000000" font-family="sans-serif" font-size="13" lengthAdjust="spacing" textLength="65.3809" x="448.9692" y="455.1216">Task Data</text></g><g class="message" data-entity-1="part3" data-entity-2="part2" id="msg9"><polygon fill="#181818" points="213.0361,485.3203,203.0361,489.3203,213.0361,493.3203,209.0361,489.3203" style="stroke:#181818;stroke-width:1;"/><line style="stroke:#181818;stroke-width:1;stroke-dasharray:2,2;" x1="207.0361" x2="425.9692" y1="489.3203" y2="489.3203"/><text fill="#000000" font-family="sans-serif" font-size="13" lengthAdjust="spacing" textLength="166.3975" x="219.0361" y="484.2544">JsonResponder::success()</text></g><g class="message" data-entity-1="part2" data-entity-2="part1" id="msg10"><polygon fill="#181818" points="39.2651,514.4531,29.2651,518.4531,39.2651,522.4531,35.2651,518.4531" style="stroke:#181818;stroke-width:1;"/><line style="stroke:#181818;stroke-width:1;stroke-dasharray:2,2;" x1="33.2651" x2="196.0361" y1="518.4531" y2="518.4531"/><text fill="#000000" font-family="sans-serif" font-size="13" lengthAdjust="spacing" textLength="128.3623" x="45.2651" y="513.3872">200 OK (Task JSON)</text></g><rect fill="#EEEEEE" height="3" style="stroke:#EEEEEE;stroke-width:1;" width="980.5361" x="0" y="547.0195"/><line style="stroke:#000000;stroke-width:1;" x1="0" x2="980.5361" y1="547.0195" y2="547.0195"/><line style="stroke:#000000;stroke-width:1;" x1="0" x2="980.5361" y1="550.0195" y2="550.0195"/><rect fill="#EEEEEE" height="23.1328" style="stroke:#000000;stroke-width:2;" width="144.1777" x="418.1792" y="536.4531"/><text fill="#000000" font-family="sans-serif" font-size="13" font-weight="bold" lengthAdjust="spacing" textLength="125.6519" x="424.1792" y="552.52">Delete Operation</text><g class="message" data-entity-1="part1" data-entity-2="part2" id="msg11"><polygon fill="#181818" points="180.0361,601.8516,190.0361,605.8516,180.0361,609.8516,184.0361,605.8516" style="stroke:#181818;stroke-width:1;"/><line style="stroke:#181818;stroke-width:1;" x1="28.2651" x2="186.0361" y1="605.8516" y2="605.8516"/><text fill="#000000" font-family="sans-serif" font-size="13" lengthAdjust="spacing" textLength="137.8203" x="35.2651" y="585.6528">DELETE /tasks/delete</text><text fill="#000000" font-family="sans-serif" font-size="13" lengthAdjust="spacing" textLength="22.0073" x="35.2651" y="600.7856">(id)</text></g><g class="message" data-entity-1="part2" data-entity-2="part3" id="msg12"><polygon fill="#181818" points="409.9692,630.9844,419.9692,634.9844,409.9692,638.9844,413.9692,634.9844" style="stroke:#181818;stroke-width:1;"/><line style="stroke:#181818;stroke-width:1;" x1="202.0361" x2="415.9692" y1="634.9844" y2="634.9844"/><text fill="#000000" font-family="sans-serif" font-size="13" lengthAdjust="spacing" textLength="102.9019" x="209.0361" y="629.9185">deleteTask(req)</text></g><g class="message" data-entity-1="part3" data-entity-2="part4" id="msg13"><polygon fill="#181818" points="687.9731,660.1172,697.9731,664.1172,687.9731,668.1172,691.9731,664.1172" style="stroke:#181818;stroke-width:1;"/><line style="stroke:#181818;stroke-width:1;" x1="431.9692" x2="693.9731" y1="664.1172" y2="664.1172"/><text fill="#000000" font-family="sans-serif" font-size="13" lengthAdjust="spacing" textLength="220.4604" x="438.9692" y="659.0513">DeleteTaskService-&gt;execute(req)</text></g><g class="message" data-entity-1="part4" data-entity-2="part5" id="msg14"><polygon fill="#181818" points="908.2407,689.25,918.2407,693.25,908.2407,697.25,912.2407,693.25" style="stroke:#181818;stroke-width:1;"/><line style="stroke:#181818;stroke-width:1;" x1="709.9731" x2="914.2407" y1="693.25" y2="693.25"/><text fill="#000000" font-family="sans-serif" font-size="13" lengthAdjust="spacing" textLength="141.8765" x="716.9731" y="688.1841">deleteTask(id, userId)</text></g><g class="message" data-entity-1="part5" data-entity-2="part4" id="msg15"><polygon fill="#181818" points="720.9731,718.3828,710.9731,722.3828,720.9731,726.3828,716.9731,722.3828" style="stroke:#181818;stroke-width:1;"/><line style="stroke:#181818;stroke-width:1;stroke-dasharray:2,2;" x1="714.9731" x2="924.2407" y1="722.3828" y2="722.3828"/><text fill="#000000" font-family="sans-serif" font-size="13" lengthAdjust="spacing" textLength="52.3301" x="726.9731" y="717.3169">Success</text></g><g class="message" data-entity-1="part4" data-entity-2="part3" id="msg16"><polygon fill="#181818" points="442.9692,747.5156,432.9692,751.5156,442.9692,755.5156,438.9692,751.5156" style="stroke:#181818;stroke-width:1;"/><line style="stroke:#181818;stroke-width:1;stroke-dasharray:2,2;" x1="436.9692" x2="703.9731" y1="751.5156" y2="751.5156"/><text fill="#000000" font-family="sans-serif" font-size="13" lengthAdjust="spacing" textLength="52.3301" x="448.9692" y="746.4497">Success</text></g><g class="message" data-entity-1="part3" data-entity-2="part2" id="msg17"><polygon fill="#181818" points="208.0361,776.6484,198.0361,780.6484,208.0361,784.6484,204.0361,780.6484" style="stroke:#181818;stroke-width:1;"/><line style="stroke:#181818;stroke-width:1;stroke-dasharray:2,2;" x1="202.0361" x2="420.9692" y1="780.6484" y2="780.6484"/><text fill="#000000" font-family="sans-serif" font-size="13" lengthAdjust="spacing" textLength="47.7026" x="214.0361" y="775.5825">200 OK</text></g><rect fill="#EEEEEE" height="3" style="stroke:#EEEEEE;stroke-width:1;" width="980.5361" x="0" y="809.2148"/><line style="stroke:#000000;stroke-width:1;" x1="0" x2="980.5361" y1="809.2148" y2="809.2148"/><line style="stroke:#000000;stroke-width:1;" x1="0" x2="980.5361" y1="812.2148" y2="812.2148"/><rect fill="#EEEEEE" height="23.1328" style="stroke:#000000;stroke-width:2;" width="175.3511" x="402.5925" y="798.6484"/><text fill="#000000" font-family="sans-serif" font-size="13" font-weight="bold" lengthAdjust="spacing" textLength="156.8252" x="408.5925" y="814.7153">Mark Done Operation</text><g class="message" data-entity-1="part1" data-entity-2="part2" id="msg18"><polygon fill="#181818" points="180.0361,864.0469,190.0361,868.0469,180.0361,872.0469,184.0361,868.0469" style="stroke:#181818;stroke-width:1;"/><line style="stroke:#181818;stroke-width:1;" x1="28.2651" x2="186.0361" y1="868.0469" y2="868.0469"/><text fill="#000000" font-family="sans-serif" font-size="13" lengthAdjust="spacing" textLength="144.771" x="35.2651" y="847.8481">PUT /tasks/mark_done</text><text fill="#000000" font-family="sans-serif" font-size="13" lengthAdjust="spacing" textLength="79.5996" x="35.2651" y="862.981">(id, is_done)</text></g><g class="message" data-entity-1="part2" data-entity-2="part3" id="msg19"><polygon fill="#181818" points="414.9692,893.1797,424.9692,897.1797,414.9692,901.1797,418.9692,897.1797" style="stroke:#181818;stroke-width:1;"/><line style="stroke:#181818;stroke-width:1;" x1="202.0361" x2="420.9692" y1="897.1797" y2="897.1797"/><text fill="#000000" font-family="sans-serif" font-size="13" lengthAdjust="spacing" textLength="129.6509" x="209.0361" y="892.1138">markDoneTask(req)</text></g><g class="message" data-entity-1="part3" data-entity-2="part4" id="msg20"><polygon fill="#181818" points="687.9731,922.3125,697.9731,926.3125,687.9731,930.3125,691.9731,926.3125" style="stroke:#181818;stroke-width:1;"/><line style="stroke:#181818;stroke-width:1;" x1="436.9692" x2="693.9731" y1="926.3125" y2="926.3125"/><text fill="#000000" font-family="sans-serif" font-size="13" lengthAdjust="spacing" textLength="244.0039" x="443.9692" y="921.2466">MarkDoneTaskService-&gt;execute(req)</text></g><g class="message" data-entity-1="part4" data-entity-2="part5" id="msg21"><polygon fill="#181818" points="908.2407,951.4453,918.2407,955.4453,908.2407,959.4453,912.2407,955.4453" style="stroke:#181818;stroke-width:1;"/><line style="stroke:#181818;stroke-width:1;" x1="709.9731" x2="914.2407" y1="955.4453" y2="955.4453"/><text fill="#000000" font-family="sans-serif" font-size="13" lengthAdjust="spacing" textLength="191.2676" x="716.9731" y="950.3794">markDone(id, isDone, userId)</text></g><g class="message" data-entity-1="part5" data-entity-2="part4" id="msg22"><polygon fill="#181818" points="720.9731,980.5781,710.9731,984.5781,720.9731,988.5781,716.9731,984.5781" style="stroke:#181818;stroke-width:1;"/><line style="stroke:#181818;stroke-width:1;stroke-dasharray:2,2;" x1="714.9731" x2="924.2407" y1="984.5781" y2="984.5781"/><text fill="#000000" font-family="sans-serif" font-size="13" lengthAdjust="spacing" textLength="89.6733" x="726.9731" y="979.5122">Updated Task</text></g><g class="message" data-entity-1="part4" data-entity-2="part3" id="msg23"><polygon fill="#181818" points="447.9692,1009.7109,437.9692,1013.7109,447.9692,1017.7109,443.9692,1013.7109" style="stroke:#181818;stroke-width:1;"/><line style="stroke:#181818;stroke-width:1;stroke-dasharray:2,2;" x1="441.9692" x2="703.9731" y1="1013.7109" y2="1013.7109"/><text fill="#000000" font-family="sans-serif" font-size="13" lengthAdjust="spacing" textLength="65.3809" x="453.9692" y="1008.645">Task Data</text></g><g class="message" data-entity-1="part3" data-entity-2="part2" id="msg24"><polygon fill="#181818" points="208.0361,1038.8438,198.0361,1042.8438,208.0361,1046.8438,204.0361,1042.8438" style="stroke:#181818;stroke-width:1;"/><line style="stroke:#181818;stroke-width:1;stroke-dasharray:2,2;" x1="202.0361" x2="425.9692" y1="1042.8438" y2="1042.8438"/><text fill="#000000" font-family="sans-serif" font-size="13" lengthAdjust="spacing" textLength="47.7026" x="214.0361" y="1037.7778">200 OK</text></g><!--SRC=[dLHDRzim3BthLn0z33QG8CME0LAWYJEWsT9q-UWk0mh1ObOXdkH9TBFz-qcMxJWVNOnTR2b-v2FV8qEICeGrjpjOv6WuIQqiVChq7g9x8GQRN732GO8P4iQCyPIqWKacKH7BkI6PofmhWfkbBWZD3N0BuNZysLDCj2AZiwo2JSXanw1LZgdSojI3LsZUP8ebiZgVP_nQe95eIr0oPanfGZ3onok1tjPb0jmNzEfECdMz25ZYhmAj_psQQBsJE0IUfcZj2-aTgfYX4k0pCHOoGF-kwca8JulL6WRakEs02_5THUGbx850cngPUm5ZBvDySsIr52oysubyJNCfH8PxRj3bUNQjRF_0xDiQFhYE2JRMHKZbwutR6RnkhcGXl0AHyLyRlb9JvfyUMUdco0AuklVly3UcBjr9S2qpgmv7APvv9lqim8FA2ph29ED3EIqrUb2u3Xv4Yy5vb8oXtyxxYFimVmadpWIsiGUIfksBqARmq7XBvPdLQeasrqguwz0MfT5Ht8uEcjNwUgRIzI5ylBs5nMU8IixPQl5u55PREnf1M8_31i5eT6bsakcNwNfQJuyeWvpnKfmFpAdR0VoUuMT-9msye-KdRhRefEZcuof8U-BWkO4NS7KHP-u50zuHVSwDcmIjhkl-j6bMzgSBUX4kgDIz1zAMj-i6-41Frjc2UIlW_qoeAQj2_R6R5U5FMvIxSjMFVovKPqV-0W00]--></g></svg>