<svg xmlns="http://www.w3.org/2000/svg" xmlns:xlink="http://www.w3.org/1999/xlink" contentStyleType="text/css" data-diagram-type="CLASS" height="532px" preserveAspectRatio="none" style="width:982px;height:532px;background:#FFFFFF;" version="1.1" viewBox="0 0 982 532" width="982px" zoomAndPan="magnify"><title>Application Navigation Flow</title><defs/><g><g class="title" data-source-line="1"><text fill="#000000" font-family="sans-serif" font-size="14" font-weight="bold" lengthAdjust="spacing" textLength="221.5938" x="373.5618" y="22.9951">Application Navigation Flow</text></g><g><rect fill="#FFFFFF" height="50" rx="12.5" ry="12.5" style="stroke:#000000;stroke-width:0.5;" width="127.0029" x="606.17" y="196.0869"/><line style="stroke:#000000;stroke-width:0.5;" x1="606.17" x2="733.1729" y1="222.3837" y2="222.3837"/><text fill="#000000" font-family="sans-serif" font-size="14" lengthAdjust="spacing" textLength="107.0029" x="616.17" y="214.082">Guest Home (/)</text></g><g><rect fill="#FFFFFF" height="50" rx="12.5" ry="12.5" style="stroke:#000000;stroke-width:0.5;" width="129.7852" x="373.78" y="336.2369"/><line style="stroke:#000000;stroke-width:0.5;" x1="373.78" x2="503.5652" y1="362.5338" y2="362.5338"/><text fill="#000000" font-family="sans-serif" font-size="14" lengthAdjust="spacing" textLength="109.7852" x="383.78" y="354.232">Sign In (/signin)</text></g><g><rect fill="#FFFFFF" height="50" rx="12.5" ry="12.5" style="stroke:#000000;stroke-width:0.5;" width="140.9141" x="599.21" y="336.2369"/><line style="stroke:#000000;stroke-width:0.5;" x1="599.21" x2="740.1241" y1="362.5338" y2="362.5338"/><text fill="#000000" font-family="sans-serif" font-size="14" lengthAdjust="spacing" textLength="120.9141" x="609.21" y="354.232">Sign Up (/signup)</text></g><g><rect fill="#FFFFFF" height="50" rx="12.5" ry="12.5" style="stroke:#000000;stroke-width:0.5;" width="227.6074" x="373.87" y="476.3869"/><line style="stroke:#000000;stroke-width:0.5;" x1="373.87" x2="601.4774" y1="502.6838" y2="502.6838"/><text fill="#000000" font-family="sans-serif" font-size="14" lengthAdjust="spacing" textLength="207.6074" x="383.87" y="494.382">User Dashboard (/:username)</text></g><!--entity GuestUser--><g class="entity" data-qualified-name="GuestUser" data-source-line="16" id="ent0006"><ellipse cx="669.6691" cy="51.2969" fill="#F1F1F1" rx="8" ry="8" style="stroke:#181818;stroke-width:0.5;"/><path d="M669.6691,59.2969 L669.6691,86.2969 M656.6691,67.2969 L682.6691,67.2969 M669.6691,86.2969 L656.6691,101.2969 M669.6691,86.2969 L682.6691,101.2969" fill="none" style="stroke:#181818;stroke-width:0.5;"/><text fill="#000000" font-family="sans-serif" font-size="14" lengthAdjust="spacing" textLength="41.1182" x="649.11" y="115.792">Guest</text></g><!--entity ReturnUser--><g class="entity" data-qualified-name="ReturnUser" data-source-line="17" id="ent0007"><ellipse cx="58.6709" cy="331.5869" fill="#F1F1F1" rx="8" ry="8" style="stroke:#181818;stroke-width:0.5;"/><path d="M58.6709,339.5869 L58.6709,366.5869 M45.6709,347.5869 L71.6709,347.5869 M58.6709,366.5869 L45.6709,381.5869 M58.6709,366.5869 L71.6709,381.5869" fill="none" style="stroke:#181818;stroke-width:0.5;"/><text fill="#000000" font-family="sans-serif" font-size="14" lengthAdjust="spacing" textLength="105.3418" x="6" y="396.082">Returning User</text></g><!--link GuestUser to Home--><g class="link" data-entity-1="ent0006" data-entity-2="ent0002" data-link-type="dependency" data-source-line="20" id="lnk8"><path codeLine="20" d="M669.67,119.3269 C669.67,143.6169 669.67,168.5869 669.67,189.7369" fill="none" id="GuestUser-to-Home" style="stroke:#000000;stroke-width:1;"/><polygon fill="#000000" points="669.67,195.7369,673.67,186.7369,669.67,190.7369,665.67,186.7369,669.67,195.7369" style="stroke:#000000;stroke-width:1;"/><text fill="#000000" font-family="sans-serif" font-size="13" lengthAdjust="spacing" textLength="57.5161" x="670.67" y="162.1538">Visit App</text></g><!--link ReturnUser to Dashboard--><g class="link" data-entity-1="ent0007" data-entity-2="ent0005" data-link-type="dependency" data-source-line="21" id="lnk9"><path codeLine="21" d="M58.47,399.7369 C60.42,416.3469 65.74,434.7169 78.67,446.3869 C120.87,484.4869 262.013,495.9079 367.713,499.2379" fill="none" id="ReturnUser-to-Dashboard" style="stroke:#000000;stroke-width:1;"/><polygon fill="#000000" points="373.71,499.4269,364.8404,495.1455,368.7125,499.2694,364.5885,503.1415,373.71,499.4269" style="stroke:#000000;stroke-width:1;"/><text fill="#000000" font-family="sans-serif" font-size="13" lengthAdjust="spacing" textLength="94.1738" x="79.67" y="442.4538">Session Active</text></g><!--link Home to SignIn--><g class="link" data-entity-1="ent0002" data-entity-2="ent0003" data-link-type="dependency" data-source-line="24" id="lnk10"><path codeLine="24" d="M628.9,246.4669 C586.81,271.6469 526.6595,307.6175 484.5695,332.7875" fill="none" id="Home-to-SignIn" style="stroke:#000000;stroke-width:1;"/><polygon fill="#000000" points="479.42,335.8669,489.1972,334.6807,483.7112,333.3007,485.0913,327.8148,479.42,335.8669" style="stroke:#000000;stroke-width:1;"/><text fill="#000000" font-family="sans-serif" font-size="13" lengthAdjust="spacing" textLength="30.9766" x="575.67" y="289.1538">Click</text><text fill="#000000" font-family="sans-serif" font-size="13" lengthAdjust="spacing" textLength="44.5605" x="439.8202" y="325.3479">Sign In</text></g><!--link Home to SignUp--><g class="link" data-entity-1="ent0002" data-entity-2="ent0004" data-link-type="dependency" data-source-line="25" id="lnk11"><path codeLine="25" d="M669.67,246.4669 C669.67,271.7269 669.67,304.9369 669.67,330.1069" fill="none" id="Home-to-SignUp" style="stroke:#000000;stroke-width:1;"/><polygon fill="#000000" points="669.67,336.1069,673.67,327.1069,669.67,331.1069,665.67,327.1069,669.67,336.1069" style="stroke:#000000;stroke-width:1;"/><text fill="#000000" font-family="sans-serif" font-size="13" lengthAdjust="spacing" textLength="30.9766" x="670.67" y="289.1538">Click</text><text fill="#000000" font-family="sans-serif" font-size="13" lengthAdjust="spacing" textLength="75.3086" x="585.5677" y="325.2364">Get Started</text></g><!--link SignIn to Dashboard--><g class="link" data-entity-1="ent0003" data-entity-2="ent0005" data-link-type="dependency" data-source-line="27" id="lnk12"><path codeLine="27" d="M373.6,363.4769 C283.97,367.4669 139.22,383.5069 191.67,446.3869 C214.97,474.3169 294.5238,487.3035 367.6938,493.8335" fill="none" id="SignIn-to-Dashboard" style="stroke:#000000;stroke-width:1;"/><polygon fill="#000000" points="373.67,494.3669,365.0612,489.5827,368.6898,493.9224,364.3501,497.551,373.67,494.3669" style="stroke:#000000;stroke-width:1;"/><text fill="#000000" font-family="sans-serif" font-size="13" lengthAdjust="spacing" textLength="91.7617" x="192.67" y="442.4538">Login Success</text></g><!--link SignIn to Dashboard--><g class="link" data-entity-1="ent0003" data-entity-2="ent0005" data-link-type="dependency" data-source-line="31" id="lnk14"><path codeLine="31" d="M373.31,382.8169 C337.99,397.5369 305.23,419.4669 324.67,446.3869 C336.8,463.1869 348.8313,472.5058 367.9713,480.5758" fill="none" id="SignIn-to-Dashboard-1" style="stroke:#000000;stroke-width:1;"/><polygon fill="#000000" points="373.5,482.9069,366.761,475.7245,368.8928,480.9643,363.653,483.0961,373.5,482.9069" style="stroke:#000000;stroke-width:1;"/><text fill="#000000" font-family="sans-serif" font-size="13" lengthAdjust="spacing" textLength="118.0474" x="325.67" y="442.4538">Already Logged In</text></g><!--link Dashboard to SignIn--><g class="link" data-entity-1="ent0005" data-entity-2="ent0003" data-link-type="dependency" data-source-line="35" id="lnk17"><path codeLine="35" d="M479.11,476.2469 C470.19,451.0869 458.2865,417.5214 449.3265,392.2714" fill="none" id="Dashboard-to-SignIn" style="stroke:#000000;stroke-width:1;"/><polygon fill="#000000" points="447.32,386.6169,446.5601,396.4364,448.9921,391.329,454.0995,393.761,447.32,386.6169" style="stroke:#000000;stroke-width:1;"/><text fill="#000000" font-family="sans-serif" font-size="13" lengthAdjust="spacing" textLength="91.0635" x="468.67" y="442.4538">Not Logged In</text></g><!--link SignUp to Dashboard--><g class="link" data-entity-1="ent0004" data-entity-2="ent0005" data-link-type="dependency" data-source-line="28" id="lnk13"><path codeLine="28" d="M642.02,386.6369 C622.08,403.8969 594.27,427.2669 568.67,446.3869 C555.13,456.4969 544.8209,463.6467 531.1709,472.6367" fill="none" id="SignUp-to-Dashboard" style="stroke:#000000;stroke-width:1;"/><polygon fill="#000000" points="526.16,475.9369,535.8764,474.3272,530.3357,473.1867,531.4762,467.646,526.16,475.9369" style="stroke:#000000;stroke-width:1;"/><text fill="#000000" font-family="sans-serif" font-size="13" lengthAdjust="spacing" textLength="110.5698" x="588.67" y="442.4538">Register Success</text></g><!--link SignUp to Dashboard--><g class="link" data-entity-1="ent0004" data-entity-2="ent0005" data-link-type="dependency" data-source-line="32" id="lnk15"><path codeLine="32" d="M693.61,386.4069 C708.3,404.2069 721.82,428.3469 707.67,446.3869 C693.75,464.1469 653.9984,475.7272 607.8684,484.3272" fill="none" id="SignUp-to-Dashboard-1" style="stroke:#000000;stroke-width:1;"/><polygon fill="#000000" points="601.97,485.4269,611.5506,487.7097,606.8853,484.5105,610.0845,479.8452,601.97,485.4269" style="stroke:#000000;stroke-width:1;"/><text fill="#000000" font-family="sans-serif" font-size="13" lengthAdjust="spacing" textLength="118.0474" x="713.67" y="442.4538">Already Logged In</text></g><!--link Home to Dashboard--><g class="link" data-entity-1="ent0002" data-entity-2="ent0005" data-link-type="dependency" data-source-line="33" id="lnk16"><path codeLine="33" d="M712.42,246.5469 C780.63,288.5569 900.56,376.6369 840.67,446.3869 C810.18,481.8969 698.8336,494.0306 607.7136,498.2306" fill="none" id="Home-to-Dashboard" style="stroke:#000000;stroke-width:1;"/><polygon fill="#000000" points="601.72,498.5069,610.8946,502.0882,606.7147,498.2767,610.5263,494.0967,601.72,498.5069" style="stroke:#000000;stroke-width:1;"/><text fill="#000000" font-family="sans-serif" font-size="13" lengthAdjust="spacing" textLength="118.0474" x="856.67" y="365.8038">Already Logged In</text></g><!--link Dashboard to Dashboard--><g class="link" data-entity-1="ent0005" data-entity-2="ent0005" data-link-type="dependency" data-source-line="36" id="lnk18"><path codeLine="36" d="M601.84,490.1769 C622.23,491.6369 636.47,495.3669 636.47,501.3869 C636.47,507.4069 628.2147,510.7083 607.8247,512.1683" fill="none" id="Dashboard-to-Dashboard" style="stroke:#000000;stroke-width:1;"/><polygon fill="#000000" points="601.84,512.5969,611.1027,515.9439,606.8272,512.2398,610.5313,507.9643,601.84,512.5969" style="stroke:#000000;stroke-width:1;"/><text fill="#000000" font-family="sans-serif" font-size="13" lengthAdjust="spacing" textLength="255.7153" x="642.47" y="505.9538">Wrong Username -&gt; Correct Username</text></g><!--SRC=[VP9FRy8m3CNl-HGMby5Xsft39Fve38rn036EKzPwnQ9DgYI5eMdVVNPRMih4JeJdNvvVx0OAAS8eprEAT21hOAaFb5J7fzGUbT-JoRNJ6VYW0yAt0XZhQ9yuMvXuObFhOBkZWA9R5wEhj77A46iZv-pnKlfHEcNZzuo-o2HAtS4KFyaWlE09rjB3gwfLRrQW3_1iCuJ-mw07sfT_pkKr9GRcXckUJsGgGjIvwJ2Rl6QAl6Ks-PdPU7GmrNxtORMB6HqMh1YTOKKt9GaxYe9rNcdvgHEMK7aIftDfXQ5md2e1KKkcaag8dUQ60kaK5jh4Ced60Uxl7wjN3-6DF0LPa6elb_Ksxn3MwBqiZBFH0SNxLLEzlz97BbHpONh2kzutq-jr2HvLGymmo49SmBYdL7t_klV29jngNKGHXr2rnJMqmeHyuEHdJWPPX1qNOd8OoUVceJyh6FU3Mwr6gKCTdwHbWZ5dlzNkBzYyyNzCjUNEo9OsN51TwD9nwsozR_bwWAiJw-HzZVOB]--></g></svg>