<svg xmlns="http://www.w3.org/2000/svg" xmlns:xlink="http://www.w3.org/1999/xlink" contentStyleType="text/css" data-diagram-type="ACTIVITY" height="1263px" preserveAspectRatio="none" style="width:976px;height:1263px;background:#FFFFFF;" version="1.1" viewBox="0 0 976 1263" width="976px" zoomAndPan="magnify"><title>Frontend State &amp; Logic Flow</title><defs/><g><g class="title" data-source-line="1"><text fill="#000000" font-family="sans-serif" font-size="14" font-weight="bold" lengthAdjust="spacing" textLength="224.916" x="374.2996" y="32.9951">Frontend State &amp; Logic Flow</text></g><rect fill="none" height="20.9531" style="stroke:none;stroke-width:1;" width="943.5151" x="15" y="50.042"/><ellipse cx="276.7915" cy="85.9951" fill="#222222" rx="10" ry="10" style="stroke:#222222;stroke-width:1;"/><rect fill="#F1F1F1" height="33.9688" rx="12.5" ry="12.5" style="stroke:#181818;stroke-width:0.5;" width="102.1602" x="225.7114" y="115.9951"/><text fill="#000000" font-family="sans-serif" font-size="12" lengthAdjust="spacing" textLength="82.1602" x="235.7114" y="137.1338">Initialize Auth</text><rect fill="#F1F1F1" height="33.9688" rx="12.5" ry="12.5" style="stroke:#181818;stroke-width:0.5;" width="243.4121" x="155.0854" y="169.9639"/><text fill="#000000" font-family="sans-serif" font-size="12" lengthAdjust="spacing" textLength="36.9141" x="165.0854" y="191.1025">Check</text><text fill="#000000" font-family="sans-serif" font-size="12" font-weight="bold" lengthAdjust="spacing" textLength="182.6836" x="205.814" y="191.1025">localStorage('auth_status')</text><polygon fill="#F1F1F1" points="214.0947,223.9326,339.4883,223.9326,351.4883,235.9326,339.4883,247.9326,214.0947,247.9326,202.0947,235.9326,214.0947,223.9326" style="stroke:#181818;stroke-width:0.5;"/><text fill="#000000" font-family="sans-serif" font-size="11" lengthAdjust="spacing" textLength="125.3936" x="214.0947" y="239.7407">Status == 'logged_in'?</text><text fill="#000000" font-family="sans-serif" font-size="11" lengthAdjust="spacing" textLength="19.2178" x="182.877" y="233.3384">Yes</text><text fill="#000000" font-family="sans-serif" font-size="11" lengthAdjust="spacing" textLength="66.6768" x="351.4883" y="233.3384">No / Missing</text><rect fill="#F1F1F1" height="33.9688" rx="12.5" ry="12.5" style="stroke:#181818;stroke-width:0.5;" width="103.1855" x="111.582" y="257.9326"/><text fill="#000000" font-family="sans-serif" font-size="12" lengthAdjust="spacing" textLength="22.4004" x="121.582" y="279.0713">Call</text><text fill="#000000" font-family="sans-serif" font-size="12" font-weight="bold" lengthAdjust="spacing" textLength="56.9707" x="147.7969" y="279.0713">api.me()</text><polygon fill="#F1F1F1" points="133.5935,311.9014,192.7561,311.9014,204.7561,323.9014,192.7561,335.9014,133.5935,335.9014,121.5935,323.9014,133.5935,311.9014" style="stroke:#181818;stroke-width:0.5;"/><text fill="#000000" font-family="sans-serif" font-size="11" lengthAdjust="spacing" textLength="59.1626" x="133.5935" y="327.7095">Response?</text><text fill="#000000" font-family="sans-serif" font-size="11" lengthAdjust="spacing" textLength="40.3638" x="81.2297" y="321.3071">200 OK</text><text fill="#000000" font-family="sans-serif" font-size="11" lengthAdjust="spacing" textLength="58.9424" x="204.7561" y="321.3071">401 / Error</text><rect fill="#F1F1F1" height="33.9688" rx="12.5" ry="12.5" style="stroke:#181818;stroke-width:0.5;" width="110.5332" x="31.8604" y="345.9014"/><text fill="#000000" font-family="sans-serif" font-size="12" lengthAdjust="spacing" textLength="19.7051" x="41.8604" y="367.04">Set</text><text fill="#000000" font-family="sans-serif" font-size="12" font-weight="bold" lengthAdjust="spacing" textLength="67.0137" x="65.3799" y="367.04">User Data</text><rect fill="#F1F1F1" height="33.9688" rx="12.5" ry="12.5" style="stroke:#181818;stroke-width:0.5;" width="132.2539" x="21" y="399.8701"/><text fill="#000000" font-family="sans-serif" font-size="12" lengthAdjust="spacing" textLength="45.6328" x="31" y="421.0088">State =</text><text fill="#000000" font-family="sans-serif" font-size="12" font-weight="bold" lengthAdjust="spacing" textLength="62.8066" x="80.4473" y="421.0088">LoggedIn</text><rect fill="#F1F1F1" height="33.9688" rx="12.5" ry="12.5" style="stroke:#181818;stroke-width:0.5;" width="131.9375" x="173.2539" y="345.9014"/><text fill="#000000" font-family="sans-serif" font-size="12" lengthAdjust="spacing" textLength="111.9375" x="183.2539" y="367.04">Clear 'auth_status'</text><rect fill="#F1F1F1" height="33.9688" rx="12.5" ry="12.5" style="stroke:#181818;stroke-width:0.5;" width="110.4336" x="184.0059" y="399.8701"/><text fill="#000000" font-family="sans-serif" font-size="12" lengthAdjust="spacing" textLength="90.4336" x="194.0059" y="421.0088">Set User = null</text><rect fill="#F1F1F1" height="33.9688" rx="12.5" ry="12.5" style="stroke:#181818;stroke-width:0.5;" width="108.8574" x="184.7939" y="453.8389"/><text fill="#000000" font-family="sans-serif" font-size="12" lengthAdjust="spacing" textLength="45.6328" x="194.7939" y="474.9775">State =</text><text fill="#000000" font-family="sans-serif" font-size="12" font-weight="bold" lengthAdjust="spacing" textLength="39.4102" x="244.2412" y="474.9775">Guest</text><polygon fill="#F1F1F1" points="163.1748,493.8076,175.1748,505.8076,163.1748,517.8076,151.1748,505.8076,163.1748,493.8076" style="stroke:#181818;stroke-width:0.5;"/><rect fill="#F1F1F1" height="33.9688" rx="12.5" ry="12.5" style="stroke:#181818;stroke-width:0.5;" width="110.4336" x="335.1914" y="257.9326"/><text fill="#000000" font-family="sans-serif" font-size="12" lengthAdjust="spacing" textLength="90.4336" x="345.1914" y="279.0713">Set User = null</text><rect fill="#F1F1F1" height="33.9688" rx="12.5" ry="12.5" style="stroke:#181818;stroke-width:0.5;" width="108.8574" x="335.9795" y="311.9014"/><text fill="#000000" font-family="sans-serif" font-size="12" lengthAdjust="spacing" textLength="45.6328" x="345.9795" y="333.04">State =</text><text fill="#000000" font-family="sans-serif" font-size="12" font-weight="bold" lengthAdjust="spacing" textLength="39.4102" x="395.4268" y="333.04">Guest</text><polygon fill="#F1F1F1" points="276.7915,523.8076,288.7915,535.8076,276.7915,547.8076,264.7915,535.8076,276.7915,523.8076" style="stroke:#181818;stroke-width:0.5;"/><line style="stroke:#000000;stroke-width:1.5;" x1="15" x2="15" y1="50.042" y2="1251.8545"/><rect fill="#F1F1F1" height="33.9688" rx="12.5" ry="12.5" style="stroke:#181818;stroke-width:0.5;" width="184.7949" x="646.8679" y="567.8076"/><text fill="#000000" font-family="sans-serif" font-size="12" lengthAdjust="spacing" textLength="164.7949" x="656.8679" y="588.9463">Initialize Todos(page, filter)</text><polygon fill="#F1F1F1" points="707.1489,621.7764,771.3818,621.7764,783.3818,633.7764,771.3818,645.7764,707.1489,645.7764,695.1489,633.7764,707.1489,621.7764" style="stroke:#181818;stroke-width:0.5;"/><text fill="#000000" font-family="sans-serif" font-size="11" lengthAdjust="spacing" textLength="64.2329" x="707.1489" y="637.5845">Auth State?</text><text fill="#000000" font-family="sans-serif" font-size="11" lengthAdjust="spacing" textLength="50.7891" x="644.3599" y="631.1821">LoggedIn</text><text fill="#000000" font-family="sans-serif" font-size="11" lengthAdjust="spacing" textLength="32.3071" x="783.3818" y="631.1821">Guest</text><rect fill="#F1F1F1" height="33.9688" rx="12.5" ry="12.5" style="stroke:#181818;stroke-width:0.5;" width="152.8379" x="523.0903" y="655.7764"/><text fill="#000000" font-family="sans-serif" font-size="12" lengthAdjust="spacing" textLength="22.4004" x="533.0903" y="676.915">Call</text><text fill="#000000" font-family="sans-serif" font-size="12" font-weight="bold" lengthAdjust="spacing" textLength="106.623" x="559.3052" y="676.915">api.get('/tasks')</text><polygon fill="#F1F1F1" points="574.4504,709.7451,624.5681,709.7451,636.5681,721.7451,624.5681,733.7451,574.4504,733.7451,562.4504,721.7451,574.4504,709.7451" style="stroke:#181818;stroke-width:0.5;"/><text fill="#000000" font-family="sans-serif" font-size="11" lengthAdjust="spacing" textLength="50.1177" x="574.4504" y="725.5532">Success?</text><text fill="#000000" font-family="sans-serif" font-size="11" lengthAdjust="spacing" textLength="19.2178" x="543.2327" y="719.1509">Yes</text><text fill="#000000" font-family="sans-serif" font-size="11" lengthAdjust="spacing" textLength="102.3301" x="636.5681" y="719.1509">No / Network Error</text><rect fill="#F1F1F1" height="33.9688" rx="12.5" ry="12.5" style="stroke:#181818;stroke-width:0.5;" width="117.8867" x="455.625" y="743.7451"/><text fill="#000000" font-family="sans-serif" font-size="12" lengthAdjust="spacing" textLength="19.7051" x="465.625" y="764.8838">Set</text><text fill="#000000" font-family="sans-serif" font-size="12" font-weight="bold" lengthAdjust="spacing" textLength="74.3672" x="489.1445" y="764.8838">Cloud Data</text><rect fill="#F1F1F1" height="33.9688" rx="12.5" ry="12.5" style="stroke:#181818;stroke-width:0.5;" width="108.6758" x="460.2305" y="797.7139"/><text fill="#000000" font-family="sans-serif" font-size="12" lengthAdjust="spacing" textLength="46.5645" x="470.2305" y="818.8525">Mode =</text><text fill="#000000" font-family="sans-serif" font-size="12" font-weight="bold" lengthAdjust="spacing" textLength="38.2969" x="520.6094" y="818.8525">Cloud</text><rect fill="#F1F1F1" height="33.9688" rx="12.5" ry="12.5" style="stroke:#181818;stroke-width:0.5;" width="181.877" x="593.5117" y="743.7451"/><text fill="#000000" font-family="sans-serif" font-size="12" lengthAdjust="spacing" textLength="65.3027" x="603.5117" y="764.8838">Fallback to</text><text fill="#000000" font-family="sans-serif" font-size="12" font-weight="bold" lengthAdjust="spacing" textLength="92.7598" x="672.6289" y="764.8838">Local Storage</text><rect fill="#F1F1F1" height="33.9688" rx="12.5" ry="12.5" style="stroke:#181818;stroke-width:0.5;" width="170.4863" x="599.207" y="797.7139"/><text fill="#000000" font-family="sans-serif" font-size="12" lengthAdjust="spacing" textLength="46.5645" x="609.207" y="818.8525">Mode =</text><text fill="#000000" font-family="sans-serif" font-size="12" font-weight="bold" lengthAdjust="spacing" textLength="100.1074" x="659.5859" y="818.8525">Guest (Offline)</text><polygon fill="#F1F1F1" points="599.5093,837.6826,611.5093,849.6826,599.5093,861.6826,587.5093,849.6826,599.5093,837.6826" style="stroke:#181818;stroke-width:0.5;"/><rect fill="#F1F1F1" height="33.9688" rx="12.5" ry="12.5" style="stroke:#181818;stroke-width:0.5;" width="147.2656" x="805.3887" y="655.7764"/><text fill="#000000" font-family="sans-serif" font-size="12" lengthAdjust="spacing" textLength="30.6914" x="815.3887" y="676.915">Read</text><text fill="#000000" font-family="sans-serif" font-size="12" font-weight="bold" lengthAdjust="spacing" textLength="92.7598" x="849.8945" y="676.915">Local Storage</text><rect fill="#F1F1F1" height="33.9688" rx="12.5" ry="12.5" style="stroke:#181818;stroke-width:0.5;" width="109.7891" x="824.127" y="709.7451"/><text fill="#000000" font-family="sans-serif" font-size="12" lengthAdjust="spacing" textLength="46.5645" x="834.127" y="730.8838">Mode =</text><text fill="#000000" font-family="sans-serif" font-size="12" font-weight="bold" lengthAdjust="spacing" textLength="39.4102" x="884.5059" y="730.8838">Guest</text><polygon fill="#F1F1F1" points="739.2654,867.6826,751.2654,879.6826,739.2654,891.6826,727.2654,879.6826,739.2654,867.6826" style="stroke:#181818;stroke-width:0.5;"/><rect fill="none" height="308.1719" style="stroke:#000000;stroke-width:1.5;" width="307.3457" x="587.6243" y="901.6826"/><path d="M751.5764,901.6826 L751.5764,910.9795 L741.5764,920.9795 L587.6243,920.9795" fill="none" style="stroke:#000000;stroke-width:1.5;"/><text fill="#000000" font-family="sans-serif" font-size="14" lengthAdjust="spacing" textLength="153.9521" x="590.6243" y="915.6777">User Action: Add Task</text><polygon fill="#F1F1F1" points="721.3608,937.9795,757.1699,937.9795,769.1699,949.9795,757.1699,961.9795,721.3608,961.9795,709.3608,949.9795,721.3608,937.9795" style="stroke:#181818;stroke-width:0.5;"/><text fill="#000000" font-family="sans-serif" font-size="11" lengthAdjust="spacing" textLength="35.8091" x="721.3608" y="953.7876">Mode?</text><text fill="#000000" font-family="sans-serif" font-size="11" lengthAdjust="spacing" textLength="31.4209" x="677.9399" y="947.3853">Cloud</text><text fill="#000000" font-family="sans-serif" font-size="11" lengthAdjust="spacing" textLength="32.3071" x="769.1699" y="947.3853">Guest</text><rect fill="#F1F1F1" height="33.9688" rx="12.5" ry="12.5" style="stroke:#181818;stroke-width:0.5;" width="112.2559" x="611.301" y="971.9795"/><text fill="#000000" font-family="sans-serif" font-size="12" lengthAdjust="spacing" textLength="22.4004" x="621.301" y="993.1182">Call</text><text fill="#000000" font-family="sans-serif" font-size="12" font-weight="bold" lengthAdjust="spacing" textLength="66.041" x="647.5159" y="993.1182">api.post()</text><rect fill="#F1F1F1" height="33.9688" rx="12.5" ry="12.5" style="stroke:#181818;stroke-width:0.5;" width="119.6094" x="607.6243" y="1025.9482"/><text fill="#000000" font-family="sans-serif" font-size="12" lengthAdjust="spacing" textLength="99.6094" x="617.6243" y="1047.0869">Invalidate Query</text><rect fill="#F1F1F1" height="33.9688" rx="12.5" ry="12.5" style="stroke:#181818;stroke-width:0.5;" width="91.0273" x="621.9153" y="1079.917"/><text fill="#000000" font-family="sans-serif" font-size="12" lengthAdjust="spacing" textLength="71.0273" x="631.9153" y="1101.0557">Refetch List</text><rect fill="#F1F1F1" height="33.9688" rx="12.5" ry="12.5" style="stroke:#181818;stroke-width:0.5;" width="68.8086" x="776.6975" y="971.9795"/><text fill="#000000" font-family="sans-serif" font-size="12" lengthAdjust="spacing" textLength="48.8086" x="786.6975" y="993.1182">Read LS</text><rect fill="#F1F1F1" height="33.9688" rx="12.5" ry="12.5" style="stroke:#181818;stroke-width:0.5;" width="127.7363" x="747.2336" y="1025.9482"/><text fill="#000000" font-family="sans-serif" font-size="12" lengthAdjust="spacing" textLength="107.7363" x="757.2336" y="1047.0869">Append New Task</text><rect fill="#F1F1F1" height="33.9688" rx="12.5" ry="12.5" style="stroke:#181818;stroke-width:0.5;" width="70.3379" x="775.9329" y="1079.917"/><text fill="#000000" font-family="sans-serif" font-size="12" lengthAdjust="spacing" textLength="50.3379" x="785.9329" y="1101.0557">Write LS</text><rect fill="#F1F1F1" height="33.9688" rx="12.5" ry="12.5" style="stroke:#181818;stroke-width:0.5;" width="96.0137" x="763.095" y="1133.8857"/><text fill="#000000" font-family="sans-serif" font-size="12" lengthAdjust="spacing" textLength="76.0137" x="773.095" y="1155.0244">Update View</text><polygon fill="#F1F1F1" points="739.2654,1173.8545,751.2654,1185.8545,739.2654,1197.8545,727.2654,1185.8545,739.2654,1173.8545" style="stroke:#181818;stroke-width:0.5;"/><ellipse cx="739.2654" cy="1240.8545" fill="none" rx="11" ry="11" style="stroke:#222222;stroke-width:1;"/><ellipse cx="739.2654" cy="1240.8545" fill="#222222" rx="6" ry="6" style="stroke:#222222;stroke-width:1;"/><line style="stroke:#000000;stroke-width:1.5;" x1="449.625" x2="449.625" y1="50.042" y2="1251.8545"/><line style="stroke:#000000;stroke-width:1.5;" x1="956.6543" x2="956.6543" y1="50.042" y2="1251.8545"/><line style="stroke:#181818;stroke-width:1;" x1="276.7915" x2="276.7915" y1="95.9951" y2="115.9951"/><polygon fill="#181818" points="272.7915,105.9951,276.7915,115.9951,280.7915,105.9951,276.7915,109.9951" style="stroke:#181818;stroke-width:1;"/><line style="stroke:#181818;stroke-width:1;" x1="276.7915" x2="276.7915" y1="149.9639" y2="169.9639"/><polygon fill="#181818" points="272.7915,159.9639,276.7915,169.9639,280.7915,159.9639,276.7915,163.9639" style="stroke:#181818;stroke-width:1;"/><line style="stroke:#181818;stroke-width:1;" x1="87.127" x2="87.127" y1="379.8701" y2="399.8701"/><polygon fill="#181818" points="83.127,389.8701,87.127,399.8701,91.127,389.8701,87.127,393.8701" style="stroke:#181818;stroke-width:1;"/><line style="stroke:#181818;stroke-width:1;" x1="239.2227" x2="239.2227" y1="379.8701" y2="399.8701"/><polygon fill="#181818" points="235.2227,389.8701,239.2227,399.8701,243.2227,389.8701,239.2227,393.8701" style="stroke:#181818;stroke-width:1;"/><line style="stroke:#181818;stroke-width:1;" x1="239.2227" x2="239.2227" y1="433.8389" y2="453.8389"/><polygon fill="#181818" points="235.2227,443.8389,239.2227,453.8389,243.2227,443.8389,239.2227,447.8389" style="stroke:#181818;stroke-width:1;"/><line style="stroke:#181818;stroke-width:1;" x1="121.5935" x2="87.127" y1="323.9014" y2="323.9014"/><line style="stroke:#181818;stroke-width:1;" x1="87.127" x2="87.127" y1="323.9014" y2="345.9014"/><polygon fill="#181818" points="83.127,335.9014,87.127,345.9014,91.127,335.9014,87.127,339.9014" style="stroke:#181818;stroke-width:1;"/><line style="stroke:#181818;stroke-width:1;" x1="204.7561" x2="239.2227" y1="323.9014" y2="323.9014"/><line style="stroke:#181818;stroke-width:1;" x1="239.2227" x2="239.2227" y1="323.9014" y2="345.9014"/><polygon fill="#181818" points="235.2227,335.9014,239.2227,345.9014,243.2227,335.9014,239.2227,339.9014" style="stroke:#181818;stroke-width:1;"/><line style="stroke:#181818;stroke-width:1;" x1="87.127" x2="87.127" y1="433.8389" y2="505.8076"/><line style="stroke:#181818;stroke-width:1;" x1="87.127" x2="151.1748" y1="505.8076" y2="505.8076"/><polygon fill="#181818" points="141.1748,501.8076,151.1748,505.8076,141.1748,509.8076,145.1748,505.8076" style="stroke:#181818;stroke-width:1;"/><line style="stroke:#181818;stroke-width:1;" x1="239.2227" x2="239.2227" y1="487.8076" y2="505.8076"/><line style="stroke:#181818;stroke-width:1;" x1="239.2227" x2="175.1748" y1="505.8076" y2="505.8076"/><polygon fill="#181818" points="185.1748,501.8076,175.1748,505.8076,185.1748,509.8076,181.1748,505.8076" style="stroke:#181818;stroke-width:1;"/><line style="stroke:#181818;stroke-width:1;" x1="163.1748" x2="163.1748" y1="291.9014" y2="311.9014"/><polygon fill="#181818" points="159.1748,301.9014,163.1748,311.9014,167.1748,301.9014,163.1748,305.9014" style="stroke:#181818;stroke-width:1;"/><line style="stroke:#181818;stroke-width:1;" x1="390.4082" x2="390.4082" y1="291.9014" y2="311.9014"/><polygon fill="#181818" points="386.4082,301.9014,390.4082,311.9014,394.4082,301.9014,390.4082,305.9014" style="stroke:#181818;stroke-width:1;"/><line style="stroke:#181818;stroke-width:1;" x1="202.0947" x2="163.1748" y1="235.9326" y2="235.9326"/><line style="stroke:#181818;stroke-width:1;" x1="163.1748" x2="163.1748" y1="235.9326" y2="257.9326"/><polygon fill="#181818" points="159.1748,247.9326,163.1748,257.9326,167.1748,247.9326,163.1748,251.9326" style="stroke:#181818;stroke-width:1;"/><line style="stroke:#181818;stroke-width:1;" x1="351.4883" x2="390.4082" y1="235.9326" y2="235.9326"/><line style="stroke:#181818;stroke-width:1;" x1="390.4082" x2="390.4082" y1="235.9326" y2="257.9326"/><polygon fill="#181818" points="386.4082,247.9326,390.4082,257.9326,394.4082,247.9326,390.4082,251.9326" style="stroke:#181818;stroke-width:1;"/><line style="stroke:#181818;stroke-width:1;" x1="163.1748" x2="163.1748" y1="517.8076" y2="535.8076"/><line style="stroke:#181818;stroke-width:1;" x1="163.1748" x2="264.7915" y1="535.8076" y2="535.8076"/><polygon fill="#181818" points="254.7915,531.8076,264.7915,535.8076,254.7915,539.8076,258.7915,535.8076" style="stroke:#181818;stroke-width:1;"/><line style="stroke:#181818;stroke-width:1;" x1="390.4082" x2="390.4082" y1="345.8701" y2="535.8076"/><line style="stroke:#181818;stroke-width:1;" x1="390.4082" x2="288.7915" y1="535.8076" y2="535.8076"/><polygon fill="#181818" points="298.7915,531.8076,288.7915,535.8076,298.7915,539.8076,294.7915,535.8076" style="stroke:#181818;stroke-width:1;"/><line style="stroke:#181818;stroke-width:1;" x1="276.7915" x2="276.7915" y1="203.9326" y2="223.9326"/><polygon fill="#181818" points="272.7915,213.9326,276.7915,223.9326,280.7915,213.9326,276.7915,217.9326" style="stroke:#181818;stroke-width:1;"/><line style="stroke:#181818;stroke-width:1;" x1="514.5684" x2="514.5684" y1="777.7139" y2="797.7139"/><polygon fill="#181818" points="510.5684,787.7139,514.5684,797.7139,518.5684,787.7139,514.5684,791.7139" style="stroke:#181818;stroke-width:1;"/><line style="stroke:#181818;stroke-width:1;" x1="684.4502" x2="684.4502" y1="777.7139" y2="797.7139"/><polygon fill="#181818" points="680.4502,787.7139,684.4502,797.7139,688.4502,787.7139,684.4502,791.7139" style="stroke:#181818;stroke-width:1;"/><line style="stroke:#181818;stroke-width:1;" x1="562.4504" x2="514.5684" y1="721.7451" y2="721.7451"/><line style="stroke:#181818;stroke-width:1;" x1="514.5684" x2="514.5684" y1="721.7451" y2="743.7451"/><polygon fill="#181818" points="510.5684,733.7451,514.5684,743.7451,518.5684,733.7451,514.5684,737.7451" style="stroke:#181818;stroke-width:1;"/><line style="stroke:#181818;stroke-width:1;" x1="636.5681" x2="684.4502" y1="721.7451" y2="721.7451"/><line style="stroke:#181818;stroke-width:1;" x1="684.4502" x2="684.4502" y1="721.7451" y2="743.7451"/><polygon fill="#181818" points="680.4502,733.7451,684.4502,743.7451,688.4502,733.7451,684.4502,737.7451" style="stroke:#181818;stroke-width:1;"/><line style="stroke:#181818;stroke-width:1;" x1="514.5684" x2="514.5684" y1="831.6826" y2="849.6826"/><line style="stroke:#181818;stroke-width:1;" x1="514.5684" x2="587.5093" y1="849.6826" y2="849.6826"/><polygon fill="#181818" points="577.5093,845.6826,587.5093,849.6826,577.5093,853.6826,581.5093,849.6826" style="stroke:#181818;stroke-width:1;"/><line style="stroke:#181818;stroke-width:1;" x1="684.4502" x2="684.4502" y1="831.6826" y2="849.6826"/><line style="stroke:#181818;stroke-width:1;" x1="684.4502" x2="611.5093" y1="849.6826" y2="849.6826"/><polygon fill="#181818" points="621.5093,845.6826,611.5093,849.6826,621.5093,853.6826,617.5093,849.6826" style="stroke:#181818;stroke-width:1;"/><line style="stroke:#181818;stroke-width:1;" x1="599.5093" x2="599.5093" y1="689.7451" y2="709.7451"/><polygon fill="#181818" points="595.5093,699.7451,599.5093,709.7451,603.5093,699.7451,599.5093,703.7451" style="stroke:#181818;stroke-width:1;"/><line style="stroke:#181818;stroke-width:1;" x1="879.0215" x2="879.0215" y1="689.7451" y2="709.7451"/><polygon fill="#181818" points="875.0215,699.7451,879.0215,709.7451,883.0215,699.7451,879.0215,703.7451" style="stroke:#181818;stroke-width:1;"/><line style="stroke:#181818;stroke-width:1;" x1="695.1489" x2="599.5093" y1="633.7764" y2="633.7764"/><line style="stroke:#181818;stroke-width:1;" x1="599.5093" x2="599.5093" y1="633.7764" y2="655.7764"/><polygon fill="#181818" points="595.5093,645.7764,599.5093,655.7764,603.5093,645.7764,599.5093,649.7764" style="stroke:#181818;stroke-width:1;"/><line style="stroke:#181818;stroke-width:1;" x1="783.3818" x2="879.0215" y1="633.7764" y2="633.7764"/><line style="stroke:#181818;stroke-width:1;" x1="879.0215" x2="879.0215" y1="633.7764" y2="655.7764"/><polygon fill="#181818" points="875.0215,645.7764,879.0215,655.7764,883.0215,645.7764,879.0215,649.7764" style="stroke:#181818;stroke-width:1;"/><line style="stroke:#181818;stroke-width:1;" x1="599.5093" x2="599.5093" y1="861.6826" y2="879.6826"/><line style="stroke:#181818;stroke-width:1;" x1="599.5093" x2="727.2654" y1="879.6826" y2="879.6826"/><polygon fill="#181818" points="717.2654,875.6826,727.2654,879.6826,717.2654,883.6826,721.2654,879.6826" style="stroke:#181818;stroke-width:1;"/><line style="stroke:#181818;stroke-width:1;" x1="879.0215" x2="879.0215" y1="743.7139" y2="879.6826"/><line style="stroke:#181818;stroke-width:1;" x1="879.0215" x2="751.2654" y1="879.6826" y2="879.6826"/><polygon fill="#181818" points="761.2654,875.6826,751.2654,879.6826,761.2654,883.6826,757.2654,879.6826" style="stroke:#181818;stroke-width:1;"/><line style="stroke:#181818;stroke-width:1;" x1="739.2654" x2="739.2654" y1="601.7764" y2="621.7764"/><polygon fill="#181818" points="735.2654,611.7764,739.2654,621.7764,743.2654,611.7764,739.2654,615.7764" style="stroke:#181818;stroke-width:1;"/><line style="stroke:#181818;stroke-width:1;" x1="667.429" x2="667.429" y1="1005.9482" y2="1025.9482"/><polygon fill="#181818" points="663.429,1015.9482,667.429,1025.9482,671.429,1015.9482,667.429,1019.9482" style="stroke:#181818;stroke-width:1;"/><line style="stroke:#181818;stroke-width:1;" x1="667.429" x2="667.429" y1="1059.917" y2="1079.917"/><polygon fill="#181818" points="663.429,1069.917,667.429,1079.917,671.429,1069.917,667.429,1073.917" style="stroke:#181818;stroke-width:1;"/><line style="stroke:#181818;stroke-width:1;" x1="811.1018" x2="811.1018" y1="1005.9482" y2="1025.9482"/><polygon fill="#181818" points="807.1018,1015.9482,811.1018,1025.9482,815.1018,1015.9482,811.1018,1019.9482" style="stroke:#181818;stroke-width:1;"/><line style="stroke:#181818;stroke-width:1;" x1="811.1018" x2="811.1018" y1="1059.917" y2="1079.917"/><polygon fill="#181818" points="807.1018,1069.917,811.1018,1079.917,815.1018,1069.917,811.1018,1073.917" style="stroke:#181818;stroke-width:1;"/><line style="stroke:#181818;stroke-width:1;" x1="811.1018" x2="811.1018" y1="1113.8857" y2="1133.8857"/><polygon fill="#181818" points="807.1018,1123.8857,811.1018,1133.8857,815.1018,1123.8857,811.1018,1127.8857" style="stroke:#181818;stroke-width:1;"/><line style="stroke:#181818;stroke-width:1;" x1="709.3608" x2="667.429" y1="949.9795" y2="949.9795"/><line style="stroke:#181818;stroke-width:1;" x1="667.429" x2="667.429" y1="949.9795" y2="971.9795"/><polygon fill="#181818" points="663.429,961.9795,667.429,971.9795,671.429,961.9795,667.429,965.9795" style="stroke:#181818;stroke-width:1;"/><line style="stroke:#181818;stroke-width:1;" x1="769.1699" x2="811.1018" y1="949.9795" y2="949.9795"/><line style="stroke:#181818;stroke-width:1;" x1="811.1018" x2="811.1018" y1="949.9795" y2="971.9795"/><polygon fill="#181818" points="807.1018,961.9795,811.1018,971.9795,815.1018,961.9795,811.1018,965.9795" style="stroke:#181818;stroke-width:1;"/><line style="stroke:#181818;stroke-width:1;" x1="667.429" x2="667.429" y1="1113.8857" y2="1185.8545"/><line style="stroke:#181818;stroke-width:1;" x1="667.429" x2="727.2654" y1="1185.8545" y2="1185.8545"/><polygon fill="#181818" points="717.2654,1181.8545,727.2654,1185.8545,717.2654,1189.8545,721.2654,1185.8545" style="stroke:#181818;stroke-width:1;"/><line style="stroke:#181818;stroke-width:1;" x1="811.1018" x2="811.1018" y1="1167.8545" y2="1185.8545"/><line style="stroke:#181818;stroke-width:1;" x1="811.1018" x2="751.2654" y1="1185.8545" y2="1185.8545"/><polygon fill="#181818" points="761.2654,1181.8545,751.2654,1185.8545,761.2654,1189.8545,757.2654,1185.8545" style="stroke:#181818;stroke-width:1;"/><line style="stroke:#181818;stroke-width:1;" x1="739.2654" x2="739.2654" y1="891.6826" y2="937.9795"/><polygon fill="#181818" points="735.2654,927.9795,739.2654,937.9795,743.2654,927.9795,739.2654,931.9795" style="stroke:#181818;stroke-width:1;"/><line style="stroke:#181818;stroke-width:1;" x1="739.2654" x2="739.2654" y1="1197.8545" y2="1229.8545"/><polygon fill="#181818" points="735.2654,1219.8545,739.2654,1229.8545,743.2654,1219.8545,739.2654,1223.8545" style="stroke:#181818;stroke-width:1;"/><line style="stroke:#181818;stroke-width:1;" x1="276.7915" x2="276.7915" y1="547.8076" y2="552.8076"/><line style="stroke:#181818;stroke-width:1;" x1="276.7915" x2="739.2654" y1="552.8076" y2="552.8076"/><line style="stroke:#181818;stroke-width:1;" x1="739.2654" x2="739.2654" y1="552.8076" y2="567.8076"/><polygon fill="#181818" points="735.2654,557.8076,739.2654,567.8076,743.2654,557.8076,739.2654,561.8076" style="stroke:#181818;stroke-width:1;"/><text fill="#000000" font-family="sans-serif" font-size="18" lengthAdjust="spacing" textLength="212.5547" x="126.0352" y="66.75">Auth Context (useAuth)</text><text fill="#000000" font-family="sans-serif" font-size="18" lengthAdjust="spacing" textLength="224.9824" x="590.6484" y="66.75">Data Context (useTodos)</text><!--SRC=[TLHDZzem5BpxLppjeKbGrQLLJo1K8LegL9PLORUhFQtSv2LOk7PalvH-qFzUsmdWR6d49HxFFC-C0mcI27EZ5Q4gO4ES45x0KbSYXxdKUyOEquQsCFCxVX2aZKM_a1sO9Mw8ZHPAaE1I_4Bmm9YDPblCTp0OI9rpkI5jU8LfmXtuv3ZKs2GR3CQCYHBIJLY0oGGIgQiAYoUXadSPq1OLf8zeCmOmcd4fdI2lnQjlc0OsWFjvXJNQMYkB9zARuH1kFtcUOswG7F7Uee7td7ZBzEl1wSHXop1seLe8fKL8tmvVmpLyC4QRJcScaHlecHYV9mJz2QX6od_qFpPegHDNXIXPEsAbtOGROQrGLV1uGUUIIgl13jvDhvKxNMZhQeaB2MjfxV9_2QMGX2ORXzX3fq7z5DinXwFXS-GLKffS4xUxhZc_8PJNv3bQ-xokzkcYdqdT5Bti0tYZYzPOm8zG5CqAQQ_DBYuX4EVkN5-vkr-aGtdkYa5tnouF2Cb1UbkMKYWydJ_k8cpfVA-H5_yJVYOQrL6xJy6bhXLSXGwdkNyPmRGeuCu5TmM_JwbvaLDamNvaBugzrfRIh6TgeRwxOWj_AJutQ7v6q1fBf7mBIs4f3ZFoTlQtt4JCQLtxRt-5-t3K27ammatgRRwlm_Gl0lTnZd-O-plGzLy0]--></g></svg>