<svg xmlns="http://www.w3.org/2000/svg" xmlns:xlink="http://www.w3.org/1999/xlink" contentStyleType="text/css" data-diagram-type="DESCRIPTION" height="619px" preserveAspectRatio="none" style="width:1597px;height:619px;background:#FFFFFF;" version="1.1" viewBox="0 0 1597 619" width="1597px" zoomAndPan="magnify"><title>Frontend Component Hierarchy</title><defs/><g><g class="title" data-source-line="1"><text fill="#000000" font-family="sans-serif" font-size="14" font-weight="bold" lengthAdjust="spacing" textLength="248.876" x="667.062" y="22.9951">Frontend Component Hierarchy</text></g><!--cluster Core Application--><g class="cluster" data-qualified-name="Core Application" data-source-line="7" id="ent0002"><path d="M973.5,43.2969 L1104.9639,43.2969 A3.75,3.75 0 0 1 1107.4639,45.7969 L1114.4639,65.5938 L1231.5,65.5938 A2.5,2.5 0 0 1 1234,68.0938 L1234,224.3869 A2.5,2.5 0 0 1 1231.5,226.8869 L973.5,226.8869 A2.5,2.5 0 0 1 971,224.3869 L971,45.7969 A2.5,2.5 0 0 1 973.5,43.2969" fill="none" style="stroke:#000000;stroke-width:1.5;"/><line style="stroke:#000000;stroke-width:1.5;" x1="971" x2="1114.4639" y1="65.5938" y2="65.5938"/><text fill="#000000" font-family="sans-serif" font-size="14" font-weight="bold" lengthAdjust="spacing" textLength="130.4639" x="975" y="58.292">Core Application</text></g><!--cluster Global Layout--><g class="cluster" data-qualified-name="Global Layout" data-source-line="13" id="ent0006"><path d="M1389.5,501.4769 L1499.3213,501.4769 A3.75,3.75 0 0 1 1501.8213,503.9769 L1508.8213,523.7738 L1587.5,523.7738 A2.5,2.5 0 0 1 1590,526.2738 L1590,586.2769 A2.5,2.5 0 0 1 1587.5,588.7769 L1389.5,588.7769 A2.5,2.5 0 0 1 1387,586.2769 L1387,503.9769 A2.5,2.5 0 0 1 1389.5,501.4769" fill="none" style="stroke:#000000;stroke-width:1.5;"/><line style="stroke:#000000;stroke-width:1.5;" x1="1387" x2="1508.8213" y1="523.7738" y2="523.7738"/><text fill="#000000" font-family="sans-serif" font-size="14" font-weight="bold" lengthAdjust="spacing" textLength="108.8213" x="1391" y="516.472">Global Layout</text></g><!--cluster Pages (Routing Targets)--><g class="cluster" data-qualified-name="Pages .Routing Targets." data-source-line="18" id="ent0009"><path d="M847.5,250.8869 L1040.8906,250.8869 A3.75,3.75 0 0 1 1043.3906,253.3869 L1050.3906,273.1838 L1266.5,273.1838 A2.5,2.5 0 0 1 1269,275.6838 L1269,431.9769 A2.5,2.5 0 0 1 1266.5,434.4769 L847.5,434.4769 A2.5,2.5 0 0 1 845,431.9769 L845,253.3869 A2.5,2.5 0 0 1 847.5,250.8869" fill="none" style="stroke:#000000;stroke-width:1.5;"/><line style="stroke:#000000;stroke-width:1.5;" x1="845" x2="1050.3906" y1="273.1838" y2="273.1838"/><text fill="#000000" font-family="sans-serif" font-size="14" font-weight="bold" lengthAdjust="spacing" textLength="192.3906" x="849" y="265.882">Pages (Routing Targets)</text></g><!--cluster Todo Management Features--><g class="cluster" data-qualified-name="Todo Management Features" data-source-line="25" id="ent0014"><path d="M8.5,458.4769 L231.0049,458.4769 A3.75,3.75 0 0 1 233.5049,460.9769 L240.5049,480.7738 L1360.5,480.7738 A2.5,2.5 0 0 1 1363,483.2738 L1363,610.2769 A2.5,2.5 0 0 1 1360.5,612.7769 L8.5,612.7769 A2.5,2.5 0 0 1 6,610.2769 L6,460.9769 A2.5,2.5 0 0 1 8.5,458.4769" fill="none" style="stroke:#000000;stroke-width:1.5;"/><line style="stroke:#000000;stroke-width:1.5;" x1="6" x2="240.5049" y1="480.7738" y2="480.7738"/><text fill="#000000" font-family="sans-serif" font-size="14" font-weight="bold" lengthAdjust="spacing" textLength="221.5049" x="10" y="473.472">Todo Management Features</text></g><!--cluster Modals--><g class="cluster" data-qualified-name="Todo Management Features.Modals" data-source-line="34" id="ent0021"><path d="M32.5,501.4769 L89.6504,501.4769 A3.75,3.75 0 0 1 92.1504,503.9769 L99.1504,523.7738 L554.5,523.7738 A2.5,2.5 0 0 1 557,526.2738 L557,586.2769 A2.5,2.5 0 0 1 554.5,588.7769 L32.5,588.7769 A2.5,2.5 0 0 1 30,586.2769 L30,503.9769 A2.5,2.5 0 0 1 32.5,501.4769" fill="none" style="stroke:#000000;stroke-width:1.5;"/><line style="stroke:#000000;stroke-width:1.5;" x1="30" x2="99.1504" y1="523.7738" y2="523.7738"/><text fill="#000000" font-family="sans-serif" font-size="14" font-weight="bold" lengthAdjust="spacing" textLength="56.1504" x="34" y="516.472">Modals</text></g><!--entity App--><g class="entity" data-qualified-name="Core Application.App" data-source-line="8" id="ent0003"><rect fill="#F1F1F1" height="36.2969" rx="2.5" ry="2.5" style="stroke:#181818;stroke-width:0.5;" width="47.3506" x="1077.32" y="78.2969"/><text fill="#000000" font-family="sans-serif" font-size="14" lengthAdjust="spacing" textLength="27.3506" x="1087.32" y="101.292">App</text></g><!--entity Routes--><g class="entity" data-qualified-name="Core Application.Routes" data-source-line="9" id="ent0004"><rect fill="#F1F1F1" height="36.2969" rx="2.5" ry="2.5" style="stroke:#181818;stroke-width:0.5;" width="95.9131" x="987.04" y="174.5869"/><text fill="#000000" font-family="sans-serif" font-size="14" lengthAdjust="spacing" textLength="75.9131" x="997.04" y="197.582">AppRoutes</text></g><!--entity Toaster--><g class="entity" data-qualified-name="Core Application.Toaster" data-source-line="10" id="ent0005"><rect fill="#F1F1F1" height="36.2969" rx="2.5" ry="2.5" style="stroke:#181818;stroke-width:0.5;" width="100.1992" x="1117.9" y="174.5869"/><text fill="#000000" font-family="sans-serif" font-size="14" lengthAdjust="spacing" textLength="80.1992" x="1127.9" y="197.582">AppToaster</text></g><!--entity Header--><g class="entity" data-qualified-name="Global Layout.Header" data-source-line="14" id="ent0007"><rect fill="#F1F1F1" height="36.2969" rx="2.5" ry="2.5" style="stroke:#181818;stroke-width:0.5;" width="70.9756" x="1402.51" y="536.4769"/><text fill="#000000" font-family="sans-serif" font-size="14" lengthAdjust="spacing" textLength="50.9756" x="1412.51" y="559.472">Header</text></g><!--entity Footer--><g class="entity" data-qualified-name="Global Layout.Footer" data-source-line="15" id="ent0008"><rect fill="#F1F1F1" height="36.2969" rx="2.5" ry="2.5" style="stroke:#181818;stroke-width:0.5;" width="65.042" x="1508.48" y="536.4769"/><text fill="#000000" font-family="sans-serif" font-size="14" lengthAdjust="spacing" textLength="45.042" x="1518.48" y="559.472">Footer</text></g><!--entity TodoPage--><g class="entity" data-qualified-name="Pages .Routing Targets..TodoPage" data-source-line="19" id="ent0010"><rect fill="#F1F1F1" height="36.2969" rx="2.5" ry="2.5" style="stroke:#181818;stroke-width:0.5;" width="89.0908" x="886.45" y="382.1869"/><text fill="#000000" font-family="sans-serif" font-size="14" lengthAdjust="spacing" textLength="69.0908" x="896.45" y="405.182">TodoPage</text></g><!--entity AuthTodo--><g class="entity" data-qualified-name="Pages .Routing Targets..AuthTodo" data-source-line="20" id="ent0011"><rect fill="#F1F1F1" height="36.2969" rx="2.5" ry="2.5" style="stroke:#181818;stroke-width:0.5;" width="188.0342" x="860.98" y="285.8869"/><text fill="#000000" font-family="sans-serif" font-size="14" lengthAdjust="spacing" textLength="168.0342" x="870.98" y="308.882">AuthenticatedTodoPage</text></g><!--entity SignIn--><g class="entity" data-qualified-name="Pages .Routing Targets..SignIn" data-source-line="21" id="ent0012"><rect fill="#F1F1F1" height="36.2969" rx="2.5" ry="2.5" style="stroke:#181818;stroke-width:0.5;" width="63.5381" x="1084.23" y="285.8869"/><text fill="#000000" font-family="sans-serif" font-size="14" lengthAdjust="spacing" textLength="43.5381" x="1094.23" y="308.882">SignIn</text></g><!--entity SignUp--><g class="entity" data-qualified-name="Pages .Routing Targets..SignUp" data-source-line="22" id="ent0013"><rect fill="#F1F1F1" height="36.2969" rx="2.5" ry="2.5" style="stroke:#181818;stroke-width:0.5;" width="69.6699" x="1183.17" y="285.8869"/><text fill="#000000" font-family="sans-serif" font-size="14" lengthAdjust="spacing" textLength="49.6699" x="1193.17" y="308.882">SignUp</text></g><!--entity List--><g class="entity" data-qualified-name="Todo Management Features.List" data-source-line="26" id="ent0015"><rect fill="#F1F1F1" height="36.2969" rx="2.5" ry="2.5" style="stroke:#181818;stroke-width:0.5;" width="79.042" x="575.48" y="536.4769"/><text fill="#000000" font-family="sans-serif" font-size="14" lengthAdjust="spacing" textLength="59.042" x="585.48" y="559.472">TodoList</text></g><!--entity Item--><g class="entity" data-qualified-name="Todo Management Features.Item" data-source-line="27" id="ent0016"><rect fill="#F1F1F1" height="36.2969" rx="2.5" ry="2.5" style="stroke:#181818;stroke-width:0.5;" width="86.4385" x="689.78" y="536.4769"/><text fill="#000000" font-family="sans-serif" font-size="14" lengthAdjust="spacing" textLength="66.4385" x="699.78" y="559.472">TodoItem</text></g><!--entity Form--><g class="entity" data-qualified-name="Todo Management Features.Form" data-source-line="28" id="ent0017"><rect fill="#F1F1F1" height="36.2969" rx="2.5" ry="2.5" style="stroke:#181818;stroke-width:0.5;" width="90.5811" x="811.71" y="536.4769"/><text fill="#000000" font-family="sans-serif" font-size="14" lengthAdjust="spacing" textLength="70.5811" x="821.71" y="559.472">TodoForm</text></g><!--entity MgmtBar--><g class="entity" data-qualified-name="Todo Management Features.MgmtBar" data-source-line="30" id="ent0018"><rect fill="#F1F1F1" height="36.2969" rx="2.5" ry="2.5" style="stroke:#181818;stroke-width:0.5;" width="136.1631" x="936.92" y="536.4769"/><text fill="#000000" font-family="sans-serif" font-size="14" lengthAdjust="spacing" textLength="116.1631" x="946.92" y="559.472">ManagementBar</text></g><!--entity Sidebar--><g class="entity" data-qualified-name="Todo Management Features.Sidebar" data-source-line="31" id="ent0019"><rect fill="#F1F1F1" height="36.2969" rx="2.5" ry="2.5" style="stroke:#181818;stroke-width:0.5;" width="109.1885" x="1108.41" y="536.4769"/><text fill="#000000" font-family="sans-serif" font-size="14" lengthAdjust="spacing" textLength="89.1885" x="1118.41" y="559.472">FilterSidebar</text></g><!--entity Pager--><g class="entity" data-qualified-name="Todo Management Features.Pager" data-source-line="32" id="ent0020"><rect fill="#F1F1F1" height="36.2969" rx="2.5" ry="2.5" style="stroke:#181818;stroke-width:0.5;" width="94.0674" x="1252.97" y="536.4769"/><text fill="#000000" font-family="sans-serif" font-size="14" lengthAdjust="spacing" textLength="74.0674" x="1262.97" y="559.472">Pagination</text></g><!--entity DelModal--><g class="entity" data-qualified-name="Todo Management Features.Modals.DelModal" data-source-line="35" id="ent0022"><rect fill="#F1F1F1" height="36.2969" rx="2.5" ry="2.5" style="stroke:#181818;stroke-width:0.5;" width="140.5313" x="45.73" y="536.4769"/><text fill="#000000" font-family="sans-serif" font-size="14" lengthAdjust="spacing" textLength="120.5313" x="55.73" y="559.472">DeleteTaskModal</text></g><!--entity BulkDelModal--><g class="entity" data-qualified-name="Todo Management Features.Modals.BulkDelModal" data-source-line="36" id="ent0023"><rect fill="#F1F1F1" height="36.2969" rx="2.5" ry="2.5" style="stroke:#181818;stroke-width:0.5;" width="138.4736" x="221.76" y="536.4769"/><text fill="#000000" font-family="sans-serif" font-size="14" lengthAdjust="spacing" textLength="118.4736" x="231.76" y="559.472">BulkDeleteModal</text></g><!--entity UpdModal--><g class="entity" data-qualified-name="Todo Management Features.Modals.UpdModal" data-source-line="37" id="ent0024"><rect fill="#F1F1F1" height="36.2969" rx="2.5" ry="2.5" style="stroke:#181818;stroke-width:0.5;" width="145.2344" x="395.38" y="536.4769"/><text fill="#000000" font-family="sans-serif" font-size="14" lengthAdjust="spacing" textLength="125.2344" x="405.38" y="559.472">UpdateTaskModal</text></g><!--link App to Toaster--><g class="link" data-entity-1="ent0003" data-entity-2="ent0005" data-link-type="dependency" data-source-line="42" id="lnk25"><path d="M1106.68,114.9169 C1106.68,144.6369 1106.68,199.7769 1106.68,199.7769 C1106.68,199.7769 1105.13,199.7769 1111.64,199.7769" fill="none" id="App-to-Toaster" style="stroke:#181818;stroke-width:1;"/><polygon fill="#181818" points="1117.64,199.7769,1108.64,195.7769,1112.64,199.7769,1108.64,203.7769,1117.64,199.7769" style="stroke:#181818;stroke-width:1;"/></g><!--link App to Routes--><g class="link" data-entity-1="ent0003" data-entity-2="ent0004" data-link-type="dependency" data-source-line="43" id="lnk26"><path d="M1095.45,114.7169 C1095.45,141.1169 1095.45,186.7769 1095.45,186.7769 C1095.45,186.7769 1096.4,186.7769 1089.22,186.7769" fill="none" id="App-to-Routes" style="stroke:#181818;stroke-width:1;"/><polygon fill="#181818" points="1083.22,186.7769,1092.22,190.7769,1088.22,186.7769,1092.22,182.7769,1083.22,186.7769" style="stroke:#181818;stroke-width:1;"/></g><!--link Routes to SignIn--><g class="link" data-entity-1="ent0004" data-entity-2="ent0012" data-link-type="dependency" data-source-line="45" id="lnk27"><path d="M1079.66,211.2369 C1079.66,243.0569 1079.66,304.7769 1079.66,304.7769 C1079.66,304.7769 1075.28,304.7769 1077.83,304.7769" fill="none" id="Routes-to-SignIn" style="stroke:#181818;stroke-width:1;"/><polygon fill="#181818" points="1083.83,304.7769,1074.83,300.7769,1078.83,304.7769,1074.83,308.7769,1083.83,304.7769" style="stroke:#181818;stroke-width:1;"/><text fill="#000000" font-family="sans-serif" font-size="13" lengthAdjust="spacing" textLength="43.1069" x="1035.66" y="256.1638">/signin</text></g><!--link Routes to SignUp--><g class="link" data-entity-1="ent0004" data-entity-2="ent0013" data-link-type="dependency" data-source-line="46" id="lnk28"><path d="M1076.37,211.0869 C1076.37,227.4269 1076.37,248.7769 1076.37,248.7769 C1076.37,248.7769 1200.63,248.7769 1200.63,248.7769 C1200.63,248.7769 1200.63,263.5569 1200.63,279.6369" fill="none" id="Routes-to-SignUp" style="stroke:#181818;stroke-width:1;"/><polygon fill="#181818" points="1200.63,285.6369,1204.63,276.6369,1200.63,280.6369,1196.63,276.6369,1200.63,285.6369" style="stroke:#181818;stroke-width:1;"/><text fill="#000000" font-family="sans-serif" font-size="13" lengthAdjust="spacing" textLength="47.7471" x="1090.09" y="244.8438">/signup</text></g><!--link Routes to TodoPage--><g class="link" data-entity-1="ent0004" data-entity-2="ent0010" data-link-type="dependency" data-source-line="47" id="lnk29"><path d="M1061.05,211.1769 C1061.05,259.9869 1061.05,388.7769 1061.05,388.7769 C1061.05,388.7769 1019.37,388.7769 981.76,388.7769" fill="none" id="Routes-to-TodoPage" style="stroke:#181818;stroke-width:1;"/><polygon fill="#181818" points="975.76,388.7769,984.76,392.7769,980.76,388.7769,984.76,384.7769,975.76,388.7769" style="stroke:#181818;stroke-width:1;"/><text fill="#000000" font-family="sans-serif" font-size="13" lengthAdjust="spacing" textLength="56.8369" x="1004.05" y="338.6938">/ (Guest)</text></g><!--link Routes to AuthTodo--><g class="link" data-entity-1="ent0004" data-entity-2="ent0011" data-link-type="dependency" data-source-line="48" id="lnk30"><path d="M1018.03,211.3669 C1018.03,232.0369 1018.03,259.1769 1018.03,279.7169" fill="none" id="Routes-to-AuthTodo" style="stroke:#181818;stroke-width:1;"/><polygon fill="#181818" points="1018.03,285.7169,1022.03,276.7169,1018.03,280.7169,1014.03,276.7169,1018.03,285.7169" style="stroke:#181818;stroke-width:1;"/><text fill="#000000" font-family="sans-serif" font-size="13" lengthAdjust="spacing" textLength="73.9819" x="944.03" y="244.6038">/:username</text></g><!--link AuthTodo to TodoPage--><g class="link" data-entity-1="ent0011" data-entity-2="ent0010" data-link-type="dependency" data-source-line="49" id="lnk31"><path d="M931,322.5969 C931,339.6569 931,358.7869 931,375.8169" fill="none" id="AuthTodo-to-TodoPage" style="stroke:#181818;stroke-width:1;"/><polygon fill="#181818" points="931,381.8169,935,372.8169,931,376.8169,927,372.8169,931,381.8169" style="stroke:#181818;stroke-width:1;"/></g><!--link TodoPage to Header--><g class="link" data-entity-1="ent0010" data-entity-2="ent0007" data-link-type="dependency" data-source-line="52" id="lnk32"><path d="M975.99,400.7769 C1100.07,400.7769 1438,400.7769 1438,400.7769 C1438,400.7769 1438,489.1469 1438,530.0669" fill="none" id="TodoPage-to-Header" style="stroke:#181818;stroke-width:1;stroke-dasharray:7,7;"/><polygon fill="#181818" points="1438,536.0669,1442,527.0669,1438,531.0669,1434,527.0669,1438,536.0669" style="stroke:#181818;stroke-width:1;"/><text fill="#000000" font-family="sans-serif" font-size="13" lengthAdjust="spacing" textLength="55.0278" x="1218.64" y="396.8438">contains</text></g><!--link TodoPage to Footer--><g class="link" data-entity-1="ent0010" data-entity-2="ent0008" data-link-type="dependency" data-source-line="53" id="lnk33"><path d="M975.85,394.7769 C1116.73,394.7769 1541,394.7769 1541,394.7769 C1541,394.7769 1541,488.3069 1541,530.2869" fill="none" id="TodoPage-to-Footer" style="stroke:#181818;stroke-width:1;stroke-dasharray:7,7;"/><polygon fill="#181818" points="1541,536.2869,1545,527.2869,1541,531.2869,1537,527.2869,1541,536.2869" style="stroke:#181818;stroke-width:1;"/><text fill="#000000" font-family="sans-serif" font-size="13" lengthAdjust="spacing" textLength="55.0278" x="1330.18" y="390.8438">contains</text></g><!--link TodoPage to Sidebar--><g class="link" data-entity-1="ent0010" data-entity-2="ent0019" data-link-type="dependency" data-source-line="54" id="lnk34"><path d="M975.72,412.7769 C1033.87,412.7769 1128.09,412.7769 1128.09,412.7769 C1128.09,412.7769 1128.09,491.6369 1128.09,530.0869" fill="none" id="TodoPage-to-Sidebar" style="stroke:#181818;stroke-width:1;"/><polygon fill="#181818" points="1128.09,536.0869,1132.09,527.0869,1128.09,531.0869,1124.09,527.0869,1128.09,536.0869" style="stroke:#181818;stroke-width:1;"/></g><!--link TodoPage to Form--><g class="link" data-entity-1="ent0010" data-entity-2="ent0017" data-link-type="dependency" data-source-line="55" id="lnk35"><path d="M894.37,418.9469 C894.37,448.7569 894.37,500.8769 894.37,530.4269" fill="none" id="TodoPage-to-Form" style="stroke:#181818;stroke-width:1;"/><polygon fill="#181818" points="894.37,536.4269,898.37,527.4269,894.37,531.4269,890.37,527.4269,894.37,536.4269" style="stroke:#181818;stroke-width:1;"/></g><!--link TodoPage to MgmtBar--><g class="link" data-entity-1="ent0010" data-entity-2="ent0018" data-link-type="dependency" data-source-line="56" id="lnk36"><path d="M956.23,418.9469 C956.23,448.7569 956.23,500.8769 956.23,530.4269" fill="none" id="TodoPage-to-MgmtBar" style="stroke:#181818;stroke-width:1;"/><polygon fill="#181818" points="956.23,536.4269,960.23,527.4269,956.23,531.4269,952.23,527.4269,956.23,536.4269" style="stroke:#181818;stroke-width:1;"/></g><!--link TodoPage to List--><g class="link" data-entity-1="ent0010" data-entity-2="ent0015" data-link-type="dependency" data-source-line="57" id="lnk37"><path d="M886.06,411.7769 C798.82,411.7769 615,411.7769 615,411.7769 C615,411.7769 615,491.6669 615,530.2469" fill="none" id="TodoPage-to-List" style="stroke:#181818;stroke-width:1;"/><polygon fill="#181818" points="615,536.2469,619,527.2469,615,531.2469,611,527.2469,615,536.2469" style="stroke:#181818;stroke-width:1;"/></g><!--link TodoPage to Pager--><g class="link" data-entity-1="ent0010" data-entity-2="ent0020" data-link-type="dependency" data-source-line="58" id="lnk38"><path d="M975.88,406.7769 C1074.22,406.7769 1300,406.7769 1300,406.7769 C1300,406.7769 1300,490.5669 1300,530.2069" fill="none" id="TodoPage-to-Pager" style="stroke:#181818;stroke-width:1;"/><polygon fill="#181818" points="1300,536.2069,1304,527.2069,1300,531.2069,1296,527.2069,1300,536.2069" style="stroke:#181818;stroke-width:1;"/></g><!--link TodoPage to DelModal--><g class="link" data-entity-1="ent0010" data-entity-2="ent0022" data-link-type="dependency" data-source-line="61" id="lnk39"><path d="M886.02,389.7769 C715.17,389.7769 116,389.7769 116,389.7769 C116,389.7769 116,486.9269 116,530.0369" fill="none" id="TodoPage-to-DelModal" style="stroke:#181818;stroke-width:1;"/><polygon fill="#181818" points="116,536.0369,120,527.0369,116,531.0369,112,527.0369,116,536.0369" style="stroke:#181818;stroke-width:1;"/></g><!--link TodoPage to BulkDelModal--><g class="link" data-entity-1="ent0010" data-entity-2="ent0023" data-link-type="dependency" data-source-line="62" id="lnk40"><path d="M886,396.7769 C740.32,396.7769 291,396.7769 291,396.7769 C291,396.7769 291,488.5769 291,530.2169" fill="none" id="TodoPage-to-BulkDelModal" style="stroke:#181818;stroke-width:1;"/><polygon fill="#181818" points="291,536.2169,295,527.2169,291,531.2169,287,527.2169,291,536.2169" style="stroke:#181818;stroke-width:1;"/></g><!--link TodoPage to UpdModal--><g class="link" data-entity-1="ent0010" data-entity-2="ent0024" data-link-type="dependency" data-source-line="63" id="lnk41"><path d="M886.18,404.7769 C769.99,404.7769 468,404.7769 468,404.7769 C468,404.7769 468,490.2369 468,530.2569" fill="none" id="TodoPage-to-UpdModal" style="stroke:#181818;stroke-width:1;"/><polygon fill="#181818" points="468,536.2569,472,527.2569,468,531.2569,464,527.2569,468,536.2569" style="stroke:#181818;stroke-width:1;"/></g><!--link List to Item--><g class="link" data-entity-1="ent0015" data-entity-2="ent0016" data-link-type="dependency" data-source-line="65" id="lnk42"><path d="M654.95,554.7769 C666.05,554.7769 672.15,554.7769 683.45,554.7769" fill="none" id="List-to-Item" style="stroke:#181818;stroke-width:1;"/><polygon fill="#181818" points="689.45,554.7769,680.45,550.7769,684.45,554.7769,680.45,558.7769,689.45,554.7769" style="stroke:#181818;stroke-width:1;"/></g><!--SRC=[RLHDJ-Cm4BtxLunwAHpAtZaW0Qi24fLMjFq1Gp8aLXtRiXsjgXN_VVsLXCIvjEDvpyypasSxxWJ1tYZfIDRmh3gj94a7hvmCcggzChQ5TxogtdbKVl6cD-YuainUkDHei8Dgs7LqLwzcg78e6q4_A89BSbTDe8nh5MCQgmis19jdPGWUjHQyYh8R-CTWKeIDnpQ0Dd0AuCDNHJR2AImO9uNMaOcK7BFl7yU_2FM98ZTOdFrAMEVDAPp3UwK6xHJEfF_uNmiteJ0k6pYXQSZPs-AGawfLuEOQqsBHIEzQ7uGHKJtZ1oGavlmZR-IRZ8GKbl1PZ_1Pp-eESd10wHTTeEy9NM_2c5SAV-VMHQ4GbF2Reox28IZXlJ9T7fy9y9mnrV24QSg7fWlnuYjmuKT_v3LzPbgEvpG_CYwpnJmdJD0mJndxFgWQHUvojlCt2N9qGdk9bBZTv-9YoNtgnINn9sxEhVBFkiQbjiyDtE_mPRRmGI9MRbkkBVEsXjtkOVJpiCvNWAL_sDNgh_Jfv02uXr_MHrokuMSzuBrUueFV0WDkNdgoxdR96MmOEFUz9IEn8pPcbrAXfr4slZcMnpTbJDxTFUGhvoKh_peXbtOEfokt2a-j9ICKGFHRaHtiLG3Ht4KsMsWBZrKeVdeyLoePlt-1pDnHeACNMAW1TeOthVFvS9_-0m00]--></g></svg>