<svg xmlns="http://www.w3.org/2000/svg" xmlns:xlink="http://www.w3.org/1999/xlink" contentStyleType="text/css" data-diagram-type="ACTIVITY" height="1091px" preserveAspectRatio="none" style="width:814px;height:1091px;background:#FFFFFF;" version="1.1" viewBox="0 0 814 1091" width="814px" zoomAndPan="magnify"><title>Frontend State &amp; Logic Flow</title><defs/><g><g class="title" data-source-line="1"><text fill="#000000" font-family="sans-serif" font-size="14" font-weight="bold" lengthAdjust="spacing" textLength="224.916" x="293.3308" y="32.9951">Frontend State &amp; Logic Flow</text></g><rect fill="none" height="20.9531" style="stroke:none;stroke-width:1;" width="781.5776" x="15" y="50.042"/><ellipse cx="157.7988" cy="85.9951" fill="#222222" rx="10" ry="10" style="stroke:#222222;stroke-width:1;"/><rect fill="#F1F1F1" height="33.9688" rx="12.5" ry="12.5" style="stroke:#181818;stroke-width:0.5;" width="102.1602" x="106.7188" y="115.9951"/><text fill="#000000" font-family="sans-serif" font-size="12" lengthAdjust="spacing" textLength="82.1602" x="116.7188" y="137.1338">Initialize Auth</text><rect fill="#F1F1F1" height="33.9688" rx="12.5" ry="12.5" style="stroke:#181818;stroke-width:0.5;" width="103.1855" x="106.2061" y="169.9639"/><text fill="#000000" font-family="sans-serif" font-size="12" lengthAdjust="spacing" textLength="22.4004" x="116.2061" y="191.1025">Call</text><text fill="#000000" font-family="sans-serif" font-size="12" font-weight="bold" lengthAdjust="spacing" textLength="56.9707" x="142.4209" y="191.1025">api.me()</text><polygon fill="#F1F1F1" points="128.2175,223.9326,187.3801,223.9326,199.3801,235.9326,187.3801,247.9326,128.2175,247.9326,116.2175,235.9326,128.2175,223.9326" style="stroke:#181818;stroke-width:0.5;"/><text fill="#000000" font-family="sans-serif" font-size="11" lengthAdjust="spacing" textLength="59.1626" x="128.2175" y="239.7407">Response?</text><text fill="#000000" font-family="sans-serif" font-size="11" lengthAdjust="spacing" textLength="40.3638" x="75.8538" y="233.3384">200 OK</text><text fill="#000000" font-family="sans-serif" font-size="11" lengthAdjust="spacing" textLength="58.9424" x="199.3801" y="233.3384">401 / Error</text><rect fill="#F1F1F1" height="33.9688" rx="12.5" ry="12.5" style="stroke:#181818;stroke-width:0.5;" width="110.5332" x="31.8604" y="257.9326"/><text fill="#000000" font-family="sans-serif" font-size="12" lengthAdjust="spacing" textLength="19.7051" x="41.8604" y="279.0713">Set</text><text fill="#000000" font-family="sans-serif" font-size="12" font-weight="bold" lengthAdjust="spacing" textLength="67.0137" x="65.3799" y="279.0713">User Data</text><rect fill="#F1F1F1" height="33.9688" rx="12.5" ry="12.5" style="stroke:#181818;stroke-width:0.5;" width="132.2539" x="21" y="311.9014"/><text fill="#000000" font-family="sans-serif" font-size="12" lengthAdjust="spacing" textLength="45.6328" x="31" y="333.04">State =</text><text fill="#000000" font-family="sans-serif" font-size="12" font-weight="bold" lengthAdjust="spacing" textLength="62.8066" x="80.4473" y="333.04">LoggedIn</text><rect fill="#F1F1F1" height="33.9688" rx="12.5" ry="12.5" style="stroke:#181818;stroke-width:0.5;" width="110.4336" x="173.2539" y="257.9326"/><text fill="#000000" font-family="sans-serif" font-size="12" lengthAdjust="spacing" textLength="90.4336" x="183.2539" y="279.0713">Set User = null</text><rect fill="#F1F1F1" height="33.9688" rx="12.5" ry="12.5" style="stroke:#181818;stroke-width:0.5;" width="108.8574" x="174.042" y="311.9014"/><text fill="#000000" font-family="sans-serif" font-size="12" lengthAdjust="spacing" textLength="45.6328" x="184.042" y="333.04">State =</text><text fill="#000000" font-family="sans-serif" font-size="12" font-weight="bold" lengthAdjust="spacing" textLength="39.4102" x="233.4893" y="333.04">Guest</text><polygon fill="#F1F1F1" points="157.7988,351.8701,169.7988,363.8701,157.7988,375.8701,145.7988,363.8701,157.7988,351.8701" style="stroke:#181818;stroke-width:0.5;"/><line style="stroke:#000000;stroke-width:1.5;" x1="15" x2="15" y1="50.042" y2="1079.917"/><rect fill="#F1F1F1" height="33.9688" rx="12.5" ry="12.5" style="stroke:#181818;stroke-width:0.5;" width="184.7949" x="484.9304" y="395.8701"/><text fill="#000000" font-family="sans-serif" font-size="12" lengthAdjust="spacing" textLength="164.7949" x="494.9304" y="417.0088">Initialize Todos(page, filter)</text><polygon fill="#F1F1F1" points="545.2114,449.8389,609.4443,449.8389,621.4443,461.8389,609.4443,473.8389,545.2114,473.8389,533.2114,461.8389,545.2114,449.8389" style="stroke:#181818;stroke-width:0.5;"/><text fill="#000000" font-family="sans-serif" font-size="11" lengthAdjust="spacing" textLength="64.2329" x="545.2114" y="465.647">Auth State?</text><text fill="#000000" font-family="sans-serif" font-size="11" lengthAdjust="spacing" textLength="50.7891" x="482.4224" y="459.2446">LoggedIn</text><text fill="#000000" font-family="sans-serif" font-size="11" lengthAdjust="spacing" textLength="32.3071" x="621.4443" y="459.2446">Guest</text><rect fill="#F1F1F1" height="33.9688" rx="12.5" ry="12.5" style="stroke:#181818;stroke-width:0.5;" width="152.8379" x="361.1528" y="483.8389"/><text fill="#000000" font-family="sans-serif" font-size="12" lengthAdjust="spacing" textLength="22.4004" x="371.1528" y="504.9775">Call</text><text fill="#000000" font-family="sans-serif" font-size="12" font-weight="bold" lengthAdjust="spacing" textLength="106.623" x="397.3677" y="504.9775">api.get('/tasks')</text><polygon fill="#F1F1F1" points="412.5129,537.8076,462.6306,537.8076,474.6306,549.8076,462.6306,561.8076,412.5129,561.8076,400.5129,549.8076,412.5129,537.8076" style="stroke:#181818;stroke-width:0.5;"/><text fill="#000000" font-family="sans-serif" font-size="11" lengthAdjust="spacing" textLength="50.1177" x="412.5129" y="553.6157">Success?</text><text fill="#000000" font-family="sans-serif" font-size="11" lengthAdjust="spacing" textLength="19.2178" x="381.2952" y="547.2134">Yes</text><text fill="#000000" font-family="sans-serif" font-size="11" lengthAdjust="spacing" textLength="102.3301" x="474.6306" y="547.2134">No / Network Error</text><rect fill="#F1F1F1" height="33.9688" rx="12.5" ry="12.5" style="stroke:#181818;stroke-width:0.5;" width="117.8867" x="293.6875" y="571.8076"/><text fill="#000000" font-family="sans-serif" font-size="12" lengthAdjust="spacing" textLength="19.7051" x="303.6875" y="592.9463">Set</text><text fill="#000000" font-family="sans-serif" font-size="12" font-weight="bold" lengthAdjust="spacing" textLength="74.3672" x="327.207" y="592.9463">Cloud Data</text><rect fill="#F1F1F1" height="33.9688" rx="12.5" ry="12.5" style="stroke:#181818;stroke-width:0.5;" width="108.6758" x="298.293" y="625.7764"/><text fill="#000000" font-family="sans-serif" font-size="12" lengthAdjust="spacing" textLength="46.5645" x="308.293" y="646.915">Mode =</text><text fill="#000000" font-family="sans-serif" font-size="12" font-weight="bold" lengthAdjust="spacing" textLength="38.2969" x="358.6719" y="646.915">Cloud</text><rect fill="#F1F1F1" height="33.9688" rx="12.5" ry="12.5" style="stroke:#181818;stroke-width:0.5;" width="181.877" x="431.5742" y="571.8076"/><text fill="#000000" font-family="sans-serif" font-size="12" lengthAdjust="spacing" textLength="65.3027" x="441.5742" y="592.9463">Fallback to</text><text fill="#000000" font-family="sans-serif" font-size="12" font-weight="bold" lengthAdjust="spacing" textLength="92.7598" x="510.6914" y="592.9463">Local Storage</text><rect fill="#F1F1F1" height="33.9688" rx="12.5" ry="12.5" style="stroke:#181818;stroke-width:0.5;" width="170.4863" x="437.2695" y="625.7764"/><text fill="#000000" font-family="sans-serif" font-size="12" lengthAdjust="spacing" textLength="46.5645" x="447.2695" y="646.915">Mode =</text><text fill="#000000" font-family="sans-serif" font-size="12" font-weight="bold" lengthAdjust="spacing" textLength="100.1074" x="497.6484" y="646.915">Guest (Offline)</text><polygon fill="#F1F1F1" points="437.5718,665.7451,449.5718,677.7451,437.5718,689.7451,425.5718,677.7451,437.5718,665.7451" style="stroke:#181818;stroke-width:0.5;"/><rect fill="#F1F1F1" height="33.9688" rx="12.5" ry="12.5" style="stroke:#181818;stroke-width:0.5;" width="147.2656" x="643.4512" y="483.8389"/><text fill="#000000" font-family="sans-serif" font-size="12" lengthAdjust="spacing" textLength="30.6914" x="653.4512" y="504.9775">Read</text><text fill="#000000" font-family="sans-serif" font-size="12" font-weight="bold" lengthAdjust="spacing" textLength="92.7598" x="687.957" y="504.9775">Local Storage</text><rect fill="#F1F1F1" height="33.9688" rx="12.5" ry="12.5" style="stroke:#181818;stroke-width:0.5;" width="109.7891" x="662.1895" y="537.8076"/><text fill="#000000" font-family="sans-serif" font-size="12" lengthAdjust="spacing" textLength="46.5645" x="672.1895" y="558.9463">Mode =</text><text fill="#000000" font-family="sans-serif" font-size="12" font-weight="bold" lengthAdjust="spacing" textLength="39.4102" x="722.5684" y="558.9463">Guest</text><polygon fill="#F1F1F1" points="577.3279,695.7451,589.3279,707.7451,577.3279,719.7451,565.3279,707.7451,577.3279,695.7451" style="stroke:#181818;stroke-width:0.5;"/><rect fill="none" height="308.1719" style="stroke:#000000;stroke-width:1.5;" width="307.3457" x="425.6868" y="729.7451"/><path d="M589.6389,729.7451 L589.6389,739.042 L579.6389,749.042 L425.6868,749.042" fill="none" style="stroke:#000000;stroke-width:1.5;"/><text fill="#000000" font-family="sans-serif" font-size="14" lengthAdjust="spacing" textLength="153.9521" x="428.6868" y="743.7402">User Action: Add Task</text><polygon fill="#F1F1F1" points="559.4233,766.042,595.2324,766.042,607.2324,778.042,595.2324,790.042,559.4233,790.042,547.4233,778.042,559.4233,766.042" style="stroke:#181818;stroke-width:0.5;"/><text fill="#000000" font-family="sans-serif" font-size="11" lengthAdjust="spacing" textLength="35.8091" x="559.4233" y="781.8501">Mode?</text><text fill="#000000" font-family="sans-serif" font-size="11" lengthAdjust="spacing" textLength="31.4209" x="516.0024" y="775.4478">Cloud</text><text fill="#000000" font-family="sans-serif" font-size="11" lengthAdjust="spacing" textLength="32.3071" x="607.2324" y="775.4478">Guest</text><rect fill="#F1F1F1" height="33.9688" rx="12.5" ry="12.5" style="stroke:#181818;stroke-width:0.5;" width="112.2559" x="449.3635" y="800.042"/><text fill="#000000" font-family="sans-serif" font-size="12" lengthAdjust="spacing" textLength="22.4004" x="459.3635" y="821.1807">Call</text><text fill="#000000" font-family="sans-serif" font-size="12" font-weight="bold" lengthAdjust="spacing" textLength="66.041" x="485.5784" y="821.1807">api.post()</text><rect fill="#F1F1F1" height="33.9688" rx="12.5" ry="12.5" style="stroke:#181818;stroke-width:0.5;" width="119.6094" x="445.6868" y="854.0107"/><text fill="#000000" font-family="sans-serif" font-size="12" lengthAdjust="spacing" textLength="99.6094" x="455.6868" y="875.1494">Invalidate Query</text><rect fill="#F1F1F1" height="33.9688" rx="12.5" ry="12.5" style="stroke:#181818;stroke-width:0.5;" width="91.0273" x="459.9778" y="907.9795"/><text fill="#000000" font-family="sans-serif" font-size="12" lengthAdjust="spacing" textLength="71.0273" x="469.9778" y="929.1182">Refetch List</text><rect fill="#F1F1F1" height="33.9688" rx="12.5" ry="12.5" style="stroke:#181818;stroke-width:0.5;" width="68.8086" x="614.76" y="800.042"/><text fill="#000000" font-family="sans-serif" font-size="12" lengthAdjust="spacing" textLength="48.8086" x="624.76" y="821.1807">Read LS</text><rect fill="#F1F1F1" height="33.9688" rx="12.5" ry="12.5" style="stroke:#181818;stroke-width:0.5;" width="127.7363" x="585.2961" y="854.0107"/><text fill="#000000" font-family="sans-serif" font-size="12" lengthAdjust="spacing" textLength="107.7363" x="595.2961" y="875.1494">Append New Task</text><rect fill="#F1F1F1" height="33.9688" rx="12.5" ry="12.5" style="stroke:#181818;stroke-width:0.5;" width="70.3379" x="613.9954" y="907.9795"/><text fill="#000000" font-family="sans-serif" font-size="12" lengthAdjust="spacing" textLength="50.3379" x="623.9954" y="929.1182">Write LS</text><rect fill="#F1F1F1" height="33.9688" rx="12.5" ry="12.5" style="stroke:#181818;stroke-width:0.5;" width="96.0137" x="601.1575" y="961.9482"/><text fill="#000000" font-family="sans-serif" font-size="12" lengthAdjust="spacing" textLength="76.0137" x="611.1575" y="983.0869">Update View</text><polygon fill="#F1F1F1" points="577.3279,1001.917,589.3279,1013.917,577.3279,1025.917,565.3279,1013.917,577.3279,1001.917" style="stroke:#181818;stroke-width:0.5;"/><ellipse cx="577.3279" cy="1068.917" fill="none" rx="11" ry="11" style="stroke:#222222;stroke-width:1;"/><ellipse cx="577.3279" cy="1068.917" fill="#222222" rx="6" ry="6" style="stroke:#222222;stroke-width:1;"/><line style="stroke:#000000;stroke-width:1.5;" x1="287.6875" x2="287.6875" y1="50.042" y2="1079.917"/><line style="stroke:#000000;stroke-width:1.5;" x1="794.7168" x2="794.7168" y1="50.042" y2="1079.917"/><line style="stroke:#181818;stroke-width:1;" x1="157.7988" x2="157.7988" y1="95.9951" y2="115.9951"/><polygon fill="#181818" points="153.7988,105.9951,157.7988,115.9951,161.7988,105.9951,157.7988,109.9951" style="stroke:#181818;stroke-width:1;"/><line style="stroke:#181818;stroke-width:1;" x1="157.7988" x2="157.7988" y1="149.9639" y2="169.9639"/><polygon fill="#181818" points="153.7988,159.9639,157.7988,169.9639,161.7988,159.9639,157.7988,163.9639" style="stroke:#181818;stroke-width:1;"/><line style="stroke:#181818;stroke-width:1;" x1="87.127" x2="87.127" y1="291.9014" y2="311.9014"/><polygon fill="#181818" points="83.127,301.9014,87.127,311.9014,91.127,301.9014,87.127,305.9014" style="stroke:#181818;stroke-width:1;"/><line style="stroke:#181818;stroke-width:1;" x1="228.4707" x2="228.4707" y1="291.9014" y2="311.9014"/><polygon fill="#181818" points="224.4707,301.9014,228.4707,311.9014,232.4707,301.9014,228.4707,305.9014" style="stroke:#181818;stroke-width:1;"/><line style="stroke:#181818;stroke-width:1;" x1="116.2175" x2="87.127" y1="235.9326" y2="235.9326"/><line style="stroke:#181818;stroke-width:1;" x1="87.127" x2="87.127" y1="235.9326" y2="257.9326"/><polygon fill="#181818" points="83.127,247.9326,87.127,257.9326,91.127,247.9326,87.127,251.9326" style="stroke:#181818;stroke-width:1;"/><line style="stroke:#181818;stroke-width:1;" x1="199.3801" x2="228.4707" y1="235.9326" y2="235.9326"/><line style="stroke:#181818;stroke-width:1;" x1="228.4707" x2="228.4707" y1="235.9326" y2="257.9326"/><polygon fill="#181818" points="224.4707,247.9326,228.4707,257.9326,232.4707,247.9326,228.4707,251.9326" style="stroke:#181818;stroke-width:1;"/><line style="stroke:#181818;stroke-width:1;" x1="87.127" x2="87.127" y1="345.8701" y2="363.8701"/><line style="stroke:#181818;stroke-width:1;" x1="87.127" x2="145.7988" y1="363.8701" y2="363.8701"/><polygon fill="#181818" points="135.7988,359.8701,145.7988,363.8701,135.7988,367.8701,139.7988,363.8701" style="stroke:#181818;stroke-width:1;"/><line style="stroke:#181818;stroke-width:1;" x1="228.4707" x2="228.4707" y1="345.8701" y2="363.8701"/><line style="stroke:#181818;stroke-width:1;" x1="228.4707" x2="169.7988" y1="363.8701" y2="363.8701"/><polygon fill="#181818" points="179.7988,359.8701,169.7988,363.8701,179.7988,367.8701,175.7988,363.8701" style="stroke:#181818;stroke-width:1;"/><line style="stroke:#181818;stroke-width:1;" x1="157.7988" x2="157.7988" y1="203.9326" y2="223.9326"/><polygon fill="#181818" points="153.7988,213.9326,157.7988,223.9326,161.7988,213.9326,157.7988,217.9326" style="stroke:#181818;stroke-width:1;"/><line style="stroke:#181818;stroke-width:1;" x1="352.6309" x2="352.6309" y1="605.7764" y2="625.7764"/><polygon fill="#181818" points="348.6309,615.7764,352.6309,625.7764,356.6309,615.7764,352.6309,619.7764" style="stroke:#181818;stroke-width:1;"/><line style="stroke:#181818;stroke-width:1;" x1="522.5127" x2="522.5127" y1="605.7764" y2="625.7764"/><polygon fill="#181818" points="518.5127,615.7764,522.5127,625.7764,526.5127,615.7764,522.5127,619.7764" style="stroke:#181818;stroke-width:1;"/><line style="stroke:#181818;stroke-width:1;" x1="400.5129" x2="352.6309" y1="549.8076" y2="549.8076"/><line style="stroke:#181818;stroke-width:1;" x1="352.6309" x2="352.6309" y1="549.8076" y2="571.8076"/><polygon fill="#181818" points="348.6309,561.8076,352.6309,571.8076,356.6309,561.8076,352.6309,565.8076" style="stroke:#181818;stroke-width:1;"/><line style="stroke:#181818;stroke-width:1;" x1="474.6306" x2="522.5127" y1="549.8076" y2="549.8076"/><line style="stroke:#181818;stroke-width:1;" x1="522.5127" x2="522.5127" y1="549.8076" y2="571.8076"/><polygon fill="#181818" points="518.5127,561.8076,522.5127,571.8076,526.5127,561.8076,522.5127,565.8076" style="stroke:#181818;stroke-width:1;"/><line style="stroke:#181818;stroke-width:1;" x1="352.6309" x2="352.6309" y1="659.7451" y2="677.7451"/><line style="stroke:#181818;stroke-width:1;" x1="352.6309" x2="425.5718" y1="677.7451" y2="677.7451"/><polygon fill="#181818" points="415.5718,673.7451,425.5718,677.7451,415.5718,681.7451,419.5718,677.7451" style="stroke:#181818;stroke-width:1;"/><line style="stroke:#181818;stroke-width:1;" x1="522.5127" x2="522.5127" y1="659.7451" y2="677.7451"/><line style="stroke:#181818;stroke-width:1;" x1="522.5127" x2="449.5718" y1="677.7451" y2="677.7451"/><polygon fill="#181818" points="459.5718,673.7451,449.5718,677.7451,459.5718,681.7451,455.5718,677.7451" style="stroke:#181818;stroke-width:1;"/><line style="stroke:#181818;stroke-width:1;" x1="437.5718" x2="437.5718" y1="517.8076" y2="537.8076"/><polygon fill="#181818" points="433.5718,527.8076,437.5718,537.8076,441.5718,527.8076,437.5718,531.8076" style="stroke:#181818;stroke-width:1;"/><line style="stroke:#181818;stroke-width:1;" x1="717.084" x2="717.084" y1="517.8076" y2="537.8076"/><polygon fill="#181818" points="713.084,527.8076,717.084,537.8076,721.084,527.8076,717.084,531.8076" style="stroke:#181818;stroke-width:1;"/><line style="stroke:#181818;stroke-width:1;" x1="533.2114" x2="437.5718" y1="461.8389" y2="461.8389"/><line style="stroke:#181818;stroke-width:1;" x1="437.5718" x2="437.5718" y1="461.8389" y2="483.8389"/><polygon fill="#181818" points="433.5718,473.8389,437.5718,483.8389,441.5718,473.8389,437.5718,477.8389" style="stroke:#181818;stroke-width:1;"/><line style="stroke:#181818;stroke-width:1;" x1="621.4443" x2="717.084" y1="461.8389" y2="461.8389"/><line style="stroke:#181818;stroke-width:1;" x1="717.084" x2="717.084" y1="461.8389" y2="483.8389"/><polygon fill="#181818" points="713.084,473.8389,717.084,483.8389,721.084,473.8389,717.084,477.8389" style="stroke:#181818;stroke-width:1;"/><line style="stroke:#181818;stroke-width:1;" x1="437.5718" x2="437.5718" y1="689.7451" y2="707.7451"/><line style="stroke:#181818;stroke-width:1;" x1="437.5718" x2="565.3279" y1="707.7451" y2="707.7451"/><polygon fill="#181818" points="555.3279,703.7451,565.3279,707.7451,555.3279,711.7451,559.3279,707.7451" style="stroke:#181818;stroke-width:1;"/><line style="stroke:#181818;stroke-width:1;" x1="717.084" x2="717.084" y1="571.7764" y2="707.7451"/><line style="stroke:#181818;stroke-width:1;" x1="717.084" x2="589.3279" y1="707.7451" y2="707.7451"/><polygon fill="#181818" points="599.3279,703.7451,589.3279,707.7451,599.3279,711.7451,595.3279,707.7451" style="stroke:#181818;stroke-width:1;"/><line style="stroke:#181818;stroke-width:1;" x1="577.3279" x2="577.3279" y1="429.8389" y2="449.8389"/><polygon fill="#181818" points="573.3279,439.8389,577.3279,449.8389,581.3279,439.8389,577.3279,443.8389" style="stroke:#181818;stroke-width:1;"/><line style="stroke:#181818;stroke-width:1;" x1="505.4915" x2="505.4915" y1="834.0107" y2="854.0107"/><polygon fill="#181818" points="501.4915,844.0107,505.4915,854.0107,509.4915,844.0107,505.4915,848.0107" style="stroke:#181818;stroke-width:1;"/><line style="stroke:#181818;stroke-width:1;" x1="505.4915" x2="505.4915" y1="887.9795" y2="907.9795"/><polygon fill="#181818" points="501.4915,897.9795,505.4915,907.9795,509.4915,897.9795,505.4915,901.9795" style="stroke:#181818;stroke-width:1;"/><line style="stroke:#181818;stroke-width:1;" x1="649.1643" x2="649.1643" y1="834.0107" y2="854.0107"/><polygon fill="#181818" points="645.1643,844.0107,649.1643,854.0107,653.1643,844.0107,649.1643,848.0107" style="stroke:#181818;stroke-width:1;"/><line style="stroke:#181818;stroke-width:1;" x1="649.1643" x2="649.1643" y1="887.9795" y2="907.9795"/><polygon fill="#181818" points="645.1643,897.9795,649.1643,907.9795,653.1643,897.9795,649.1643,901.9795" style="stroke:#181818;stroke-width:1;"/><line style="stroke:#181818;stroke-width:1;" x1="649.1643" x2="649.1643" y1="941.9482" y2="961.9482"/><polygon fill="#181818" points="645.1643,951.9482,649.1643,961.9482,653.1643,951.9482,649.1643,955.9482" style="stroke:#181818;stroke-width:1;"/><line style="stroke:#181818;stroke-width:1;" x1="547.4233" x2="505.4915" y1="778.042" y2="778.042"/><line style="stroke:#181818;stroke-width:1;" x1="505.4915" x2="505.4915" y1="778.042" y2="800.042"/><polygon fill="#181818" points="501.4915,790.042,505.4915,800.042,509.4915,790.042,505.4915,794.042" style="stroke:#181818;stroke-width:1;"/><line style="stroke:#181818;stroke-width:1;" x1="607.2324" x2="649.1643" y1="778.042" y2="778.042"/><line style="stroke:#181818;stroke-width:1;" x1="649.1643" x2="649.1643" y1="778.042" y2="800.042"/><polygon fill="#181818" points="645.1643,790.042,649.1643,800.042,653.1643,790.042,649.1643,794.042" style="stroke:#181818;stroke-width:1;"/><line style="stroke:#181818;stroke-width:1;" x1="505.4915" x2="505.4915" y1="941.9482" y2="1013.917"/><line style="stroke:#181818;stroke-width:1;" x1="505.4915" x2="565.3279" y1="1013.917" y2="1013.917"/><polygon fill="#181818" points="555.3279,1009.917,565.3279,1013.917,555.3279,1017.917,559.3279,1013.917" style="stroke:#181818;stroke-width:1;"/><line style="stroke:#181818;stroke-width:1;" x1="649.1643" x2="649.1643" y1="995.917" y2="1013.917"/><line style="stroke:#181818;stroke-width:1;" x1="649.1643" x2="589.3279" y1="1013.917" y2="1013.917"/><polygon fill="#181818" points="599.3279,1009.917,589.3279,1013.917,599.3279,1017.917,595.3279,1013.917" style="stroke:#181818;stroke-width:1;"/><line style="stroke:#181818;stroke-width:1;" x1="577.3279" x2="577.3279" y1="719.7451" y2="766.042"/><polygon fill="#181818" points="573.3279,756.042,577.3279,766.042,581.3279,756.042,577.3279,760.042" style="stroke:#181818;stroke-width:1;"/><line style="stroke:#181818;stroke-width:1;" x1="577.3279" x2="577.3279" y1="1025.917" y2="1057.917"/><polygon fill="#181818" points="573.3279,1047.917,577.3279,1057.917,581.3279,1047.917,577.3279,1051.917" style="stroke:#181818;stroke-width:1;"/><line style="stroke:#181818;stroke-width:1;" x1="157.7988" x2="157.7988" y1="375.8701" y2="380.8701"/><line style="stroke:#181818;stroke-width:1;" x1="157.7988" x2="577.3279" y1="380.8701" y2="380.8701"/><line style="stroke:#181818;stroke-width:1;" x1="577.3279" x2="577.3279" y1="380.8701" y2="395.8701"/><polygon fill="#181818" points="573.3279,385.8701,577.3279,395.8701,581.3279,385.8701,577.3279,389.8701" style="stroke:#181818;stroke-width:1;"/><text fill="#000000" font-family="sans-serif" font-size="18" lengthAdjust="spacing" textLength="212.5547" x="45.0664" y="66.75">Auth Context (useAuth)</text><text fill="#000000" font-family="sans-serif" font-size="18" lengthAdjust="spacing" textLength="224.9824" x="428.7109" y="66.75">Data Context (useTodos)</text><!--SRC=[TPD1RniX48Nl_8fH3WbhLObRzMGhgYothgowZcedZN8aowoDJ071RDqswNyliCu6HyqH7czctWUG8eqmyzOG6Wbh4eHm2WkxKJNCjDqpzZXfQGlJTE8N0My3fetgaGKIdjXeRXGfeTKVX2ICsMWgj8R1G3Xr_WDvDHYC6LCDy1K6Pqt03nNG5WtmTyCXN7sf6C1eZHGjDm4zV1GaaYVjvdaken8dsg2ScoIW3WZy_V0jNC0dxwtlAsJ_9PXMwnV-poq6ocOZLHDJfIv7gQwjj276AWFbFUx41jz0epIXhyOvIcQIg_TXdYPCmyJM1OGD4Z-x815suQpgaW6aAkkshZ64liGTXiwTAtH8fjgsic1o4BzQsGNB-fFKaLdQ26Q9jBT-zmpeO9p5kUv5lGEo6MijT0nYVSpu_mQP7F2hfj7AO3z_nx5hc8ySSgzGoDSAloXQN8UBJobIjmPEyXrEwhGOmKHAk8xWJk2XfvQAzCXo_29UWTtPGBmw2ZKtF-F5olGelhNeVnVI2XkaUWiB5QY4MMHxphTO5yw9S-dlB76VHosKMwzYfwF3Dovt_wvmNtByo-9tikuV]--></g></svg>